<mxfile host="app.diagrams.net" modified="2022-06-12T10:19:27.465Z" agent="5.0 (Macintosh; Intel Mac OS X 10_15_7) AppleWebKit/537.36 (KHTML, like Gecko) Chrome/102.0.0.0 Safari/537.36" etag="B36uTvS4T6zEwjk-ECYd" version="20.0.0" type="github">
  <diagram id="cu--mmnCfQmoxvePclkl" name="Page-1">
    <mxGraphModel dx="2357" dy="860" grid="1" gridSize="10" guides="1" tooltips="1" connect="1" arrows="1" fold="1" page="1" pageScale="1" pageWidth="827" pageHeight="1169" math="0" shadow="0">
      <root>
        <mxCell id="0" />
        <mxCell id="1" parent="0" />
        <mxCell id="UMKoZDGZpHtY30t7DNIq-1" value="LabelBee 支持点云功能" style="rounded=0;whiteSpace=wrap;html=1;" parent="1" vertex="1">
          <mxGeometry x="310" y="30" width="150" height="40" as="geometry" />
        </mxCell>
        <mxCell id="UMKoZDGZpHtY30t7DNIq-3" value="lb - annotation 中集成 threejs 各类渲染操作" style="rounded=0;whiteSpace=wrap;html=1;" parent="1" vertex="1">
          <mxGeometry x="310" y="150" width="150" height="40" as="geometry" />
        </mxCell>
        <mxCell id="vRJ8NS9Ozwkvw3oWJRk8-1" value="Threejs pureDependencires 到 lb-annotation?&lt;br&gt;(并且为 optional: true -&amp;nbsp;&lt;span data-darkreader-inline-bgcolor=&quot;&quot; data-darkreader-inline-color=&quot;&quot; style=&quot;color: rgb(142, 236, 170); font-family: SFMono-Regular, Consolas, &amp;quot;Liberation Mono&amp;quot;, Menlo, monospace; text-align: start; background-color: rgb(24, 26, 27); --darkreader-inline-color:#84eaa3; --darkreader-inline-bgcolor:#131516;&quot;&gt;peerDependenciesMeta&lt;/span&gt;)" style="ellipse;whiteSpace=wrap;html=1;" vertex="1" parent="1">
          <mxGeometry x="1000" y="310" width="440" height="70" as="geometry" />
        </mxCell>
        <mxCell id="vRJ8NS9Ozwkvw3oWJRk8-10" value="1.&amp;nbsp; 3 D 渲染的库&lt;br&gt;" style="rounded=0;whiteSpace=wrap;html=1;" vertex="1" parent="1">
          <mxGeometry x="-20" y="280" width="120" height="60" as="geometry" />
        </mxCell>
        <mxCell id="vRJ8NS9Ozwkvw3oWJRk8-11" value="2. 三视图的渲染加操作" style="rounded=0;whiteSpace=wrap;html=1;" vertex="1" parent="1">
          <mxGeometry x="317" y="280" width="136" height="60" as="geometry" />
        </mxCell>
        <mxCell id="vRJ8NS9Ozwkvw3oWJRk8-12" value="3. 2D 映射视图框体" style="rounded=1;whiteSpace=wrap;html=1;arcSize=0;" vertex="1" parent="1">
          <mxGeometry x="760" y="280" width="120" height="60" as="geometry" />
        </mxCell>
        <mxCell id="vRJ8NS9Ozwkvw3oWJRk8-13" value="将功能的在 lb-components 内进行初始化，能单纯通过配置进行部署" style="rounded=0;whiteSpace=wrap;html=1;" vertex="1" parent="1">
          <mxGeometry x="277.25" y="1100" width="225.5" height="50" as="geometry" />
        </mxCell>
        <mxCell id="vRJ8NS9Ozwkvw3oWJRk8-18" style="edgeStyle=orthogonalEdgeStyle;rounded=0;orthogonalLoop=1;jettySize=auto;html=1;entryX=0;entryY=0.5;entryDx=0;entryDy=0;" edge="1" parent="1" source="vRJ8NS9Ozwkvw3oWJRk8-15" target="vRJ8NS9Ozwkvw3oWJRk8-17">
          <mxGeometry relative="1" as="geometry" />
        </mxCell>
        <mxCell id="vRJ8NS9Ozwkvw3oWJRk8-15" value="&amp;nbsp;业务注入层次" style="rounded=0;whiteSpace=wrap;html=1;" vertex="1" parent="1">
          <mxGeometry x="320" y="900" width="140" height="60" as="geometry" />
        </mxCell>
        <mxCell id="vRJ8NS9Ozwkvw3oWJRk8-17" value="1.&amp;nbsp;&amp;nbsp;&lt;br&gt;2.&amp;nbsp;&lt;br&gt;3.&amp;nbsp;" style="rounded=0;whiteSpace=wrap;html=1;" vertex="1" parent="1">
          <mxGeometry x="650" y="900" width="120" height="60" as="geometry" />
        </mxCell>
        <mxCell id="vRJ8NS9Ozwkvw3oWJRk8-19" value="LabelBee-Client 有了点云功能！！！" style="rounded=0;whiteSpace=wrap;html=1;" vertex="1" parent="1">
          <mxGeometry x="180" y="1310" width="430" height="60" as="geometry" />
        </mxCell>
        <mxCell id="vRJ8NS9Ozwkvw3oWJRk8-20" value="边缘功能控件的重新编写" style="rounded=0;whiteSpace=wrap;html=1;" vertex="1" parent="1">
          <mxGeometry x="620" y="1100" width="225.5" height="50" as="geometry" />
        </mxCell>
        <mxCell id="vRJ8NS9Ozwkvw3oWJRk8-21" value="1. Header 的重新适配&lt;br&gt;2. 侧边栏的标注的操作支持&lt;br&gt;" style="whiteSpace=wrap;html=1;" vertex="1" parent="1">
          <mxGeometry x="960" y="970" width="190" height="130" as="geometry" />
        </mxCell>
        <mxCell id="vRJ8NS9Ozwkvw3oWJRk8-22" value="1-1.&amp;nbsp;" style="rounded=0;whiteSpace=wrap;html=1;" vertex="1" parent="1">
          <mxGeometry x="-20" y="490" width="120" height="60" as="geometry" />
        </mxCell>
        <mxCell id="vRJ8NS9Ozwkvw3oWJRk8-23" value="2-1. xx&lt;br&gt;2-2. xx" style="rounded=0;whiteSpace=wrap;html=1;" vertex="1" parent="1">
          <mxGeometry x="317" y="490" width="136" height="60" as="geometry" />
        </mxCell>
        <mxCell id="vRJ8NS9Ozwkvw3oWJRk8-24" value="3-1. xxx&lt;br&gt;" style="rounded=1;whiteSpace=wrap;html=1;arcSize=0;" vertex="1" parent="1">
          <mxGeometry x="760" y="490" width="120" height="60" as="geometry" />
        </mxCell>
        <mxCell id="vRJ8NS9Ozwkvw3oWJRk8-25" value="" style="rounded=0;whiteSpace=wrap;html=1;fillColor=none;" vertex="1" parent="1">
          <mxGeometry x="-120" y="230" width="1100" height="360" as="geometry" />
        </mxCell>
        <mxCell id="vRJ8NS9Ozwkvw3oWJRk8-26" value="2-1. 拉框 &amp;amp; 多边形工具的切换&lt;br&gt;2-2. 所有已标注 ID 的展示&lt;br&gt;2-3. 当前标注ID 调整（有点类似与文本标注）&amp;nbsp;" style="whiteSpace=wrap;html=1;fillColor=default;strokeColor=default;" vertex="1" parent="1">
          <mxGeometry x="1230" y="880" width="280" height="160" as="geometry" />
        </mxCell>
        <mxCell id="vRJ8NS9Ozwkvw3oWJRk8-27" value="" style="shape=image;verticalLabelPosition=bottom;labelBackgroundColor=default;verticalAlign=top;aspect=fixed;imageAspect=0;image=data:image/png,iVBORw0KGgoAAAANSUhEUgAABsgAAAP8CAYAAADr7jv7AAAMbWlDQ1BJQ0MgUHJvZmlsZQAASImVVwdYU8kWnluSkJDQAghICb0JIjWAlBBaAOlFsBGSQEKJMSGo2JFFBdeCiChWdFVEsa2A2LEri2LviwUVZV3UxYbKm5CArvvK9873zb1/zpz5T7kzufcAoPmBK5HkoloA5InzpfFhQYyxqWkM0lNAABSgDsyBEZcnk7BiY6MAlMH73+XdDYAo7ledFFz/nP+vosMXyHgAIOMhzuDLeHkQHwcAX8uTSPMBICr0llPzJQo8F2JdKQwQ4goFzlLi7QqcocSHB2wS49kQXwZAjcrlSrMA0LgH9YwCXhbk0fgMsYuYLxIDoDkCYn+ekMuHWBH7iLy8yQpcBbEdtJdADOMBzIzvOLP+xp8xxM/lZg1hZV4DohYskklyudP/z9L8b8nLlQ/6sIGDKpSGxyvyhzW8lTM5UoGpEHeLM6JjFLWG+IOIr6w7AChFKA9PUtqjxjwZG9YP6EPswucGR0JsDHGoODc6SqXPyBSFciCGuwWdJsrnJEJsAPFCgSwkQWWzUTo5XuULbciUslkq/TmudMCvwtcDeU4SS8X/RijgqPgxjUJhYgrEFIitCkTJ0RBrQOwsy0mIVNmMLhSyowdtpPJ4RfxWEMcLxGFBSn6sIFMaGq+yL82TDeaLbRSKONEqvC9fmBiurA92iscdiB/mgl0WiFlJgzwC2diowVz4guAQZe7Yc4E4KUHF80GSHxSvXItTJLmxKnvcQpAbptBbQOwuK0hQrcWT8+HmVPLjmZL82ERlnHhhNjciVhkPvgxEATYIBgwghyMDTAbZQNTW3dgNfylnQgEXSEEWEAAnlWZwRcrAjBheE0Ah+AMiAZANrQsamBWAAqj/MqRVXp1A5sBswcCKHPAU4jwQCXLhb/nAKvGQt2TwBGpE//DOhYMH482FQzH/7/WD2m8aFtREqTTyQY8MzUFLYggxmBhODCXa40a4P+6LR8FrIByuOBP3Hszjmz3hKaGd8IhwndBBuD1JVCT9IcoxoAPyh6pqkfF9LXAbyOmBB+F+kB0y4/q4EXDC3aEfFh4APXtALVsVt6IqjB+4/5bBd09DZUd2IaPkYeRAst2PKzUcNDyGWBS1/r4+ylgzhurNHpr50T/7u+rz4T3yR0tsIbYfO4udwM5jh7FGwMCOYU1YK3ZEgYd215OB3TXoLX4gnhzII/qHv8Enq6ikzKXOpcvls3IuXzAtX3Hw2JMl06WiLGE+gwXfDgIGR8xzHsFwdXF1BUDxrlH+fb2NG3iHIPqt33TzfwfA71h/f/+hb7qIYwDs9YLH/+A3nR0TAG11AM4d5MmlBUodrrgo3mGa8KQZAlNgCexgPq7AE/iCQBACIkAMSASpYCKMXgj3uRRMBTPBPFACysAysBKsARvAZrAd7AL7QCM4DE6AM+AiuAyug7tw93SCl6AHvAN9CIKQEBpCRwwRM8QacURcESbij4QgUUg8koqkI1mIGJEjM5H5SBlSjqxBNiG1yF7kIHICOY+0I7eRh0gX8gb5hGIoFdVFTVAbdCTKRFloJJqITkCz0CloIVqMLkGr0Bp0J9qAnkAvotfRDvQl2osBTB3Tx8wxJ4yJsbEYLA3LxKTYbKwUq8RqsHqsGT7nq1gH1o19xIk4HWfgTnAHh+NJOA+fgs/GF+Nr8O14A34Kv4o/xHvwrwQawZjgSPAhcAhjCVmEqYQSQiVhK+EA4TQ8S52Ed0QiUZ9oS/SCZzGVmE2cQVxMXEfcTTxObCc+JvaSSCRDkiPJjxRD4pLySSWk1aSdpGOkK6RO0gc1dTUzNVe1ULU0NbFakVql2g61o2pX1J6p9ZG1yNZkH3IMmU+eTl5K3kJuJl8id5L7KNoUW4ofJZGSTZlHqaLUU05T7lHeqqurW6h7q8epi9Tnqlep71E/p/5Q/SNVh+pAZVPHU+XUJdRt1OPU29S3NBrNhhZIS6Pl05bQamknaQ9oHzToGs4aHA2+xhyNao0GjSsarzTJmtaaLM2JmoWalZr7NS9pdmuRtWy02Fpcrdla1VoHtW5q9WrTtUdpx2jnaS/W3qF9Xvu5DknHRidEh69TrLNZ56TOYzpGt6Sz6Tz6fPoW+ml6py5R11aXo5utW6a7S7dNt0dPR89dL1lvml613hG9Dn1M30afo5+rv1R/n/4N/U/DTIaxhgmGLRpWP+zKsPcGww0CDQQGpQa7Da4bfDJkGIYY5hguN2w0vG+EGzkYxRlNNVpvdNqoe7jucN/hvOGlw/cNv2OMGjsYxxvPMN5s3Grca2JqEmYiMVltctKk21TfNNA027TC9KhplxndzN9MZFZhdszsBUOPwWLkMqoYpxg95sbm4eZy803mbeZ9FrYWSRZFFrst7ltSLJmWmZYVli2WPVZmVmOsZlrVWd2xJlszrYXWq6zPWr+3sbVJsVlg02jz3NbAlmNbaFtne8+OZhdgN8Wuxu6aPdGeaZ9jv87+sgPq4OEgdKh2uOSIOno6ihzXObaPIIzwHiEeUTPiphPVieVU4FTn9NBZ3znKuci50fnVSKuRaSOXjzw78quLh0uuyxaXu6N0RkWMKhrVPOqNq4Mrz7Xa9ZobzS3UbY5bk9trd0d3gft691sedI8xHgs8Wjy+eHp5Sj3rPbu8rLzSvdZ63WTqMmOZi5nnvAneQd5zvA97f/Tx9Mn32efzp6+Tb47vDt/no21HC0ZvGf3Yz8KP67fJr8Of4Z/uv9G/I8A8gBtQE/Ao0DKQH7g18BnLnpXN2sl6FeQSJA06EPSe7cOexT4ejAWHBZcGt4XohCSFrAl5EGoRmhVaF9oT5hE2I+x4OCE8Mnx5+E2OCYfHqeX0RHhFzIo4FUmNTIhcE/koyiFKGtU8Bh0TMWbFmHvR1tHi6MYYEMOJWRFzP9Y2dkrsoThiXGxcddzT+FHxM+PPJtATJiXsSHiXGJS4NPFukl2SPKklWTN5fHJt8vuU4JTylI6xI8fOGnsx1ShVlNqURkpLTtua1jsuZNzKcZ3jPcaXjL8xwXbCtAnnJxpNzJ14ZJLmJO6k/emE9JT0HemfuTHcGm5vBidjbUYPj81bxXvJD+RX8LsEfoJywbNMv8zyzOdZflkrsrqEAcJKYbeILVojep0dnr0h+31OTM62nP7clNzdeWp56XkHxTriHPGpyaaTp01ulzhKSiQdU3ymrJzSI42UbpUhsgmypnxd+FHfKreT/yR/WOBfUF3wYWry1P3TtKeJp7VOd5i+aPqzwtDCX2bgM3gzWmaaz5w38+Es1qxNs5HZGbNb5ljOKZ7TOTds7vZ5lHk5834rcikqL/prfsr85mKT4rnFj38K+6muRKNEWnJzge+CDQvxhaKFbYvcFq1e9LWUX3qhzKWssuzzYt7iCz+P+rnq5/4lmUvalnouXb+MuEy87MbygOXby7XLC8sfrxizoqGCUVFa8dfKSSvPV7pXblhFWSVf1VEVVdW02mr1stWf1wjXXK8Oqt691njtorXv1/HXXVkfuL5+g8mGsg2fNoo23toUtqmhxqamcjNxc8Hmp1uSt5z9hflL7VajrWVbv2wTb+vYHr/9VK1Xbe0O4x1L69A6eV3XzvE7L+8K3tVU71S/abf+7rI9YI98z4u96Xtv7Ivc17Kfub/+V+tf1x6gHyhtQBqmN/Q0Chs7mlKb2g9GHGxp9m0+cMj50LbD5oerj+gdWXqUcrT4aP+xwmO9xyXHu09knXjcMqnl7smxJ6+dijvVdjry9LkzoWdOnmWdPXbO79zh8z7nD15gXmi86HmxodWj9cBvHr8daPNsa7jkdanpsvfl5vbR7UevBFw5cTX46plrnGsXr0dfb7+RdOPWzfE3O27xbz2/nXv79Z2CO313594j3Cu9r3W/8oHxg5rf7X/f3eHZceRh8MPWRwmP7j7mPX75RPbkc2fxU9rTymdmz2qfuz4/3BXadfnFuBedLyUv+7pL/tD+Y+0ru1e//hn4Z2vP2J7O19LX/W8WvzV8u+0v979aemN7H7zLe9f3vvSD4YftH5kfz35K+fSsb+pn0ueqL/Zfmr9Gfr3Xn9ffL+FKuQOfAhgcaGYmAG+2AUBLBYAO+zbKOGUvOCCIsn8dQOA/YWW/OCCeANTD7/e4bvh1cxOAPVtg+wX5NWGvGksDINEboG5uQ0Mlskw3VyUXFfYphAf9/W9hz0ZaAcCXZf39fTX9/V82w2Bh73hcrOxBFUKEPcPG6C8ZeRng34iyP/0uxx/vQBGBO/jx/i9QiJDjx1EqnQAAAGxlWElmTU0AKgAAAAgABAEaAAUAAAABAAAAPgEbAAUAAAABAAAARgEoAAMAAAABAAIAAIdpAAQAAAABAAAATgAAAAAAAACQAAAAAQAAAJAAAAABAAKgAgAEAAAAAQAABsigAwAEAAAAAQAAA/wAAAAALTgE/gAAAAlwSFlzAAAWJQAAFiUBSVIk8AAAQABJREFUeAHs3U+sbFd9L/g65XMNlzhCbWi1wNCDCOxJ/OwQixfrDYzNxJJNJEvPSLmRzAAZE8mTGJjkRdiOSHqAcXqAFANigKVcJBzJEjYSgwbiCX5BxIH2yI5HwTd0PwVe1LEA+95bt/d3H6/yrn12/T11zqna9VnS8a7atf+tz657LO3v+a2198orr1yp2iAty1f/9W2Dbz39v9bv/YcAAQIECBAgQIAAAQIECBAgQIAAAQIECBAgQIBAnwTef93rg2EzHNvb26tDsj51Ul8IECBAgAABAgQIECBAgAABAgQIECBAgAABAgQIFIGUjQ3zphmSlQ8tCRAgQIAAAQIECBAgQIAAAQIECBAgQIAAAQIECPRNYK/q0H7CsRKQHXTwYLjFvnVWfwgQIECAAAECBAgQIECAAAECBAgQIECAAAECBAjUFWQZVjE/aZNBGSACBAgQIECAAAECBAgQIECAAAECBAgQIECAAAECPROoisf2L1++PNGrap1GgAABAgQIECBAgAABAgQIECBAgAABAgQIECBAoLcCw2YFWW97qWMECBAgQIAAAQIECBAgQIAAAQIECBAgQIAAAQIEKoHUitVzkEWjDLOY1xoBAgQIECBAgAABAgQIECBAgAABAgQIECBAgACBPgpk4rFh1frYN30iQIAAAQIECBAgQIAAAQIECBAgQIAAAQIECBAg0CmwPxqN6uqxK9XkY/nRCBAgQIAAAQIECBAgQIAAAQIECBAgQIAAAQIECPRVIGlYXT5WgjHDLPb1VusXAQIECBAgQIAAAQIECBAgQIAAAQIECBAgQIBAEZgIyEpQVj60JECAAAECBAgQIECAAAECBAgQIECAAAECBAgQINA3gfEEZKV6TEjWt1usPwQIECBAgAABAgQIECBAgAABAgQIECBAgAABAkVgr3oxDsgyF5lGgAABAgQIECBAgAABAgQIECBAgAABAgQIECBAoO8Cw1SMqR7r+23WPwIECBAgQIAAAQIECBAgQIAAAQIECBAgQIAAgQhcqX4m5iCrV1aBmUaAAAECBAgQIECAAAECBAgQIECAAAECBAgQIECglwJVFrafjpl3rJe3V6cIECBAgAABAgQIECBAgAABAgQIECBAgAABAgQ6BOqALOuFZB06VhEgQIAAAQIECBAgQIAAAQIECBAgQIAAAQIECPROYDgajSbmIBOU9e4e6xABAgQIECBAgAABAgQIECBAgAABAgQIECBAgEBDoJ6DLCFZ2nBYv2187CUBAgQIECBAgAABAgQIECBAgAABAgQIECBAgACBfgkMS8VYlpcvX+5X7/SGAAECBAgQIECAAAECBAgQIECAAAECBAgQIECAQEtguLe3V69K9Vh53drGWwIECBAgQIAAAQIECBAgQIAAAQIECBAgQIAAAQK9EEjR2H6zgiyvy/te9FAnCBAgQIAAAQIECBAgQIAAAQIECBAgQIAAAQIECLQE6knHSuVYWba28ZYAAQIECBAgQIAAAQIECBAgQIAAAQIECBAgQIBAbwTqCrJSNZaArLzuTQ91hAABAgQIECBAgAABAgQIECBAgAABAgQIECBAgEBDoK4gK+9Ho5F5yAqGJQECBAgQIECAAAECBAgQIECAAAECBAgQIECAQC8F6oCsWTXWfN3LHusUAQIECBAgQIAAAQIECBAgQIAAAQIECBAgQIDATgsMM6zicDhRSLbTIDpPgAABAgQIECBAgAABAgQIECBAgAABAgQIECDQb4H9DKuoESBAgAABAgQIECBAgAABAgQIECBAgAABAgQIENgVgbp0LFVkaRle0RCLu3Lr9ZMAAQIECBAgQIAAAQIECBAgQIAAAQIECBAgsHsCV6ouj+cgE4zt3hdAjwkQIECAAAECBAgQIECAAAECBAgQIECAAAECuyiwn06rHNvFW6/PBAgQIECAAAECBAgQIECAAAECBAgQIECAAIHdE8i4isNmOKaKbPe+BHpMgAABAgQIECBAgAABAgQIECBAgAABAgQIENg1gXqIxWanhWRNDa8JECBAgAABAgQIECBAgAABAgQIECBAgAABAgT6JDCeg2xvL8VkGgECBAgQIECAAAECBAgQIECAAAECBAgQIECAAIGeC1y5MthvDrGY7lbrNAIECBAgQIAAAQIECBAgQIAAAQIECBAgQIAAAQL9FKgKx+qALL0rVWSKyfp5r/WKAAECBAgQIECAAAECBAgQIECAAAECBAgQIECgEkgF2XA4rJZX6p+gqCDz1SBAgAABAgQIECBAgAABAgQIECBAgAABAgQIEOizwHA0GtX9KxVkfe6svhEgQIAAAQIECBAgQIAAAQIECBAgQIAAAQIECBDYD0EqyN5qzddvrfWKAAECBAgQIECAAAECBAgQIECAAAECBAgQIECAwLYLJAkbNjtxEJTtNVd5TYAAAQIECBAgQIAAAQIECBAgQIAAAQIECBAgQKA3AknChhla0fCKvbmnOkKAAAECBAgQIECAAAECBAgQIECAAAECBAgQIDBHYL8Mr5jlQVBmiMU5Zj4mQIAAAQIECBAgQIAAAQIECBAgQIAAAQIECBDYUoHxEIulgqyEZVvaH5dNgAABAgQIECBAgAABAgQIECBAgAABAgQIECBAYK7AeA4y4dhcKxsQIECAAAECBAgQIECAAAECBAgQIECAAAECBAj0QKAOyBKODYfDgZCsB3dUFwgQIECAAAECBAgQIECAAAECBAgQIECAAAECBKYK7FWfTMxBloBMSDbVywcECBAgQIAAAQIECBAgQIAAAQIECBAgQIAAAQI9EBgmEBuNRnVXylxkPeiXLhAgQIAAAQIECBAgQIAAAQIECBAgQIAAAQIECBDoFKiHWBSMddpYSYAAAQIECBAgQIAAAQIECBAgQIAAAQIECBAg0DOBFI/VAVnplyEWi4QlAQIECBAgQIAAAQIECBAgQIAAAQIECBAgQIBAXwXGAVnCsVSSqSbr663WLwIECBAgQIAAAQIECBAgQIAAAQIECBAgQIAAgQjUAVkJxzIXWV5rBAgQIECAAAECBAgQIECAAAECBAgQIECAAAECBPoqcKiCrK8d1S8CBAgQIECAAAECBAgQIECAAAECBAgQIECAAAECERiW6rG8UT0WBY0AAQIECBAgQIAAAQIECBAgQIAAAQIECBAgQKDPAuMhFoVjfb7N+kaAAAECBAgQIECAAAECBAgQIECAAAECBAgQIFAEhnt7e/XrshSUFRpLAgQIECBAgAABAgQIECBAgAABAgQIECBAgACBvgkkC6uHWCyh2Gg06lsf9YcAAQIECBAgQIAAAQIECBAgQIAAAQIECBAgQIDAWCBFY3VAljUJx0oV2XgLLwgQIECAAAECBAgQIECAAAECBAgQIECAAAECBAj0SKCuIEt/SjBWKsl61EddIUCAAAECBAgQIECAAAECBAgQIECAAAECBAgQIDAhMMy7VI8lHEtQNqqWGgECBAgQIECAAAECBAgQIECAAAECBAgQIECAAIG+Cuw3q8bqkrIqJNNWE/j0J88M3nddnTmOD/Dnf/H6+HX7xdmze4N3nJ1c+4tfCignRdb/7qYbh4N3Xbs3eOmV0eDChdW8c4x77zkzeLk6Rn5+dmH1Y62/h6sf8b5zZwbvr77D//bL0eCf635dqZerH9GeBAgQIECAAAECBAgQIECAAAECBAgQIEBg8wT228MrNgOzzbvczb6iBF7vunYyIJt1xffesz+49cP7E5s8/uXXZwYSd9+5P7jrzjMT+zx5/o3B8z+6PLFuHW8SAqVPp9kS0qw7NLz1w1cNbrrxwP0XVRCUgOuppy8Nfv3rxcOyHCP3+tYP5+dA6Atf/M3KgdtpGjfPnYC3/Nx848Enf/4Xv1n7PWie02sCBAgQIECAAAECBAgQIECAAAECBAgQIHDSAnVKkCEWS1s8Iih7WPZV4I7b9gfXf+CqU+3ecYR/H2z0KSHX9R8YLBWOpfqsBGwF5+VXLm99OJa+pHqs2RIgrjugbB7fawIECBAgQIAAAQIECBAgQIAAAQIECBAgcNICycImhljMBZxuvdBJEzjfrgn8QVX59Y5WVVwqyJZpd1VVfO12HBV85RwJ5FKxto72Ty9OD/I++IHJcCzny9CRGgECBAgQIECAAAECBAgQIECAAAECBAgQ6JtA/aQ/wyxmaEXDK/bt9q63P7+qhiB84utvrPegjaPdUAU07eEjGx+v5eXN1bCR7bZMuHUQVk0GZKmy+u/HMMRluc5rq4BsXS6pBrtwoXs4zvdfdzgezxCXGgECBAgQIECAAAECBAgQIECAAAECBAgQ6JNAnobXc5BliMUSjhlisU+3eL19yRxdxxmYJHw6ztY1NGLCrWX61FU9ltApc8Mt095xdjB4e1XJ9p3vXtqYIQxvuvFwldpLxxSQXVeFcR+thvBst1erirXvP9cd4DW3nbZ/c5vm699U391f/fqgIi7LZe558zheEyBAgAABAgQIECBAgAABAgQIECBAgEA/BAyx2I/7eGK96BqGb10n/987KpjWdewcp2uYwmergGrRluEZb/3w4VAn87StOldbjvf8jy4Nnjx/cdHLOLbt2n1IxeCFC8cTmWeYyy7LzOW2SEA2bf9lcHKuVA8mLDPP2jJytiVAgAABAgQIECBAgAABAgQIECBAgMD2C9QB2bh6rBpmUSMwTeBd1w4HDz34tmkfb/z6BFzttmglUarPlq0Sa59rk993BZ8JkPrcmsFmQspNqubrs7u+ESBAgAABAgQIECBAgAABAgQIECBA4LQFkoaNy2EyD1laCcvqN/5DoCcCCccS8DVbQpFFK4cytGJ7/+axjvI6wcys9mpVxfX4l1+ftUnnZ6mY66rS6tq4q7rupy/uzvxjcbq+mgMvFYXHOZ9cl711BAgQIECAAAECBAgQIECAAAECBAhsv8CfPnj1oZHGvnH+jWN53vjxe/YHt992ZgLtB89dHHzr6dnPmid28OZgDrJmKFaCMjYE2gKZr+uvv/xGe/Xa3t9043Bw7z1Xr+14zQN1VX/NC6bK/tm3K2j6yYuXBsuESO+uqtDuunPyl9YiId3B3G/LV3feUAU+i7aEQ+2W0KxrfXu7ae+fqn4Z59q3pSUA/cS5qwfvvvZiHZRty3W7TgIECBAgQIAAAQIECBAgQIAAAQIETl/gW09frEZgGw4yPUxp995zZvCzC6O1TmWT59XtcCzP7r/3XL9HBCum61yO5yArIVlZrvMkfTpWAoNUE3W19113OGRIatxumfdoW6tUFq24avd5kfe/+vUiWy2/TVf1WIYPXKQvCe3aoVa5ggzR93dVCLTIcc5WvxT/2+cmvwuZ42vRkK6c8ziWGV6xqzquPSfZsudO3359TPd02rXE9ImvHw5xM0RmAsr0dV6/cr+vrbbdhHnhpvXTegIECBAgQIAAAQIECBAgQIAAAQIENkvgQjUS2FNVSJY/wi8tYdmffPLquvBkkefIZb9py67n1aWwZR3Hn3bevq6fCMhUj82/zXlwPu8Be/MoXdsuOu9V8zirvM4/lmUqnOadIyFP1zxe8/Zb9POjVCvNOkdX9VhCynntuuv2Bvc1fpm1t88vtwSgqaqb98vnvnOHh2j8zncvzt2vfc7jeN81vOJxnOckjnlQbXd4aMh/bpw8YVmCsnwvuoLBbJqKwVerv+z4vr+6aMh5SYAAAQIECBAgQIAAAQIECBAgQIDALIEUxryrGqHq7sZIYnkG+ekqJHu8eo58lBG38lyz63n1N85vxnPmWS6b+Fnq/CZKoVSPbeJtWu2a7rjtqnq4wgzht66h7hIINdPv1a7sZPfqqh7LFcwLKROg5JdWsxw2+yU0SUha1pdfbqlamhaS3XfuzODmGyf+qQ1yXzYlfDmuYDJem9hyn35R/Y8q4fHH7rzqUDlyueYM9/nSK79Za/lzObYlAQIECBAgQIAAAQIECBAgQIAAAQL9FMjIWgmzmtP2ZPS5FFF85esXV+p0jpdijfJcuhzk2aoIY96z7rKt5WGBQ2MCbs+MQYc7Y82BQCqfylxe+Uf4UPUPJ9Vfu9i6qsfmOSRUe+jBtx36ZZNS1QRh7SH88sstv5zyS6rdEo41fxHm8xwnoeUmtK4AMcMU5hrn/XRdf3Ofrs83aV3+WiOTVuZ/ItPax6sxgjUCBAgQIECAAAECBAgQIECAAAECBAgsI5Dnv5l7rNlSRLHK8+ocI8Uc7dGw8lxzE6bwafZxm14nC5ssa8nVXxGRzbqJqT5J9U9Xu+nGqw6FKl3btv9hdB1r1XUJxxLuNFsCnIRkf/nF15ur577OeKlnz3b3de7Oa9rg1Wrc1lXbrCH0msc8SPOvGq/KGX/y4qWJqq+ERmUoxXwHnnr6jXEImR3zy6k53GKOmV9a7XnpEiDlOEcppR1f6BpedA2v+IPnEhrNv+9f+j/efuj7/jdVgJixdrep5X8i76v+3bSr/NKHDJGaakJ/hbFNd9S1EiBAgAABAgQIECBAgAABAgQIEDhdgTz//Ur1rPSgsOKtOqW7qqEX86x5mdHFPn7P/qHnzHl+LRw72j0eD7HYHFrRPGSzUfOgfNrD8j998PD8ZE9W43+eVEsokwn/2mWWOf/3qtBj2XYQTm1X2FH6GIv8slmkZcjE5rYvv3K5DrHuuvNKPVZsfmE9/uXXJ4ZQzC+ws2cPjyX7hc+/vfrFdLGeq62d6JdwbNpQjItc6zq3iVHXHHkJWee1VCS2v2dx2rZwrPTzyfOXBtd//nDAnc8TtCbU1AgQIECAAAECBAgQIECAAAECBAgQILCoQJ4Dp6CgPVrZMlO75Nnk7bdNPufOc+Y8z9SOLrBfArGEZPkZqSA7uuoRjpCKnhuqipV2m5cqJ9RIONYOZbJfKsEyOWBXS3XMJ6phALexlYqurmv/r1WqftSWBD6/xFLx1xX8lIS+OeFiztkM28o1bFo4dnCd3UYHodnsYDcVV+2W+dm2teUvOlI513Xv4pFAcFOq/rbV2HUTIECAAAECBAgQIECAAAECBAgQ2DWBPFfO8/lPnLt6ousJzf6qGvFtVjHFHbdddeh5ZXnO7FnlBOdKb1IatN+uHjv82HulY9tpRYH2fFXlMPniTyu7TFjxX+85PGdWqXzqCnfKcbNsh2rNz7bxdX5xdA2Xt0pfpgWL5VgJyX7r7OBQil8+zzLB0eMbNKxirinVY9O+a6kMy+ezfjm/vyMgu7DFAVlMvldVBXYFZPns5huH1dCq3SFzPtcIECBAgAABAgQIECBAgAABAgQIECDQJZBnzO+6dnI0sjyDzfCLf/nF7ul4po2Qloq0Wc9tu85vXbdAPcRiKshGo9GgLLdzQL3uDu7K2jtaJZbpdwK1bZwP6qj3bNovjqMet2v/VBV9tArj/vOHuyuxyj5nqwAt2yVgWfWX171VRVzmuFum5fqmtbuq0txZ7aYqEJoWyGa/6zuqHF+qhh/d5pa/usjwml3DTiYQfH6bO+faCRAgQIAAAQIECBAgQIAAAQIECBA4NYEUWrSLFlK48ulPnjk0vUu2S3jWnuLmqaff6Bzp7NQ61YMT1xVkCcdKJdn0R+o96O2OdKGUWS4SxvyyGkLw+R9t53ilv/r15A1NINT1i2Nyq6O/y7CUv1cFSAnG2r+kuo6eX3R33ZmfM7V1grJp89h17Z916du6Kv3+oBrGc1r1WDn/+67LMJ/TK6Y+WA072G4Hc9a1127X+1TBdQVk19Ue29UXV0uAAAECBAgQIECAAAECBAgQIECAwOYIPPX0pUGeu76/8awxzyJTHJHP0soz7vaz4Ge/e3FmQcPm9HK7rmR2Gcl29cXVVgIZzu+JJcosE6I9eX72fFPbAptfJO1fHLn2BIZd65fpV0KxzA2XcGnWsTKs5T9UgeN/qqq9urZLMJWfXNPLVcXVT1+8XC2vnNj8Vqlmu+O2+f/sD6rVur8XGdKzHQymP4sEssuYn8a2/1KNCdzV8lcbGgECBAgQIECAAAECBAgQIECAAAECBFYVyAhWX6me3afIo/nsOCPE5dlqRvS679zhZ9w/efHSIBVo2poFrlwZ7JfqsVJBtuZTONySAo9/+fWlq4vKKVIJlqR5HRP0ZYi9WUP0lXOexDL9+emL84fvSzVcu2XIvFRrpYJr0ZZ+X1eFQAnEkugnLGoHQu1jJRj7/nOX6l9iud6D+awOwrD2tnmfX4C3fjg/B2FVgs2fVT/run9d58y6hGPNX75lu2+cf2Niosj0N6FgV6XbQXVZ2fNgmbCvD21ayNdl1of+6gMBAgQIECBAgAABAgQIECBAgAABAicnkOePf/3lNwZ/9rm3TTxzvveeq6vnsZcGN984WdyQwoQnzwvHjuMOXalGVqyHWEw4VoKy4ziRYx4IlCqkf6v+EWRivnW2lFiuM0VOkNI11Nw6r3nRY+WXwE9ffH3u5gmlbq+uu4RZB788LlYh1OHhAGcdLNVCf/65t8/aZPxZOxgrH+QXXSrzck8y31cJwsrn7WVCpwScy4Sb6d+yrSv0zHkTQKYvxS7HzTCSXQFZl2dfArKukLUY53sxLUAr21gSIECAAAECBAgQIECAAAECBAgQIEBglsDBs+M3qvnH3jaxWVc4ljBtmWfGEwf0Zq5AHZANh8PB5cvrDWzmnnlHNrjjtqvqSpyETSV8SCCxzoDsO2sOx7b11uQXxQ+qKq7M9ZX2bBVOrRJopJorc1HdXpW2drUESdkmx+8KkFJ9lnudz5pBWQLSu6uwrKsaKd+JlNAu075RBXBd5591jDLBY7mGhGwJ8WKXPjVD0cyx9q03x74tx0zA1tymrF/2Osp+lgQIECBAgAABAgQIECBAgAABAgQIENg1gRQspOjl7jefZbf7n2fQf7PEVErt/b2fL7CXIRYTjo1Gy1eizD+8LSKQ0sh26xqirr3NMu9XCYGWOX62zT/Ip57unpOqfawMz9hOu596+o3qGO0tu9/fe8+ZcZjYvcX0taWK7L8fMYR85ruXBwmISqiZ/h/MF5ZqttHU1D6BaLnnCZ8SoiUMzT36RbXM6wRo/6WqavtAFZqWCRnXWf03XSfzsR2U8JZxbpsh4vPVtTXDr/S9Pcxi7m27ZRjLk/gOts/rPQECBAgQIECAAAECBAgQIECAAAECBLZVIM+Ef+vsoLNQI0UxFy4cnlJoW/u6qde9n3DM/GOr3Z5U4yRAuL76WWSeqnKW7LdtLRVGi1a9vbvq3803TvYwodKiIUqqrEowNXmU+e9ynfnlsWw1VvvIOU4CwXdUv6B+Vv0imlchlXt637kzEwFTqrTSl1JJVs6RX2wHlVmXqmqyvcG11c+iNuUYR1mWkOyjVZjXvKe5R+2WwK/Z95s7ArIEaxoBAgQIECBAgAABAgQIECBAgAABAgQILC6Q0br+043d0wNtY4aweM83Z8t6xrfm/GOjqqxMmy7wB1XlTwKx/JRh6qZv3f1JhrLbxrboP8qESu2WEOik2lHDsXKdzfCorGsv80ssQVNz7rOyTSqrnvj6xanVZtkuYdVJhmPl2nLO9vCJCQVzzc0qsrw+e/ZgCMbc/5tak0TmeM0ArRx/W5dnO767pS+LVkCW7S0JECBAgAABAgQIECBAgAABAgQIECAwTeC+c93T8WT7O6rpf35djciWEcC04xOoA7JmBdlw7+SCjOPr1vEdeZXh/xYdnu/4rvroR04Y+IXPv33lAz304OSEgysfaEN2TFh0axWWdgVjud/rqGI7ja5+v5rDrRmQpZIvAWB+EWfZbn0bXjGB57SWAFEjQIAAAQIECBAgQIAAAQIECBAgQIDAUQUy8lh7mqL2Me+q5if7WVVs0zXyV3tb71cTOFRB1gzLVjtkv/fKPFS3VnNTLdoe//LrvaqwWbTffdwu4Unm4Eow1gyRmn1NYPTk+YuHqsIy71jCpk2vtnr5lSv1fHPNIS4TAmZut65y374Nr/j+6j51tfyPSCNAgAABAgQIECBAgAABAgQIECBAgMBRBTKtTcKvZvvFL0d1kcInzl3dXF1N63P14K+++Pqh580TG3mzkkDKIcZJTxlmMUttusDLr4yqgOTw56kaSmsGC3m/6YFIrnGRlv5lTq5FWkKkdvr91NNvVMHLInsPBqtU6S125NW2SrVY5hd733XDQ/e3HDHBWKqsuu53huUsfcrwmt+rqrQWGb6xHPskl6mS+kF1fc1f0PlOP/Tg1YeGFM0v7U3tx6pmucddTfVYl4p1BAgQIECAAAECBAgQIECAAAECBAgsI5BCinvvmQzB8uz9r7/8Rh2CvePsGxOf59nsn1bPZsvny5zLtvMFxgFZqRwry/m77uYWzXLGhCIJzPKTYCRf1GmVRduulYBg0TDk3VWgdPONkz2O26JzbaW8tB00Th7tZN/lunOPu+7trGAsFWcfuzPDML711wAJYD5aVWTFY1NDl1SLNQOyaHcFR32rHks/M7dgV+sKPru2s44AAQIECBAgQIAAAQIECBAgQIAAAQJdAinE+JNPToZj2e7J8wfhWF5/v3o2++5rL048U870R5+u9nu8CtE29Zlyrn3bWkrF6oCshGJluW0dOcnrzRfwC1/8zeCXvxzs3Jcx/4AXae84e3iraxfc9/Cem7HmO29Ohnh3VfqaRP8ffnRp8E9VyDUtOPlgFbR8oqo6yy+vZkug9sTXL270dyff8VxnVyBY+tLH6rHcs/b9Kv19qQpINQIECBAgQIAAAQIECBAgQIAAAQIECKwikGfrKbBpP3989rsXD80x9q2nLw2uqwotms9nU8Bw7z379fQ+q5zfPocFJoZYzMeGVzyM1LXmwoWD4RS7PuvruvzD/cLn375y9x568G0r77spOyYk+0k1B92s+5+QJRVwzV9e5fq//9zFapjKS+XtRi8zXORDD1419RpTPbZoReDUg2zYB5lbrqslDJwWhHZtbx0BAgQIECBAgAABAgQIECBAgAABAgSaApnCpx2O5XlxKcxobpvXKbL4b5/bm9jn1g/vV4U7V+qpftrbe7+8wLiCbPld7UFgNwW6wrEMpXj9B/YGd1RDJ3YFYwlYvnH+4qmGLLnGWz88HKQSqqsP7buZQGhaFVn6k1LfPrX8BUf+B9PVMrymRoAAAQIECBAgQIAAAQIECBAgQIAAgVUEugoqXr0wmllMkVG+Mu/Yn33ubRPTEWVqnH+rQrJFp0Na5Xp3aZ+JJ8KpINu92qj+3u6bbhwOXq2q3Vap9PlpVSm1yn7RfH9V7tmes+onL16qhhVczXpTx1VNtdjvVcb/uQpWps2Zlr8CePa7lw8NqZjJGPOLMUHTcVUnJRTLdyCVUSW4y3i2Fy4sFm5dqH5Jl/2ady6B0abek+Z1Lvo6Tilvntam/RXHtO2tJ0CAAAECBAgQIECAAAECBAgQIECAQATyDDihVrOlAOGJr7/RXNX5Os/ns117dLZ77zkz+Fn17HaRQojOA1s5Ftgv844lHBuNRoPFZpka7+/FBgskqPr0J88MflCFNN+rgphlAq+DCqHFgpQ2Qf7RtwOyv6uGFlzm/O1jbsL7EjhdXwVjN9141dRQLNf6fDVHWYKVrj4nWMukignVbr5xv9pmVJfFriP1zzW+783wLfegHdyd7Zgfrsv2jtuumpgIsrlNKq0yxOJxBXvNcx3363jdd25/olS5ec7cx6572NzGawIECBAgQIAAAQIECBAgQIAAAQIECLQFUrzQDsd+9WZl2KLPHPMM9qmn36jmH3vrD/zzzPdPqufLqTBb9Djta/P+QGC/rhq7clA3NhwOVZBt6DcjD/KXrdp5x5thyO23nanDjp9WVVwZu1RbXiCBUfOXUNcR8svtH6pAZVYY2XWcjD2bX5ZHCcgWqWbLNR8El7ODz1S3zetrAr6/+uLrW/0LOMMqph/tMLfc2wSXqseKhiUBAgQIECBAgAABAgQIECBAgAABAosK5NnjfefeCrXKfhnha9lQK8UsZ89erKrR3qpEyzPlPNt8vArJls0NyrVYDgYTQyyqINusr0RCscwblWqlhCep2lmmvb3av9mmBQHNbfL6b/7PBcuM2jvOeP+Fz799xqfzP8p8WEnET6vll9BNN16eMuTg5UGGpHz+R9OHHjz4hXhm6v5Pnr+0dNduWGCIx/ZBcx2zWsKxdslu1/b5K4UMS7iNf6WQPv5e9W/q9mrOuHaFXbOvz06pAGxu4zUBAgQIECBAgAABAgQIECBAgAABAgSaAnkGm2en7WePz373YvUcedTcdOHX+UP+jByWEclKy/P+e+/ZHzx5XlFMMVlmmbKx8RCLZajFslzmQLZdr0Ae4P+Xat6o5txWmQ/q+SVPUyrIym7LJtNlP8sDgfyi+bPPHQxbmMAuc3EluJzlmpDzY3dOH64wQ/gt8gusK9hql+fOuk+53hLiTdvuD6rv3Cc6/qoh22fSyHbAmr9S2LSQLN7pR7vl30KuP8Nj5rrntfzP6igVffOO73MCBAgQIECAAAECBAgQIECAAAECBPopkMqu9jPIPG886mhVKbJ414PDQaZWKi3T4fyymqssf+yvLSeQUpJx3JhgLMMt5kc7GYF2gJWzfuLcmUP/eLL+f5lT+ZNt2i1hQbNlCEDtsMCrF65Upaivjz+Y5pQgLJMiZvt5ZavzhjzMOb5T/VI8mOttfOrOFwnHrv/A4dCnc+PGypzj+89dmhviZZePV39pkKE4u1pCvKeqOeQShjV/+WbbTQvJ8lcZ00K+rr51rVvH/6y6jmsdAQIECBAgQIAAAQIECBAgQIAAAQL9Fshz1nahQYoXjhqORS3PpL9SPZ/Oc9pmAJdCin+rnl37g//lv1sTc5AlJBOhLI+46h7tfyg5TvOL3TzuQUCyXKlkOyD7n9U/kkVaMyxaZPv2NrdWFTxJrpvtGyuMrdrcf1po1dxm1df5xfLPryxmk0kRp7V4lyExZwVa+YX4racvDi5UQdu8lmPmF94yLcfPXwzMutZyvIRv91Wh7LTrTeVYwrFpv3xznHxn/+xzb1s48Cvn3rRl5hz7RlUluIjbpl276yFAgAABAgQIECBAgAABAgQIECBA4HQF7r7zcBFCnjkuMoLYoleeIo6/qUKyTJPTHMLx3nvODH5WPctd5Jnzoufahe0mUoy6eqwKybTjF8gwcNPCsPbZSyVQe315n2ql9vxkCT7a1T7/skAgk2MeNSDI3FjtlmPOGoqwvf22vI/zTTcezBM3LWQqfVmmaqzsk2CqHXSWz5rL8h1JRVr2mddyzI/eNnsergRtT3z94vh4uX+Zc6z9Fwo5V34Z33vP1dVfR1yq/xpim+71snbzbH1OgAABAgQIECBAgAABAgQIECBAgMBuCmQ0rmZL5di6n5UmBHuyKki56cbJUceSB1y4cLl5eq9nCOQp+kRAVoZZnLGPjyqBhCLtL3UCh6xfpGW7pMnzWteD+5RKtluqtdoVW+1t8j4JcrtlvrN2kNbeZtn3OWa7JUT61a/ba4/2/jRCt/QtAeAy81l13cdlev6DapjEafONLVMtlnMuEoxlu2lzo80KybJfvoeZ5ytDOy4yfGT2OY2We5LquDIv2yKh4mlcp3MSIECAAAECBAgQIECAAAECBAgQILAdAic5D9hPX8yzzcPP+7dDajOuMinGfgnFstQWE8gQgtMCi+YR8hB+WptVFZTQIxVhXWOGrlrdlVLOrvLK36tS5kX6Mq0fi65PddG6W1LyduXcOs/RDMMSIl5bBZvNstV558p9XEcA872qKqx5j1YN3BLMZijEeX2YNwfXvJAslZG53x/8wKVqTNzuYUEzcWT7ryni2Q6epxlP23/a9r+p/i0moE3ArNR4mpL1BAgQIECAAAECBAgQIECAAAECBAgQ2B2B+WVMu2OxcE9/8uJkYDFtxwQkXS0hQFdV0CLVQNk3280bzq993pNMr9vn3tb3v/zlYHDHbfsLD4WZfia8+oeqjPafqvR+1TCz7ZXqptzzBFy5j/nLgFUqnvLdybXdftuZ9inq98vMwZVj/eUX36iCsO7qxRzr76q5y6a17H+UsXePuv+067KeAAECBAgQIECAAAECBAgQIECAAAECBHZDoA7ImlVkKsnm3/hXqzE+U4Uya2jCBCWzAoJUBd1ehS+p5lkkGGteVYKFP30wQzoenuuruV15nUqdrmq08rllt0BCqG9U1pnwcFZLGPR/V6HpOkOx9vkSjOV7t0ow1jzWt6rQ6gMfuOrQd/f7z12swrfF5i8rx8u15LuYoQpT4VYq0+KRucoSYmkECBAgQIAAAQIECBAgQIAAAQIECBAgQGATBcYVZAnGSlC2iRe6adf0SlXR0xWQlQqiBGCzAoKEC6kiOxgur7vSbFqfc9w//4vXq0n4hvU1ZOi/rpZh5eaFNv9UBTtd85p1HW/T1q2rQmtWv3KOBIzNOd4SAL1crT+Yw2o08z7POvYyn62zr089/Vbot2w423XNmWssVW13VfPqxSlh3qzvftcxrCNAgAABAgQIECBAgAABAgQIECBAgAABAicpsPf888/XZR4lIPv5//uOwf/13A0neQ1bea4Md9cMpjInUuY4OmqFz1ZibPhFJ0i8qZprrdmeqiqpFr1XZS6yhD4vv3L0Kq7mdZzW649XQyP+S1WRtu7Kwlh1zXV3Wv10XgIECBAgQIAAAQIECBAgQIAAAQIECBAg0Bb43979/w32fvjDH04EZP/P//gtAVlbynsCBAgQIECAAAECBAgQIECAAAECBAgQIECAAIFeCCQgG09iNRyOX/aiczpBgAABAgQIECBAgAABAgQIECBAgAABAgQIECBAoC2QyrHh3t5b81c1X7c39p4AAQIECBAgQIAAAQIECBAgQIAAAQIECBAgQIDAtgskGRtm7rG08bJ+5z8ECBAgQIAAAQIECBAgQIAAAQIECBAgQIAAAQIE+ikwUUHWzy7qFQECBAgQIECAAAECBAgQIECAAAECBAgQIECAAIG3BMYVZGXVWwMuljWWBAgQIECAAAECBAgQIECAAAECBAgQIECAAAECBPohUM9B1u7KwYCL7bXeEyBAgAABAgQIECBAgAABAgQIECBAgAABAgQIENh+gXoOsr29g5qxzEGWHxVk239j9YAAAQIECBAgQIAAAQIECBAgQIAAAQIECBAgQGC6wLD5UQnLmuu8JkCAAAECBAgQIECAAAECBAgQIECAAAECBAgQINAngWEJxYbDN7OyNyvK+tRJfSFAgAABAgQIECBAgAABAgQIECBAgAABAgQIECBQBIaj0WiQkCzDK6YZYrHQWBIgQIAAAQIECBAgQIAAAQIECBAgQIAAAQIECPRRoC4bK+FYOjh6MyjrY2f1iQABAgQIECBAgAABAgQIECBAgAABAgQIECBAYLcFUjK2H4IyzOJuc+g9AQIECBAgQIAAAQIECBAgQIAAAQIECBAgQIDALgjUAVmpIMvSEIu7cNv1kQABAgQIECBAgAABAgQIECBAgAABAgQIECCwmwLJwuohFtP9Ohyr5iJTTbabXwa9JkCAAAECBAgQIECAAAECBAgQIECAAAECBAjsgkCGWKwDshKKlUqyXei8PhIgQIAAAQIECBAgQIAAAQIECBAgQIAAAQIECOyewEQFWQnJdo9BjwkQIECAAAECBAgQIECAAAECBAgQIECAAAECBHZJoK4gK8MrqiDbpVuvrwQIECBAgAABAgQIECBAgAABAgQIECBAgACB3RQYlsqx0Whk/rHd/A7oNQECBAgQIECAAAECBAgQIECAAAECBAgQIEBgpwSGpXqsBGWqyHbq/ussAQIECBAgQIAAAQIECBAgQIAAAQIECBAgQGDnBA4NsViCsp2T0GECBAgQIECAAAECBAgQIECAAAECBAgQIECAAIGdEBgPsZjeCsd24p7rJAECBAgQIECAAAECBAgQIECAAAECBAgQIEBgZwWuVD2vh1hsChhisanhNQECBAgQIECAAAECBAgQIECAAAECBAgQIECAQJ8E9qrOjCvIRqNRXUGmiqxPt1hfCBAgQIAAAQIECBAgQIAAAQIECBAgQIAAAQIE2gLjCrIEY6rH2jzeEyBAgAABAgQIECBAgAABAgQIECBAgAABAgQI9E1g2LcO6Q8BAgQIECBAgAABAgQIECBAgAABAgQIECBAgACBaQL1HGTtD1WRtUW8J0CAAAECBAgQIECAAAECBAgQIECAAAECBAgQ6ItAPQdZuzNJzTQCBAgQIECAAAECBAgQIECAAAECBAgQIECAAAECfRWYGGJxOBwOhtVcZBoBAgQIECBAgAABAgQIECBAgAABAgQIECBAgACBvgpMBGQZXtEQi3291fpFgAABAgQIECBAgAABAgQIECBAgAABAgQIECAwnoNs782qsYRj5TUeAgQIECBAgAABAgQIECBAgAABAgQIECBAgAABAn0UqEZU3KurxkowpoKsj7dZnwgQIECAAAECBAgQIECAAAECBAgQIECAAAECBCKQycaGJRAr1WMlKENEgAABAgQIECBAgAABAgQIECBAgAABAgQIECBAoI8C+6VTJSgr7y0JECBAgAABAgQIECBAgAABAgQIECBAgAABAgQI9FFgWDo1HI5fllWWBAgQIECAAAECBAgQIECAAAECBAgQIECAAAECBHonME7FVJD17t7qEAECBAgQIECAAAECBAgQIECAAAECBAgQIECAQIfAsMw5VpaCsg4lqwgQIECAAAECBAgQIECAAAECBAgQIECAAAECBHojMCyB2Gg06k2ndIQAAQIECBAgQIAAAQIECBAgQIAAAQIECBAgQIBAl8CVauV4iMVSQVaWXTtYR4AAAQIECBAgQIAAAQIECBAgQIAAAQIECBAgQGCbBfaqix8PsVg6UirKyntLAgQIECBAgAABAgQIECBAgAABAgQIECBAgAABAn0RqCvIBGJ9uZ36QYAAAQIECBAgQIAAAQIECBAgQIAAAQIECBAgsIjAeIjFEpQZYnERNtsQIECAAAECBAgQIECAAAECBAgQIECAAAECBAhso0A9xGIuvIRiZbmNnXHNBAgQIECAAAECBAgQIECAAAECBAgQIECAAAECBOYJ1EMslo2EY0XCkgABAgQIECBAgAABAgQIECBAgAABAgQIECBAoM8C9RCLGV4xAdloNBqUoRb73Gl9I0CAAAECBAgQIECAAAECBAgQIECAAAECBAgQ2E2BeojFUjkmGNvNL4FeEyBAgAABAgQIECBAgAABAgQIECBAgAABAgR2SWBiiMVSRZaVGgECBAgQIECAAAECBAgQIECAAAECBAgQIECAAIE+CtQVZM3KsTok62NP9YkAAQIECBAgQIAAAQIECBAgQIAAAQIECBAgQIDAmwL7ZYjFItJ+X9ZbEiBAgAABAgQIECBAgAABAgQIECBAgAABAgQIENh2gYymuN+sINv2Drl+AgQIECBAgAABAgQIECBAgAABAgQIECBAgAABArME6iEWs0GzakxgNovMZwQIECBAgAABAgQIECBAgAABAgQIECBAgAABAtsskAqyYbMDCcqaYVnzM68JECBAgAABAgQIECBAgAABAgQIECBAgAABAgQI9EFgIiBTPdaHW6oPBAgQIECAAAECBAgQIECAAAECBAgQIECAAAEC0wTGQywmGCs/0za2ngABAgQIECBAgAABAgQIECBAgAABAgQIECBAgEAfBCYqyDK8oiqyPtxWfSBAgAABAgQIECBAgAABAgQIECBAgAABAgQIEJgmMGzOOdZ8PW0H6wkQIECAAAECBAgQIECAAAECBAgQIECAAAECBAhss8B+KsZKMKZ6bJtvpWsnQIAAAQIECBAgQIAAAQIECBAgQIAAAQIECBCYJ3Cl2mBYtYn5x0pYNm9nnxMgQIAAAQIECBAgQIAAAQIECBAgQIAAAQIECBDYNoG96oKHpWoswVh5vW0dcb0ECBAgQIAAAQIECBAgQIAAAQIECBAgQIAAAQIEFhFIBdneD3/4wyzrloDs7Nmzg9/5nd8pqywJECBAgAABAgQIECBAgAABAgQIECBAgAABAgQI9EbgtddeGwxLb1SPFQlLAgQIECBAgAABAgQIECBAgAABAgQIECBAgACBvgpkVMVhmXOsLPvaWf0iQIAAAQIECBAgQIAAAQIECBAgQIAAAQIECBAgEIH9ZuVYXp85c2bwzne+kw4BAgQIECBAgAABAgQIECBAgAABAgQIECBAgACB3gkkD6uHWEz1WN6oIuvdPdYhAgQIECBAgAABAgQIECBAgAABAgQIECBAgACBlkAdkJUqshKUtbbxlgABAgQIECBAgAABAgQIECBAgAABAgQIECBAgEBvBOqALL1RPdabe6ojBAgQIECAAAECBAgQIECAAAECBAgQIECAAAECMwTGAdmMbXxEgAABAgQIECBAgAABAgQIECBAgAABAgQIECBAoDcC4znI0qMy1GJveqcjBAgQIECAAAECBAgQIECAAAECBAgQIECAAAECBFoC4znIEo7lx1CLLSFvCRAgQIAAAQIECBAgQIAAAQIECBAgQIAAAQIEeiWwn940QzFVZL26vzpDgAABAgQIECBAgAABAgQIECBAgAABAgQIECDQEhiWcEww1pLxlgABAgQIECBAgAABAgQIECBAgAABAgQIECBAoJcC4yEWS+9KYFbeWxIgQIAAAQIECBAgQIAAAQIECBAgQIAAAQIECBDok0AdkKVDJRhTSdan26svBAgQIECAAAECBAgQIECAAAECBAgQIECAAAECbYFhCcSyzE8Jytobek+AAAECBAgQIECAAAECBAgQIECAAAECBAgQIECgDwLjCrJ0JuFYCcz60Dl9IECAAAECBAgQIECAAAECBAgQIECAAAECBAgQINAWmAjI8qEKsjaR9wQIECBAgAABAgQIECBAgAABAgQIECBAgAABAn0SqAOyEoqVYRb71EF9IUCAAAECBAgQIECAAAECBAgQIECAAAECBAgQINAU2C9vSkhW3lsSIECAAAECBAgQIECAAAECBAgQIECAAAECBAgQ6KPAsBmMpYKs+b6PHdYnAgQIECBAgAABAgQIECBAgAABAgQIECBAgACB3RbYTyhWmnCsSFgSIECAAAECBAgQIECAAAECBAgQIECAAAECBAj0VaCeg6yvndMvAgQIECBAgAABAgQIECBAgAABAgQIECBAgAABAm2BiYAs1WTNirL2xt4TIECAAAECBAgQIECAAAECBAgQIECAAAECBAgQ2HaBiYDMEIvbfjtdPwECBAgQIECAAAECBAgQIECAAAECBAgQIECAwDyBcUAmHJtH5XMCBAgQIECAAAECBAgQIECAAAECBAgQIECAAIE+CNQBmXCsD7dSHwgQIECAAAECBAgQIECAAAECBAgQIECAAAECBBYRGFeQmX9sES7bECBAgAABAgQIECBAgAABAgQIECBAgAABAgQIbLtAHZAlHEtTSbbtt9P1EyBAgAABAgQIECBAgAABAgQIECBAgAABAgQIzBOYqCCbt7HPCRAgQIAAAQIECBAgQIAAAQIECBAgQIAAAQIECGy7wDgg2/aOuH4CBAgQIECAAAECBAgQIECAAAECBAgQIECAAAECiwiMAzLDKy7CZRsCBAgQIECAAAECBAgQIECAAAECBAgQIECAAIFtFxgHZNveEddPgAABAgQIECBAgAABAgQIECBAgAABAgQIECBAYBGBcUCmgmwRLtsQIECAAAECBAgQIECAAAECBAgQIECAAAECBAhsu8CwBGNXrlyp+1Leb3vHXD8BAgQIECBAgAABAgQIECBAgAABAgQIECBAgACBLoFhCcayLK+7NrSOAAECBAgQIECAAAECBAgQIECAAAECBAgQIECAQB8ExhVkfeiMPhAgQIAAAQIECBAgQIAAAQIECBAgQIAAAQIECBCYJ7BfqsbK0Irl/bwdfU6AAAECBAgQIECAAAECBAgQIECAAAECBAgQIEBgGwWG5aJLMFaCsrLekgABAgQIECBAgAABAgQIECBAgAABAgQIECBAgECfBMYBWTqVcKwEZX3qpL4QIECAAAECBAgQIECAAAECBAgQIECAAAECBAgQKAITAZlwrLBYEiBAgAABAgQIECBAgAABAgQIECBAgAABAgQI9FVgaEjFvt5a/SJAgAABAgQIECBAgAABAgQIECBAgAABAgQIEOgSGJaqMcMrdvFYR4AAAQIECBAgQIAAAQIECBAgQIAAAQIECBAg0DeBeojFEo6pJuvb7dUfAgQIECBAgAABAgQIECBAgAABAgQIECBAgACBtkA9xGKqyEpI1t7AewIECBAgQIAAAQIECBAgQIAAAQIECBAgQIAAAQJ9EhgPsVg6pYqsSFgSIECAAAECBAgQIECAAAECBAgQIECAAAECBAj0UaCuIEvHylxkZdnHzuoTAQIECBAgQIAAAQIECBAgQIAAAQIECBAgQIAAgXEF2XBYT0dGhAABAgQIECBAgAABAgQIECBAgAABAgQIECBAgECvBepULMMqjkajeh6yXvdW5wgQIECAAAECBAgQIECAAAECBAgQIECAAAECBHZeoA7IMqxiKsgMr7jz3wcABAgQIECAAAECBAgQIECAAAECBAgQIECAAIHeC4znICsVZKkm0wgQIECAAAECBAgQIECAAAECBAgQIECAAAECBAj0VaCegyyhWJmDTBVZX2+1fhEgQIAAAQIECBAgQIAAAQIECBAgQIAAAQIECERgPMRi3qgei4JGgAABAgQIECBAgAABAgQIECBAgAABAgQIECDQZ4GJIRYzzKJGgAABAgQIECBAgAABAgQIECBAgAABAgQIECBAoM8C9RCLpYMqyIqEJQECBAgQIECAAAECBAgQIECAAAECBAgQIECAQF8FxhVkCccEZH29zfpFgAABAgQIECBAgAABAgQIECBAgAABAgQIECBQBCYqyK5cuSIkKzKWBAgQIECAAAECBAgQIECAAAECBAgQIECAAAECvRQYplcqx3p5b3WKAAECBAgQIECAAAECBAgQIECAAAECBAgQIECgQ6AOyFI5lh+NAAECBAgQIECAAAECBAgQIECAAAECBAgQIECAQN8F6oCsdFJQViQsCRAgQIAAAQIECBAgQIAAAQIECBAgQIAAAQIE+iowbA6v2Hzd1w7rFwECBAgQIECAAAECBAgQIECAAAECBAgQIECAwG4LDFM1lmBMOLbbXwS9J0CAAAECBAgQIECAAAECBAgQIECAAAECBAjsisChIRYFZbty6/WTAAECBAgQIECAAAECBAgQIECAAAECBAgQILCbAnVAVqrIQpDXGgECBAgQIECAAAECBAgQIECAAAECBAgQIECAAIG+CowryEajkWEW+3qX9YsAAQIECBAgQIAAAQIECBAgQIAAAQIECBAgQGAsMA7IsqZZSTbewgsCBAgQIECAAAECBAgQIECAAAECBAgQIECAAAECPRLYT1/KvGNZGmKxR3dXVwgQIECAAAECBAgQIECAAAECBAgQIECAAAECBA4JjOcgyyfCsUM+VhAgQIAAAQIECBAgQIAAAQIECBAgQIAAAQIECPRMYGKIxfStVJP1rJ+6Q4AAAQIECBAgQIAAAQIECBAgQIAAAQIECBAgQKAWGLYDMVVkvhkECBAgQIAAAQIECBAgQIAAAQIECBAgQIAAAQJ9FhiWQCzLdljW547rGwECBAgQIECAAAECBAgQIECAAAECBAgQIECAwG4KTFSQjUaj3VTQawIECBAgQIAAAQIECBAgQIAAAQIECBAgQIAAgZ0RGFeQqR7bmXuuowQIECBAgAABAgQIECBAgAABAgQIECBAgACBnRYYNnufkExQ1rD0lDUAAEAASURBVBTxmgABAgQIECBAgAABAgQIECBAgAABAgQIECBAoG8CEwFZOlfmJOtbR/WHAAECBAgQIECAAAECBAgQIECAAAECBAgQIECAQATqOchK1ZhwzJeCAAECBAgQIECAAAECBAgQIECAAAECBAgQIECg7wLjOchKOFbCsr53XP8IECBAgAABAgQIECBAgAABAgQIECBAgAABAgR2U6AeYrGEYyFovt5NEr0mQIAAAQIECBAgQIAAAQIECBAgQIAAAQIECBDos8CwanX/UjmmeqzPt1rfCBAgQIAAAQIECBAgQIAAAQIECBAgQIAAAQIEIjAcjUZjCQHZmMILAgQIECBAgAABAgQIECBAgAABAgQIECBAgACBngoMm5Vjhlfs6V3WLQIECBAgQIAAAQIECBAgQIAAAQIECBAgQIAAgbHAfjMUa4Zl4y28IECAAAECBAgQIECAAAECBAgQIECAAAECBAgQINAjgYMJyN7sUIZbbAZmPeqnrhAgQIAAAQIECBAgQIAAAQIECBAgQIAAAQIECBCoBeohFvPK/GO+EQQIECBAgAABAgQIECBAgAABAgQIECBAgAABArsgUFeQJRxL9ZhGgAABAgQIECBAgAABAgQIECBAgAABAgQIECBAoO8CE3OQ9b2z+keAAAECBAgQIECAAAECBAgQIECAAAECBAgQIEBgvxCUIRbLsqy3JECAAAECBAgQIECAAAECBAgQIECAAAECBAgQINAngXoOsoRiV65c6VO/9IUAAQIECBAgQIAAAQIECBAgQIAAAQIECBAgQIBAp0BdQZZwbDispyPr3MhKAgQIECBAgAABAgQIECBAgAABAgQIECBAgAABAn0RGM9BlpBMFVlfbqt+ECBAgAABAgQIECBAgAABAgQIECBAgAABAgQITBOoy8aa844JyaZRWU+AAAECBAgQIECAAAECBAgQIECAAAECBAgQINAHgXoOMqFYH26lPhAgQIAAAQIECBAgQIAAAQIECBAgQIAAAQIECCwiYOKxRZRsQ4AAAQIECBAgQIAAAQIECBAgQIAAAQIECBAg0BuBYbN6rPm6Nz3UEQIECBAgQIAAAQIECBAgQIAAAQIECBAgQIAAAQINgXqIxTIHWZbldWMbLwkQIECAAAECBAgQIECAAAECBAgQIECAAAECBAj0RmC/VI21l73poY4QIECAAAECBAgQIECAAAECBAgQIECAAAECBAgQaAiYg6yB4SUBAgQIECBAgAABAgQIECBAgAABAgQIECBAgED/BfZLF8vQimVZ1lsSIECAAAECBAgQIECAAAECBAgQIECAAAECBAgQ6JPAsGp1fwRjfbqt+kKAAAECBAgQIECAAAECBAgQIECAAAECBAgQIDBNYDgajQYJxzIHWfmZtrH1BAgQIECAAAECBAgQIECAAAECBAgQIECAAAECBLZdoC4fSzBWmkqyImFJgAABAgQIECBAgAABAgQIECBAgAABAgQIECDQR4GD8RX72DN9IkCAAAECBAgQIECAAAECBAgQIECAAAECBAgQINAhMA7ISuVYs5qsY3urCBAgQIAAAQIECBAgQIAAAQIECBAgQIAAAQIECGy1wLAZjOV1eb/VvXLxBAgQIECAAAECBAgQIECAAAECBAgQIECAAAECBKYIDFMxVkIx1WNTlKwmQIAAAQIECBAgQIAAAQIECBAgQIAAAQIECBDojUA9xGIJxsqyN73TEQIECBAgQIAAAQIECBAgQIAAAQIECBAgQIAAAQItgfEcZCUcK8vWdt4SIECAAAECBAgQIECAAAECBAgQIECAAAECBAgQ6IXAeA6y9MYcZL24pzpBgAABAgQIECBAgAABAgQIECBAgAABAgQIECAwQ2A8B1nCsVSPqSCboeUjAgQIECBAgAABAgQIECBAgAABAgQIECBAgACBrReYmIPsqquu2voO6QABAgQIECBAgAABAgQIECBAgAABAgQIECBAgACBWQJ1QFaqxy5fvlwPszhrB58RIECAAAECBAgQIECAAAECBAgQIECAAAECBAgQ2GaBcQXZcDgUjm3znXTtBAgQIECAAAECBAgQIECAAAECBAgQIECAAAECCwnUAVm2LHOPleVCe9uIAAECBAgQIECAAAECBAgQIECAAAECBAgQIECAwJYJjIdYzHVnqMX8aAQIECBAgAABAgQIECBAgAABAgQIECBAgAABAgT6KjAeYrF0UAVZkbAkQIAAAQIECBAgQIAAAQIECBAgQIAAAQIECBDoo8B4iMV0LuGYCrI+3mZ9IkCAAAECBAgQIECAAAECBAgQIECAAAECBAgQKAITAVlZaUmAAAECBAgQIECAAAECBAgQIECAAAECBAgQIECgrwLD9rxjhljs663WLwIECBAgQIAAAQIECBAgQIAAAQIECBAgQIAAgQjstwMxQyz6YhAgQIAAAQIECBAgQIAAAQIECBAgQIAAAQIECPRZoB5isRmKtQOzPnde3wgQIECAAAECBAgQIECAAAECBAgQIECAAAECBHZPYGIOsvZwi7vHoccECBAgQIAAAQIECBAgQIAAAQIECBAgQIAAAQJ9F6jnICtVY6PRaFBe973j+keAAAECBAgQIECAAAECBAgQIECAAAECBAgQILCbAsMSiJVlc7jF3STRawIECBAgQIAAAQIECBAgQIAAAQIECBAgQIAAgT4L7JfOlWCsBGVlvSUBAgQIECBAgAABAgQIECBAgAABAgQIECBAgACBPgnsl2AsnUo41nzfp47qCwECBAgQIECAAAECBAgQIECAAAECBAgQIECAAIEI7LcrxtrvMRHYdoF//dd/HXfhve997/j1tr34j//4j/qSf/u3f3vbLv3Urjdmx+WVYzfvyXGd59TwnJgAAQIECBAgQIAAAQIECBAgQIAAAQI9Fhg2+5bqMRVkTRGvt10g4dgf/uEfjn+aYdlx9+3ll18efPWrXx3cfvvt9fKo53vuuefqY332s58dPPPMM0c93ODRRx8d3HLLLfXPs88+e+TjreMAuT9H7VuO8aUvfam2euCBB9ZxWZ3HyP0o36281ggQIECAAAECBAgQIECAAAECBAgQIEBgewSGJRRL5Vj52Z7Ld6W7KNCs3Dmu/v/93/99HdSUCqFVzpN9E5CV5Te/+c1VDlPvk9DnK1/5Sv061/bCCy+sfKxN3vHxxx+vg7uPfexjKwdlqeSKUdwTUh7FfZOtXBsBAgQIECBAgAABAgQIECBAgAABAgQIrC5QD7GYkGw4HA5Go9HqR7IngWMWSNiRyqB//Md/HPzRH/3R4DOf+cyxnTHn+fnPf16HNZ/61KcG+Vm2/f7v/369X0KytCxvu+22wSrDPKbCK9eT9p73vGdw//3316/79J/c1wRbacU+ZrFPYLZoS0D2yCOPDEr1WI5x9913H9tQi9OuKwFdqv3W3dK/xx57bN2HdTwCBAgQIECAAAECBAgQIECAAAECBAjslMB+eqtybKfu+dZ29pprrqkrgtKBVAVdf/31SwUni3Y8QU0Jo7JPgq5VW8KdHC8/JTA5f/78UodL9VgJ2bJjjrlKyLbUSRsb5/wZSvCoLaFVgqppLc7f/va3B1/72tfG1WPNoCwVdIv2O8fKT3HP92WVkHPatS6yPvc75193W9Rg3ed1PAIECBAgQIAAAQIECBAgQIAAAQIECPRJoA7I0qFUkaWCzBxkfbq9/epLgoGEHKnuSstwfB/5yEfWXhnUDKNK0HIUyYcffnjwx3/8x+Mh/0pV1KLHTGBUWiqplqmmKvttyzL3OF6pkEv1VaoG0xKUJaRL1WCqBxdp+a6UKrIEZNkv1Vd9bvm3Uarw0s95oWJ8EoDOajHLTwLp/HvLvwnt+AUSruZ3Rbk/mS8w/zY0AgQIECBAgAABAgQIECBAgAABAgTWI7BfArFUkaWV5XoO7ygE1iuQkCMBQKkMevTRR9c63FyO26z6WccD6YQ+ue4SvJXQZxGZDK34zDPP1Jue5tCKOfdRWyoAF20xS6Vd+p+QJwFZQpoMUbloK+Fm+a6cRhVZudZcyzq+S+V405avvfbaRPXjtO3K+oQvzWrJsr65LJ/HMYb5LiSsSYiZ+6StTyD347nnnhv/jmseuQRlzXVeEyBAgAABAgQIECBAgAABAgQIECCwukA9B1l2TzCWsKwEZqsf0p4EjlegWRlUwrJ1VbWUECs9SKXWIgFAqVKa1esMt5eWKpy8XmSfbN8O0xIIzmoJkdY9P1UMSkg369zH8VmGZPzQhz5UD7sYu0XuR/M6UvGUYCffj3WEfM1jL/t62Wtf9vgntX0Cs3wffvzjHw/OnTu3cEXfSV3fNp4n/87zO6H8ntjGPrhmAgQIECBAgAABAgQIECBAgAABAtsmUA+xWEIxc5Ft2+3bzetN2JGKrFSzpCXUSpXRUVuClPyUlgqZRVpzn3nbtwOveds3P08wUap5muubr/sSwrT71Ky+SlXZMi1BZwlQF9k3VWoJGnet5bvzxBNPTHQ737eENvneJoxufn/zWYZ0zOcnPb/bxEX24E0MhWM9uJG6QIAAAQIECBAgQIAAAQIECBAgsFUC4znIctUlKNuqHrjYnRTIA/mEHXmoXIKtEoKsCvLII4+Md83x+xI2xalreLaXXnpp3N+EH+1t4nlU0/EJ1viieZ8WPewyFXAJW5v9TihU5r1rnq/pleEgm+dIwPbQQw81N69fZ58XXnjh0PplVqSq7rha+ztf3qcSL/8mYpF54JpBbam6FJKtfldS3dg1t2DzO7X60e1JgAABAgQIECBAgAABAgQIECBAgECXwDggSzg2Go26trGOwMYJJIBozut11CqyhEjloX8eVi/zsD9DzW1yy0P2eVVuCcjy02wxaAZFzc926XUJYWf1uVlZle1KsNTeJ+HYKgFf8zjHGZA1z9P1OsNc5vuUf28lGMt2eb2pgWpXPzZtXb4vzSrJcn0CsiJhSYAAAQIECBAgQIAAAQIECBAgQGD9AvsJxjK0YlpZrv80jkhg/QLNgCwBUEKKPMBftqWqpzlE4zLh2LLnsv3RBRa9P/k+lNAv34tUQS3STnuuskWu8bS3yT1IoNwMcI4aUp92n5yfAAECBAgQIECAAAECBAgQIECAAIHdEthvhmLD4dAwi7t1/7e6t6kiKxVOeWC/SjgWgDzoTwVHlhnmrGuos02Eag7xN61iKdedIfHa8xslOCpzuGWbhI3tAOkkg6L0JSHnIvaLBmSpCiwB2Q033LBUVWBMSst37Nvf/nZ5O14++uij48q8GGfusnntQx/60EQY29z+gQceqN/me/3YY481P9rI1xlCMr7lu7WuoU43srMuigABAgQIECBAgAABAgQIECBAgACB3glMDLHYDMt611Md6qVAs/Jr1Q4mAMlxUnF0zTXXrHqYev/2UHuLHizhSoKRZVozoEmAMy0k6woOEx61Wwkbm+sTgLz22mvNVUd+netpX1PCoQSUqUJKALZIUHbkC1niAF22zYAyr9vbND8vp8o27e3KZ2XZDH7Luk1c5jqbVZy5xnyvur5Hm3j9rokAAQIECBAgQIAAAQIECBAgQIAAgd0WqAOyMsxi5iATku32F2KXe98ObZa1SJjUnJdpmf0T0LWDhYREpbqtq4JpmeO3t23Pm5Zqspy/XUX2pS99qb6G9v5Hed+u9otb+pmWZYK/OKYqq309RznvOvdNtVS55hw3fvn+bFqwt84+dx2rHZDlXnbNpdW1r3UECBAgQIAAAQIECBAgQIAAAQIECBA4TYE6ICuhWIZY1AhsqkAqcsowdKte4yr7JyQ6ani26vUex37tcKecI8FU+jmvwqlsv65lQrAEhI888sg4dEr49NnPfrYOnO6///4Tv6Z5fUsQ1G6PP/74IEM59um70u5j+32qyNLfUjmZ4Ra7quna+3lPgAABAgQIECBAgAABAgQIECBAgACB0xYYD7GYC0kFmUZgkwWaVTurXOcq+5c5lpY5X9ecXu39U3XUFbS0t1v3+67hFXOO9DMB4vnz58fDPaaKa9YQiy+99NJ4LrMEJefOnZt7uV0BUqrXnnnmmXqIvoRl5T5lXX66KuzmnugYN+i6b/GLV671pEPGY+zq3EPn3pWALBu/8MILO9X/uUA2IECAAAECBAgQIECAAAECBAgQIEBgIwUmAjIVZBt5j1zUFgqkkqg9ZGK7G9OCqvZ263yf6p4ETmmp/inhXwK9BHYJplIJVYbJmzfE4Xve855xQJbj3X333Ue63OyfnwyxWIarzDnmWR7ppEvunDCoBHhl1wwbWfxKyFg+ay+zf3Fvf1bep8qvqyVcjPMmtXYYOK9vm3TtroUAAQIECBAgQIAAAQIECBAgQIAAgd0VqAOyMgdZhlrMa43AJgrkQfy65+Ka1s+EHO0QZNq227Q+1T2lJWwpQUwCvRKSJUDLZ3l/Wi2BU4Ky3IdUZG1SSxCW1gwY893MNZc52zI8ZAkZ29eebYp7+7O8nzWUaL7/mxaQta9HQNZ1V60jQIAAAQIECBAgQIAAAQIECBAgQGDTBOqArMxBlotrvt60i3U9BNrVKkSWEyhhUyqyYtkMahLwZOjABINl3rXTrNzK9ZVqt+V6ebxb//jHP65PEJt4lZZAMZ5Zl2UJ0srnlgQIECBAgAABAgQIECBAgAABAgQIECCwOQL7pXpM5djm3BRXsv0CCZhKGDWtN7Pm9pq2z1HWZ0jHUhWX6qxmNVmOm0qgRx55pK7ayvsMBXjUgCzVRO0Koxz7qC3X1gynuo6XbUrLXGllyMayrr3MUI4f+9jH2qsn3hfDbJvhJ9vXkKqxhGPXXHNN/XlXSJYgstyH5sFjnxavzGXW1Y7Dsus81hEgQIAAAQIECBAgQIAAAQIECBAgQKDvAnUFWenkaDQqLy0JEDiCQIKhTRtqrgR2JQhqB2TpbgKxhEQJlJpDLCb0ybCBZejFeXOTJZxKSJjlY489duSgrX0rctx5gVdzn2yfn1mt9H3WNsXwlltu6dwsAVZCstz7OHe1aaFjMyBLgKkRIECAAAECBAgQIECAAAECBAgQIECAwPEJ7JchFc0/dnzIjrx7AgmQEibNaqk+mhfazNp/mc9K5VP2mRduPfTQQ4fCvVxnQp8EZYuENwmHsm1agqwSLNUrVvhPrOZd9wqHXWqXpmHCw2n3rlxn5hLbhdbupyq3Xbjr+kiAAAECBAgQIECAAAECBAgQIEBg+wXqCrIyzGIJy7a/W3pA4HQFEpLMC5IyzN60kGWdV58AoxlQNSvDus6TgKMdcjSHEpxWAdU8VvZPJVrmEEtQlp9F9mseo7xOMJXqqgw7WK79Qx/6UL2ubNO1zDnLHGaLVIdlWMRZrRjmWAk/T+LezbqeTfms7TAvGN6U63YdBAgQIECAAAECBAgQIECAAAECBAjstkAdkCUYy89wOByYi2y3vxDb0PsHHnhgXJ20Ddd72tf4ta99bTznVUKr9773vUtdUgK2Ug2WcGjR/RMQloDqKFVkJZjKkI0JX8o1LHId5fzZdl5gOQsl11/mDTvKcWadY1s/y3CczSYga2p4TYAAAQIECBAgQIAAAQIECBAgQIDApgoMmxeWOchUkTVFvCaw3QLf/OY3xyFVqrruv//+pTv03HPPjfdZJhxKkJWftARsq8zJ1gymmscbX9AJvEhAmOtIK/O3ncBpt+IUqR4rwWEuOOFYu/pwKzriIgkQIECAAAECBAgQIECAAAECBAgQ2DmBiSEWVY/t3P3fyg6nGqg979G6O9J86L/KsUvF1ax9j7sP7XNneMJFqq7a+50/f368qgRe4xVzXmSoyWKRsO5Tn/rUnD3e+jg+pQIsa5fZ962jHP3Vo48+Oj7IUa8hQ1W+9tpr4+N1vUiQmGElp7UML7nKfZx2vKOszz1ttmW/H819vSZAgAABAgQIECBAgAABAgQIECBAgMBJCoyHWDzJkzoXgaMIPPzww0fZfaF9MxThUUKyBDvNcGehkx7DRgnFEsokbFol3ElQUxxWGZ4xFWcZGjFt2YCsOTRkgrbTCl/ilmE911E9FoMSGE673QnIMufatJbPNiEgaweYud4yR9y0a7eeAAECBAgQIECAAAECBAgQIECAAAECmyIwMcTiplyU6yBAYH0CCXjKPF7LHrUZ8i0zvGI5T4bbK8FWgp954VDZrx2+PPTQQ+WjE1/m+vNTgr4Tv4ANPGHuZULDZlslQG3u7zUBAgQIECBAgAABAgQIECBAgAABAgROUmA8xGJOmvnHDLN4kvzO1VeBVPnMC5QydF8zgDouixJQLXv8VI+VQKuERMseI9snOCnHSTXbItfz+OOPj0+1CcHLY489tpa5tT7zmc+sNBfbGKN6kXm+TrMlvPzsZz87rizMtaS6bpX57U6zH85NgAABAgQIECBAgAABAgQIECBAgMBuC+wnEEsw1vzZbRK9J7AZAufOnavDlFRhnUZrVp2tMjxjuebbbrutvKzn1kpINKslmEuQVtomBC/rugenHW4V01WWqRrLEJH5yetm25RhH5vX5DUBAgQIECBAgAABAgQIECBAgAABAgRmCewnGCtN9ViRsCRw+gKnOZ/TV7/61XGF0FGqx6JYhllMFVkZZnFaFVmqk9rB3CbMt3X634bjv4Lcm4ST7ZZ7knv38ssvHwrGcm8z/OW0+9k+lveHBeKan3kt96Hr/qR6j/88PZ8TIECAAAECBAgQIECAAAECBAgQOCxQD7FYVhtisUhYEthtgZ///OdjgIcffnj8etUXeYBfhllMGDDtgX6qk8q58+D/NEPCVfu6rfslIEsl2KIt9zDVgNtcFbdoX49zu1RLJpCe1/Lvouv+5D40Q+V5x/E5AQIECBAgQIAAAQIECBAgQIAAAQIHAuOArFSPNSvKIBHYJIEHHnhgkCqKk2glpDmJc23iORKKleBjHRVcOVYe5H/kIx+ZOjdb7m0CstIyrGNzaMMEOItU2pT9X3rppfJyXLk2XjHnRa63ee45m8/9OOFg5lJbV4vjvKEq13Wu9nFyHzO/3jr70z6H9wQIECBAgAABAgQIECBAgAABAgQIEDhugfEcZMd9IscncFSBBCh9Cq4S+CzSpoWC09YvcsxFtmlXb+V8L7zwwsSuzRBq4oPWmwQ6+ZnWYpEAtLRUj7UDmIRjzW3KtossU6XTnNds3j7f/va31xqQ5Xzr/O6+9tprnV1oD7c3L+S74YYbBvMC0Hx+zTXXDLJt5pObd8zOC7NyqkB8Ezqu2kqQver+9iNAgAABAgQIECBAgAABAgQIECCwqwITc5AFoVSS7SqIfhM4DoEMoZafBBhpCTiaAVlZ33XuzDs0bwi2kwgtcs1dQ7yVa54XtJTtupYJj5qhT1+GjJt1X7scFl2XwKqrpepumfbYY48ts7ltj0Eg1Xj50QgQIECAAAECBAgQIECAAAECBAgQOFmB8RCLhlY8WXhnW17gmWeeWX6nFfdI9dI6K35SPZWQq+uYqdSaFS6Vfad1pT0U4bTtjro+lSr56RrmMEHQ/fffv/Ipcty//du/rSvEbrnllk6PnKNdVbbyCefsuI7AMff0JL+zc7rkYwIECBAgQIAAAQIECBAgQIAAAQIECBBoCIwDsrJOUFYkLHdZYFZgNc0lIU8JcNqVQ/ksQVizSirr8jNveLWufVNBlGvMvvl8lZZrLOduX++04507d26Q+bRKW+fQe+nPrMqxfJ650Talpe/L+m3KtbsOAgQIECBAgAABAgQIECBAgAABAgQI7LrA3g9/+MMrQUgwlp93vvOdg9/93d/ddRf9J0CAAAECBAgQIECAAAECBAgQIECAAAECBAgQ6KHAv//7vw/GFWSZeyw/Ksh6eKd1iQABAgQIECBAgAABAgQIECBAgAABAgQIECBAYCwwHL+qXoxGozoka67zmgABAgQIECBAgAABAgQIECBAgAABAgQIECBAgECfBIZVG/dHBdmYwgsCBAgQIECAAAECBAgQIECAAAECBAgQIECAAIGeCgxTNZZmaMWe3mHdIkCAAAECBAgQIECAAAECBAgQIECAAAECBAgQmBAYpmosrVlJNrGFNwQIECBAgAABAgQIECBAgAABAgQIECBAgAABAgR6JDAeX1EFWY/uqq4QIECAAAECBAgQIECAAAECBAgQIECAAAECBAhMFRiWYCzL8nrq1j4gQIAAAQIECBAgQIAAAQIECBAgQIAAAQIECBAgsOUC4yEWSz/KkIvlvSUBAgQIECBAgAABAgQIECBAgAABAgQIECBAgACBPgnsl6qxEoyV933qpL4QIECAAAECBAgQIECAAAECBAgQIECAAAECBAgQKAL1HGTCscJhSYAAAQIECBAgQIAAAQIECBAgQIAAAQIECBAg0HeBeojFMv9YCcr63mn9I0CAAAECBAgQIECAAAECBAgQIECAAAECBAgQ2F2BYXtIRSHZ7n4Z9JwAAQIECBAgQIAAAQIECBAgQIAAAQIECBAgsAsC4yEWSzDWDsx2AUEfCRAgQIAAAQIECBAgQIAAAQIECBAgQIAAAQIEdkegDsiaoVgJynaHQE8JECBAgAABAgQIECBAgAABAgQIECBAgAABAgR2SWBcQVY63QzLyjpLAgQIECBAgAABAgQIECBAgAABAgQIECBAgAABAn0RUEHWlzupHwQIECBAgAABAgQIECBAgAABAgQIECBAgAABAgsJqCBbiMlGBAgQIECAAAECBAgQIECAAAECBAgQIECAAAECfREYV5BlaMX8mIOsL7dWPwgQIECAAAECBAgQIECAAAECBAgQIECAAAECBLoE6oCsfCAcKxKWBAgQIECAAAECBAgQIECAAAECBAgQIECAAAECfRUYB2TCsb7eYv0iQIAAAQIECBAgQIAAAQIECBAgQIAAAQIECBBoCowDsqxMSJZhFjUCBAgQIECAAAECBAgQIECAAAECBAgQIECAAAECfRWYCMhGo1Ff+6lfBAgQIECAAAECBAgQIECAAAECBAgQIECAAAECBGqBYXNoxeFwWFeRsSFAgAABAgQIECBAgAABAgQIECBAgAABAgQIECDQV4GJCrIMr2iIxb7eav0iQIAAAQIECBAgQIAAAQIECBAgQIAAAQIECBCIwFAg5otAgAABAgQIECBAgAABAgQIECBAgAABAgQIECCwSwLjCrIEZRlusTnk4i5B6CsBAgQIECBAgAABAgQIECBAgAABAgQIECBAgMBuCEzMQaaabDduul4SIECAAAECBAgQIECAAAECBAgQIECAAAECBHZZYFxBFoRUjwnJdvnroO8ECBAgQIAAAQIECBAgQIAAAQIECBAgQIAAgf4LTARkZZjF/ndbDwkQIECAAAECBAgQIECAAAECBAgQIECAAAECBHZVYCgU29Vbr98ECBAgQIAAAQIECBAgQIAAAQIECBAgQIAAgd0UmKgg200CvSZAgAABAgQIECBAgAABAgQIECBAgAABAgQIENglgToga1aRmYNsl26/vhIgQIAAAQIECBAgQIAAAQIECBAgQIAAAQIEdk9gXEGWYKwZlO0ehR4TIECAAAECBAgQIECAAAECBAgQIECAAAECBAjsgsD+3t7eRD9VkE1weEOAAAECBAgQIECAAAECBAgQIECAAAECBAgQINAzgf0SiJUKsp71T3cIECBAgAABAgQIECBAgAABAgQIECBAgAABAgQITAiMh1gcDscvJzbwhgABAgQIECBAgAABAgQIECBAgAABAgQIECBAgECfBIbNIRabr/vUSX0hQIAAAQIECBAgQIAAAQIECBAgQIAAAQIECBAgUASGzSEWy0pLAgQIECBAgAABAgQIECBAgAABAgQIECBAgAABAn0VmKgg62sn9YsAAQIECBAgQIAAAQIECBAgQIAAAQIECBAgQIBAERhXkJUVlgQIECBAgAABAgQIECBAgAABAgQIECBAgAABAgT6LDDsc+f0jQABAgQIECBAgAABAgQIECBAgAABAgQIECBAgEBbYDzEYuYiK/ORtTfyngABAgQIECBAgAABAgQIECBAgAABAgQIECBAgEBfBCYqyPb29vrSL/0gQIAAAQIECBAgQIAAAQIECBAgQIAAAQIECBAg0CkwriAbDg+yMiFZp5OVBAgQIECAAAECBAgQIECAAAECBAgQIECAAAECPREYjkajQUIxwyv25I7qBgECBAgQIECAAAECBAgQIECAAAECBAgQIECAwEyBumysGY41X8/c04cECBAgQIAAAQIECBAgQIAAAQIECBAgQIAAAQIEtlBgP9dsWMUtvHMumQABAgQIECBAgAABAgQIECBAgAABAgQIECBAYCWBOiArVWNludKR7ESAAAECBAgQIECAAAECBAgQIECAAAECBAgQIEBgCwTqIRZznQnHUkmmmmwL7ppLJECAAAECBAgQIECAAAECBAgQIECAAAECBAgQWFng/2fvfoJtu+o7sR8uVxJPPETDe8YCtwBX2oiBVKmWGZjYVeBUQ0+E7G4qfwQDuzoRDDrVA/TSlZ60pM4klZJUlUEGoFQqGbToSpcdWyIDS+4GVToSA6EewIBHnDJgG2jxJGRZ0rP+XfK+G/8O6+53/t9z7z1nn8+qum+fs8/ea6/12fuce9/6nd/aXYCsgmIyyFZ2tCMBAgQIECBAgAABAgQIECBAgAABAgQIECBAgMCWCIwzyCpItiXt1kwCBAgQIECAAAECBAgQIECAAAECBAgQIECAAAECKwl0AbKaXlEG2UqGdiJAgAABAgQIECBAgAABAgQIECBAgAABAgQIENgigb3KHDs4OHD/sS06cZpKgAABAgQIECBAgAABAgQIECBAgAABAgQIECCwmsBeZY9VoEwW2WqQ9iJAgAABAgQIECBAgAABAgQIECBAgAABAgQIENgOgaumWKxA2XY0XysJECBAgAABAgQIECBAgAABAgQIECBAgAABAgQILCcwnmIxuwmOLYdnawIECBAgQIAAAQIECBAgQIAAAQIECBAgQIAAge0T6KZYbJttisVWw2MCBAgQIECAAAECBAgQIECAAAECBAgQIECAAIGhCYwzyA4ODroMMllkQzvF+kOAAAECBAgQIECAAAECBAgQIECAAAECBAgQINAKjDPIEhiTPdbSeEyAAAECBAgQIECAAAECBAgQIECAAAECBAgQIDBEgb0hdkqfCBAgQIAAAQIECBAgQIAAAQIECBAgQIAAAQIECEwTuCpAJotsGpX1BAgQIECAAAECBAgQIECAAAECBAgQIECAAAECQxC4KkA2hE7pAwECBAgQIECAAAECBAgQIECAAAECBAgQIECAAIFpAocCZHt7e6Pci0whQIAAAQIECBAgQIAAAQIECBAgQIAAAQIECBAgMFSBQwGyTK9oisWhnmr9IkCAAAECBAgQIECAAAECBAgQIECAAAECBAgQiEAXIKussQTH6jEeAgQIECBAgAABAgQIECBAgAABAgQIECBAgAABAkMU2EtArA2MySAb4mnWJwIECBAgQIAAAQIECBAgQIAAAQIECBAgQIAAgRLYq4BYBclkkBWNJQECBAgQIECAAAECBAgQIECAAAECBAgQIECAwBAF9qtTFSir55YECBAgQIAAAQIECBAgQIAAAQIECBAgQIAAAQIEhijQ3YMsHdvbGz8cYj/1iQABAgQIECBAgAABAgQIECBAgAABAgQIECBAgEAnMI6KySBzRRAgQIAAAQIECBAgQIAAAQIECBAgQIAAAQIECOyCwF7dc6yWAmW7cNr1kQABAgQIECBAgAABAgQIECBAgAABAgQIECCwuwJ7FRA7ODjYXQU9J0CAAAECBAgQIECAAAECBAgQIECAAAECBAgQ2BmB8RSLlUFWy50R0FECBAgQIECAAAECBAgQIECAAAECBAgQIECAAIGdEhhPsVi9royyem5JgAABAgQIECBAgAABAgQIECBAgAABAgQIECBAYEgC4ykWh9QpfSFAgAABAgQIECBAgAABAgQIECBAgAABAgQIECAwTWA8xWJljplicRqV9QQIECBAgAABAgQIECBAgAABAgQIECBAgAABAkMQ6AJkFRSr5RA6pg8ECBAgQIAAAQIECBAgQIAAAQIECBAgQIAAAQIEJgmMM8gExybxWEeAAAECBAgQIECAAAECBAgQIECAAAECBAgQIDA0gS5AlukVEyA7ODgY1VSLQ+uo/hAgQIAAAQIECBAgQIAAAQIECBAgQIAAAQIECBCIwF5ljgmMuSAIECBAgAABAgQIECBAgAABAgQIECBAgAABAgR2QWA8xWJlke1Cp/WRAAECBAgQIECAAAECBAgQIECAAAECBAgQIEBgdwX22syx9vHukug5AQIECBAgQIAAAQIECBAgQIAAAQIECBAgQIDAkAX2a4rF6mT/ea23JECAAAECBAgQIECAAAECBAgQIECAAAECBAgQIDAEgX1ZY0M4jfpAgAABAgQIECBAgAABAgQIECBAgAABAgQIECCwqEB3D7I2a0zAbFE62xEgQIAAAQIECBAgQIAAAQIECBAgQIAAAQIECGyjQBcgq4YnUNYGy2q9JQECBAgQIECAAAECBAgQIECAAAECBAgQIECAAIGhCBwKkMkeG8pp1Q8CBAgQIECAAAECBAgQIECAAAECBAgQIECAAIFpAl2ALIGx+pm2ofUECBAgQIAAAQIECBAgQIAAAQIECBAgQIAAAQIEhiBwKIMs0yvKIhvCadUHAgQIECBAgAABAgQIECBAgAABAgQIECBAgACBaQJ77T3H2sfTdrCeAAECBAgQIECAAAECBAgQIECAAAECBAgQIECAwDYL7CdjrAJjsse2+VRqOwECBAgQIECAAAECBAgQIECAAAECBAgQIECAwCICe1fKofuPVbBskZ1tQ4AAAQIECBAgQIAAAQIECBAgQIAAAQIECBAgQGDbBPYqayyBsXq8bZ3QXgIECBAgQIAAAQIECBAgQIAAAQIECBAgQIAAAQKLCnRTLNbGgmQlYUmAAAECBE5G4ODgYJQfhQABAgQIbIPA/v7+NjRTGwkQIECAAAECBAgQIDBXYPy/G9ljc61sQIAAAQIE1iZw+fLl0aVLl0ZZKgQIECBAYFsErrnmmtG5c+dGN9xww7Y0WTsJECBAgAABAgQIECAwUWC/ssZqOXErKwkQIECAAIG1CTz33HOj/CgECBAgQGDbBF5//fXRj370o9Err7wyuvHGG7et+dpLgAABAgQIECBAgACBscChKRaTRZZAmUKAAAECBAgcj0AGFtvg2N7e3ui66647noOplQABAgQIrFHgjTfeGOX3WMqLL744qmyyNR5CVQQIECBAgAABAgQIEDgxgW6KxQTFcv8TwbETc3cgAgQIENhRgR//+Mfjnmd6qve85z2jBMkUAgQIECCwDQIvvPDC6Nlnn+2a+pOf/GT0rne9y++xbThx2kiAAAECBAgQIECAwFUC3Yhc3X/MNItX+VhBgAABAgTWKvDSSy919SUodv78eYOKa9VVGQECBAgct8Df+lt/a3TmzJnuMPmSZaZaVAgQIECAAAECBAgQILCNAuOvrMse28bTp80ECBAgsE0CNS1V2pxpFff3u0TubeqCthIgQIAAgdH1118/VkiQTCFAgAABAgQIECBAgMA2CowDZNvYeG0mQIAAAQIECBAgQIAAAQIECBAgQIAAAQIECBAgsKxAFyCr7LGaanHZSmxPgAABAgQIECBAgAABAgQIECBAgAABAgQIECBAYFsExvcgS3AsPxUs25YOaCcBAgQIECBAgAABAgQIECBAgAABAgQIECBAgACBZQS6m5+0QTFZZMvw2ZYAAQIECBAgQIAAAQIECBAgQIAAAQIECBAgQGDbBPYqOCYwtm2nTnsJECBAgAABAgQIECBAgAABAgQIECBAgAABAgRWERhPsVg7V8CsnlsSIECAAAECBAgQIECAAAECBAgQIECAAAECBAgQGJJAFyBLhyowJpNsSKdXXwgQIECAAAECBAgQIECAAAECBAgQIECAAAECBPoCexUQyzI/FSjrb+g5AQIECBAgQIAAAQIECBAgQIAAAQIECBAgQIAAgSEIjDPI0pkExypgNoTO6QMBAgQIECBAgAABAgQIECBAgAABAgQIECBAgACBvsChAFlelEHWJ/KcAAECBAgQIECAAAECBAgQIECAAAECBAgQIEBgSAJdgKyCYjXN4pA6qC8ECBAgQIAAAQIECBAgQIAAAQIECBAgQIAAAQIEWoH9elJBsnpuSYAAAQIECBAgQIAAAQIECBAgQIAAAQIECBAgQGCIAnttYCwZZO3zIXZYnwgQIECAAAECBAgQIECAAAECBAgQIECAAAECBHZbYD9BsSqCYyVhSYAAAQIECBAgQIAAAQIECBAgQIAAAQIECBAgMFSB7h5kQ+2cfhEgQIAAAQIECBAgQIAAAQIECBAgQIAAAQIECBDoCxwKkCWbrM0o62/sOQECBAgQIECAAAECBAgQIECAAAECBAgQIECAAIFtFzgUIDPF4rafTu0nQIAAAQIECBAgQIAAAQIECBAgQIAAAQIECBCYJzAOkAmOzaPyOgECBAgQIECAAAECBAgQIECAAAECBAgQIECAwBAEugCZ4NgQTqU+ECBAgAABAgQIECBAgAABAgQIECBAgAABAgQILCKwXxu5/1hJWJbAAw88MHrHO94xuv3220fve9/7avVCy6997Wujb3zjG93PF7/4xa6ehXYc0Eaf+tSnxr159NFHx49P88Ff/dVfjfKz7Pls2/yDH/xg9JWvfGWUPt17772jX/3VX21fXtvjCxcujC5evNjVtyl+a+vchlR03333jXI+U+65554jXRcb0iXNIECAAAECBAgQIECAAAECBAgQIECAwEICXQZZgmMpMskWMtuJjTJo/uUvf3n0pS99aXTHHXd0wZBlOp598/Od73ynWy6z71C2/eEPfziqn03oU87pZz7zmdHnP//57rxWYGTZtj3xxBPd/ulbAmQJuB1HSb2b5HccfTzOOvPey/t31vl5+umnx4Hs42yLugkQIECAAAECBAgQIECAAAECBAgQILBpAocyyDatcdozX+C15y6NXvvxpW7Da3/h/Ojac+fn77TAFskQasuyWUKf+9znukBM6kig7M4779zJLLLW8LQf5zwk4JSSwEmyspLllnO1TMm5zL4JwKS+1LtsHcscb9q2laE47fVV1+daX/Z6X/VYx7Vfsj9zXlLilCxOhQABAgQIECBAgAABAgQIECBAgAABAgR+LjAOkP18lUfbJHDpscdGL3z1j7sm3/Br/8nob/+j/3otzW+ntEsQZdkp+SrIkMH5ZLCcVhBlLRjHXEms+wHJVQ45LwiSwFZKBU4S3KpAWQJc7ZSQ845/9913n3oANNdW2r/uEottD5DlXGea05zjcjqNIOa6z436CBAgQIAAAQIECBAgQIAAAQIECBAgsC6BcYAs0yvWVIvrqlw9xy9wcPmVtR8kwZrKNErld91110rH+PjHP94NzmdnAbLphBXEmL7Fel5JkDOBrQRPHnroofG0mTl+7kWV837//fcvlOm3iwHQBHpzX7QqMZgVdEqGXTK5ZpWck7Nnz3YB6A996ENrC8yl3kx/mek0UxJIrHM2qz1eIzBP4LXXXht985vf7DZ773vfu/SXJ2bV/9xzz41effXVtdRZU7TmfaUQIECAAAECBAgQIECAAAECBAgQmCQwDpBNetG6zRd4/cqAYpX2ca1bZdlmIq2SPVbHvP3220cPP/xwN9i5THZS7W95PAIJntxzzz1d4DMBlAqGLntPsgSHKgCTAGgCb+94xzuOp9Fzas31ta6sr2kD6hlwTzZWlTjOKv3tJ23b1pfXE3D4yEc+0p2befVPqq9dF4+ck8oYTMAs78fTOkdt2zw+eYG8v496TaXVCWDVdZtrbB11lsZTTz01SjvzPjjq74zcKzF1JZj36U9/ug5xbMt1+R5bA1VMgAABAgQIECBAgAABAgQIECBwlcA4QCaD7CqbrVjx5isvj9v5+nM/Hj9e9cGi2WPJOGqnYZx1vMqQygD9vPLII4+sdcB13vE24fUEMRJMPOmSge2cw2QX5SeB0WWCJxkcz/YJBKUkY2pdQaplLXLc0zBctp3zts97JeckP7kuEoRc5pz060/GYIIZdb+4Bx98sAuO9rfL86McZ1J91m2GQAJaX//610cXL17c+CzCZKelXHfddUfCyzWfgFXKBz/4wW55nP/kMzC/OxPYS+a099JxaqubAAECBAgQIECAAAECBAgQILA+gf0KjNX0inmubJ7Af3jkD0YHL78yuv7DHx6dvfnDo7def33XyHaKxYPLl8cNf/OVV0YvXfz26JVvf3t0zfnzo/Of+OT4tVkP2uyxDM6vMztg1nF3+bUMpp7mgGrOc2V/ZaC3Al6LnJPsl0HhCozVoPSsfXf1msrAeX7aEq8ExRK8SBCrLcn8yn3E8p48ilndLy7XWM5VW3LsKqd5DVYbLNcvkKBTvS/bzK9JR1rk/f/SSy+Nd832Vfd45YQHi37GXbp0qdu7f51OqHLqqm9961vjDLdslPdVskKP8/pOcCwl76c8TrD+OI/XHcw/BAgQIECAAAECBAgQIECAAAECRxbYr8BYlvX4yLWqYO0Cf/nkvxu98fzzo5989Y+7uq/9pb89ettN7+/W1cESIPvhlx8evfydb49e+4s/r9WjvTNnRu/69d8YB9XGL/QeJIuoBswzQJngR1syuFqBkDYo0m6Txxk0bQf7lxmc3LZBxfQ1U3nNKzWA2m73sY99bGMGUcs9fVkk06/txzKPE+hJlmBbEgRqr5d6rR14z7XZlroO23V5nHpyTlYtcZg2xeKqddZ+qXdWllv6294bLvvl/ZhpLI8yNWKsck436XorE8vjF8g1nesun0F5b+RzPEGzj370o1cdPO+fCqJd9eKEFdl+0nu3v+kiWVW5/1iVc+fO1cOllmnLk08+2e2Tfqef6fNxB60++clPjh577LHuWCdxvKVQbEyAAAECBAgQIECAAAECBAgQIDBVYJxBNnULL5y6wEtXssASHGtLAmBtEKxeqwBaPc8ygbPL3//+6OyV7LNpJYPz7ZSJ/andMsCYQfbcF+auu+7qpn6bVFcGBz/zmc+MX8r2ud/VUEv6G5d5ZdI2CRRVYGre/kN+PUG59tqb1Nd+gCzX56SSbKkK8k56fd6607xeEzzMeyWBrExhmmsrJf3J8/vvv39m89uAYn/D2267bTx4X6+1mUBZN2v/2mfWMtey63mW0Om9lvPSBslyX64Ej3KtteXaa69d6BzWtZmpELPPvDJpm1xv7Xu16kxd3/ve9w69VvXP+rJFgmMJtqdUf9PHCgweZ5AsAb3WN305zuN1nfQPAQIECBAgQIAAAQIECBAgQIDAkQXGGWQ1taIssiObrr2Ca3/h/Oi9v/OPRj9+9A+uCpTNO9hbrmSPvfs//XujM+9//8xNk7lSg5X5tn8CBW2pqRcrkDEt6NXPQvvCF77QVtM9ToZCBjCPK1PnqgNasbDA2bNnx1mC83bKgHQNas8auG7rOcpUgW09Q36c91+c2kBzBv7bDM5+/xNsuOOOO/qrl3p+1P2TqVafE0sd2MYnIlBBowoYZVrPBK7aTLJbb711lJ9ZJe/5TP+Zcssttyz8edGvM79vpmWrJYA3qSRzOf3ol9RTdVU/a7s2cPV7v/d7XXvn9bFf/yLPc7xPf/rTXWAsU0VWkCzrJgUIF6nTNgQIECBAgAABAgQIECBAgAABAscrsF/VV2CsAmW13vL0Ba49d3507ZUpEjNN4l/++2dGzz/+2Ojynxy+X1G/lWf+zodGv3DHb8/MGqt9MmBaga+s6we1MhhawbMMUCaDbFLJdjVwmtczWF6DlHmeAcMLFy50A5mp5yjTxqW+TSjp36RspniWWdo5aZvW5rj7kgDKIsGpBGfys0hJELUCZMncmjbt4by6MpVnBrH7JVMLVukHXnL95Lrtl7SjnxmVbTJ4Xtf4rD6m3k0oCTjmmmkz5/K477AJba02LHJ91baWpyOQz5w2YJRA1K/8yq+Mzl+5T+VJlwSN2s/A+ixZNCst7X311VdHX//617t7+OV59a+tN9ld//Af/sNxJtlTTz01ynSO+bxqt8v+Ry3p0yc+8YnxsdKnHK+fqXfU49ifAAECBAgQIECAAAECBAgQIEBgPQLjAFmqS3CsAmXrqV4t6xZ459+9bZSfS1eCZM/+6381sfp3/ebfG733zp9Pczhxo79ZmcBJO+ieQfl2oDuvt4P0yWppX6+6+9v168l2GYzMwH+CFQkeLTJtXNW/qcv0aVLwqw0Upu0JAvUHYzN4Grd1l/75yTEq2JS29rMD1338ZeublElY2SBV16IZarOCexUgS12TAnJ1rE1Z5prJdVSBg5jkXPbPb7V32eBeAolVd67NZA8uW9o6lt3X9qcjkHOd6//3f//3u+yxfnAs19ikIHO1NkGpKgk0zbsH2Qc/+MGJGVT9bLX6PZPpQBfJ8Eo7Mz1rew2nX/3P2bS1+vz444+Pkt2VNn/3u9/tjrNqYL8M+ss6VnxjlUy9d7/73Qv1qV+X5wQIECBAgAABAgQIECBAgAABAscrcChAJjh2vNjrqv215y6Nnv83j02t7i+//v+M3vNbvz166/XXT90mL2SQsL1nUwb2ErhKllcGH/O4Bh+zfQbgM2jfL9k2AZjaNgGYSUGj7JfjZaA/x/7alWnjEgCYVGf/GNv0PP0ri2p3TNtAZNbHoAJXtd06lrm3WRtEybErmy1ByQxEb2KgrO17ro22TPJrXx/i47wf896owEH6mIDApPdLzncFABe1SL1VdwILeW8uW9o6lt3X9qcnkGsrWVVZ9ks+l/KzSEmQKT+zSq7XeVMMJtBWZV6gN0GnZ555ZtROw5ggXLK0kn02rVSf8/mcn9yfrH4XJUg2KVA/ra5563OstOexx372ezrHSRsnec+ry+sECBAgQIAAAQIECBAgQIAAAQLHJ7Ava+z4cI+r5ktXvgX/xvPPj6vfv/Lt9JRad3D58ujZP/yDuVlkCeJU4CT75/msQfZ+gCf7pDz44IPjejK4OW0Kxp9tPRrdf//9o89+9rPd8TLAnoHENqBT223rctLUfxkgTV+nBQ6Ps6/xzj3m6tzmnFeg7IEHHljrwPC6+hGvtuR52rpKEKetZ9se97Nb4jApQLZKv9ogyDref/MCG6u00T7HJzAtWDPvWkhgqYJimb4wP7PKrKBV7Ve/hxJI62e01TYJjH3rW9/qftostvQjbchri5YEw+r6z++9BOTz3pqWgbZove12CYjFMl8giVmOsWnZu217PSZAgAABAgQIECBAgAABAgQI7KLAfmWNJVB2cHCwiwZb1edkj73wbx8/1Oab/vE/6Z5/9/7/cfTTy690j3/y1T8evePKVIxnP/zhQ9u2T+oeLP1spwx0Z9CxBhCzTwI7kwZOE/TJwF9K9kkQrd0udecnU3ZloLCmZMsx6rUEa6YF37qKt+yfp59+emKLY5V+1yBp+3jiDldWpq4aPM75am2n7dMf+M4+99xzTxe4TMZa1ZdlpsxMe/L6ppRcJ+21V+1KtmH6dhpBxmrDSS/7WS2TXFZtU5yr9I9T6+ct61qat53Xt0cg18Ks6yGf2xUgSxCoH8Rdpad1LdbnWzLK8pNpP2tdgky5/is4lvVpZ37/9APqi7ShpmPNvulT6up/di5Sz6xt2sy4vFfSz+rPrP28RoAAAQIECBAgQIAAAQIECBAgcDIC3RSLFRzLUtlsgR9++eFDDXzPf/ZfjM7c9P5u3Y3/+X85+uH//r/bC3orAABAAElEQVSOX3/20T+cGSDLhvnGfMrNN9/cDRBWcCxBqxqMz7o2KJHBxLyWgE87MJnBzGSTZRAw21QwrDvAjH9Sx7SpFjP4Oet+ODOqPbaXymzSAZI9NilokEHk9DM+FejKQOm8wFTOQ2V+JZA169iT2tOuy/FSV9qYgGS1M+d3k0quhX5J1lTW94OM/e2G9jwD9jk/da7qvXXUgfzUU+/vmM0KiAzNVH82T6Cu7w984ANd4xKAy+dlrv0KKOWaz+dfpi285ZZbut9ZCUDV68v2qoJvufaPI3CVtlUwr9o2bYrUet2SAAECBAgQIECAAAECBAgQIEDgZAXGUyxWkOxkD+9oywi8+coro1f//PvjXc7dfsfo/Cf+/vj5u379N0avXfrx6Ln/69Fu3cErL4+yz6x7kU2asi6BiArKZFCyn92VgfVJ987KIGcNdI4bNeNBO/CfwMekqRbTljYIN6O6E3tpVpCq3CogVo1KIKymlYzdww8/vPZshTrWvGXaf9ttt3XTLiZDrQ1+ztv3JF5PULRf0sasz/WVIGMCupNKBrrvuOOOSS+N1+Vay0+/5Jz1r/X+NqfxPAGA9n2V4PNRA2S5h1OVfuZM6k9Z5Bi1bbZfNVCRfZX1CiTb6o/+6I9mVprzlWu+SoJS2W9eaYM+CQK1gdZZ+06bjjHv2apz3jWUa/LTn/70+DCpc9bn8XjDOQ/mHXfO7hNfbt+ztUHeL7l32q233lqrLAkQIECAAAECBAgQIECAAAECBE5RYDzFYrVBFllJbN4yga4P/Q/3j/7DH/6fo9evDEz+4h2/fVUjf/G3/sGVoNjlUXIB3/Nbvz0zOHbVzldWZLAy93qq8oUvfOGqge8MqvYDQLV9BjDrm/kZdKzHWZ+AWH7yOD8pFy5c6AIfGThM4CP3y9rWErsK5mXQth6nP7FIkCe2FeSZlz12nA5pT47fBjiO83iL1h2z+OT6SOCmDPP83nvv7QKzaXMCuzVF2qJ12+7nAgk2VqkgSVwTkM5P1i3yXty066f6tOvLBJwmBWhal/oMrnW5h1c+w5YpCarlZ5GSa2rS/cq+973vdbvX74ZF6lrXNpcuXeqCgrHoexz1GK1LPssqkJjPtAT4c781hQABAgQIECBAgAABAgQIECBA4HQFxhlkdS+yWp5usxx9lkCCYLPK++78zKyXp76WwdE2MywBnbpfVn+nrE+QJQN/GdjM4+yfQcZ63u6TwcEMpmfQNttWSQAuA4Z5rX7agcqqt7bf5OVDDz00bl4FHcYrrjzINIEJTKS/yTRLEG3Sdu0+x/24tW6PVeerXdd/3E59WYO//W3a55Oui/b1PE5wJiXBr/5gfaxqqsUMME9qe9ZNumZTVwXbcs1OykBL+3ah5H2W67BKBRqzPtdlvZ5g7qQM09qvv0wwXNkcgfZztm1V/31Vr00KXtVr61hOer+m3gok5X25aFnk8yl1pU+5T9q08vjjj3fXe94D09o3bd9Z65OJ1zrnsyufl1mX15JFdtqf/bPa7zUCBAgQIECAAAECBAgQIECAwK4IjDPI9vb2Rm+++eau9Fs/Jwgkg6uyDjJYOWnqvQzwZeA1wZ12aqsENirzLPv1981Ae9Wdaf2qpK68luDEpAHD08yyqjYusoxLTa9YwcNJ+6U/mQIwPm1/45cATtbFdd5gbbZNkCOmi2T6TGrLrHU5lxVQmrVdvVbnvp5PWiYDbNqgfbaPYfqUEoNJ0yDGLdsksJp7qfVL3CZdM9m2+pPB8P712a9nyM9zH6Qq7fsu5ybnMUHyBMlyTWZdgpLTSs5ZlXnXbG1nefwCORft53N7xEnvq7z+0Y9+tN3sRB5nisZcaymzPhv6jUmArL32+q/X8/weqwBZBd8X+Xyt/VddVtAv++c9lvMR39/7vd/rqqxpFmWRrSpsPwIECBAgQIAAAQIECBAgQIDAegT2U03df8z0iutB3cZaMjCewENKBvQSdMkAZO5VdPHixW56qAxKZsBx0n2aapCzq2DJf6YN5C5Zzalu3maPzepPBoETKOpvk+BafHMOci+2ecGGBHtqwDeP22DbshA5d/OOt2ydq2xfhm3Qpl9P2nma92/rt+cknvffW0c9V+379yMf+cihLlRgvAKeCabk2sp6hcC6BRIoSkmmV67zutZr2c/EOn/+/KGpCfNemPR+aOuqNled9fw4l/ksr1LvnfQxj/OaLLLSsSRAgAABAgQIECBAgAABAgQInK5AFyDLtIoyyE73RJzm0TMIXsGWasdnP/vZ8WBlrcuyssDadXncDj4ukwnQr2cbn2fAs7LHEkyYF6zqB8cSiKwB1ey7iF/qqEyQLNugx7KGyRxMSVZWDTYnC25eP3LN1HnP9glszSo1UDxpmxiU4Wc+M3uK0GrjpHqGuK6ujfRtWkBg0X4nk659D991111X7ZqMsQRdE6zN+U2G57SgZFvXvPN/1YGs2FiBOvdHbWCyphLUmlRy7dS1nUyySRmh/fW5Ntusq3ymTPqcWlf7J7V73rq8Z9rstvbz/NZbbx33WRbZPEmvEyBAgAABAgQIECBAgAABAgSOX2B8D7KDg4Muk0wW2fGjb8oRMpB33333dQPhbZvaQe9an4H5aYOR2aa9H9Wu3YuovU9TP/hVfrOWydKrUveDqufTlhl0zcBwAhn1M2mgeNr+tb4NTOV6qOkaF+lHAlrZJyXbr3L8akcF6fI8GXTKzwRybtsyK8jYbjftcRtInTcVaDJH81mQnwRh2+t8Uv27FricZDCUdTnn9d4+Sp+SKTWtJKPquuuuG7366qvTNtnK9d/61rfG7c77tX1fpM/57M7nriyyMZMHBAgQIECAAAECBAgQIECAAIFTE+juQZagWE2zmGwyZTcEMnDXH4CvnicbJNOvJehx2223zc1qar8x3w4IVn1DXSZwUAHFmCXosGypzKnst0xwKPfRyv2iUpIxsUqAKgHSKkcNvlQ9yy6TOZL2p8wK2nQb7Ng/5VLdXuUc177J+KtrNesmZY/VtnkPZyrQur6yb85Ne4207/nst0vv+3Ia+jIBnWXvTZasr6eeemouTTLBbrnllu666X+pIpll+ekffxuusfb+Y+37pUDy+7TeO7LISsWSAAECBAgQIECAAAECBAgQIHA6AuMpFitIdjrNcNTTEsiUVQnyJLiT7KUMwOdn2YHIGvBLPyYNCp5W/47zuMmwaKemrPs2LXPMuFWQMu7tdFzz6qnzlHYkyJSA2TLnLfvUsXP+F8kam9emZV9P21u3WUGbRepur8N2+zYbJo+nbZd9ljkH7TGO43E/QLZohmG/Lelv3udVFglE1mdBrpFcV8koa9/bbbBtmeuu2mC5+QIJYh3n+yHX2KRS19a84ydbq6ZpbOuZlbnWbrfux2lLfdbkPTHJLuvyk/ekLLJ1nwH1ESBAgAABAgQIECBAgAABAgSWEzg0xaLsseXwhrB1GxRbtT8ZEKwBzQwK7spgefp5zz33jC5cuHBVds2ilg899NB401UCVBXgzDlIwCvPFy3tdHu579ekwdxF61p1uxgm6JIgzCJBm1nHyYDzHXfcMWuT7rUENdvAZn+Hp59+ur/qVJ7nfNb7Kg1IELMNUC3TqFyj7cD9ooHIXN+5RrP9rOsjbVMInLRApmfcpCka6wsHcUim2LQii2yajPUECBAgQIAAAQIECBAgQIAAgZMV6KZYrEO6/1hJ7M5y1QH3VqgdFFxHfW3dm/44AcYEdhYNOLT9SUCnpldMgCH1LFvaDIxkGy0aIGuDLzn2ovst275Ftk/mW6bzW8Vwkfq3cZtcG21mXfoQp1VKMsfaLJvUMyvY1R4j2yVINqm0de5KUHySw5DX5d6S7XlepK8ViF1k26Nuk983k37nJLOsnerwqMdZZP/8Hqy+5/1w8803T90t76v8yCKbSuQFAgQIECBAgAABAgQIECBAgMCJCIwzyATHTsR7Kw+SQb8nnnhilABMplmroE51Jq9VWWUKuAwSJmCTDKpFB+7reJuwnBZAmNe2NntsleBY6k+ALAPEGcTOAG0s5xlmmzZ7bNXAy7z+Lfp6+pBg0Lx2z6svg9Kn3Zd5bVzk9Zyf3PurBtuzz6oB1GTK9adWXFcwtG2fANkiZ3b7tsk5zuf+aZdkieXeZv3PiFx3/XVp67JBvaP2L07tF0VmZY/VsXK/ycpkzb75HPc+Kh1LAgQIECBAgAABAgQIECBAgMDJCBzKIMsUiwJlJwO/6UfJgF3707a3DcLkcRswy6DfKiWD+PlJsGnVYNEqxz2tfVq3BD9WmV6x2p6gZA0IJ9A4L0iUwFxN3bdq4KWOva7lpCyQZeve9gBZBtlr+sc2+JRz1AY0F3XJ+7LNQks968zSq2su7VnH+Vu0X7Y7OYG8p5Y9t7l222vjKK1NUCyfaVkmSPa7v/u7o9yXbNNK+yWReM3KHqu2x/bWW28dffOb3+xWJRC5C7/7qv+WBAgQIECAAAECBAgQIECAAIFNENhPIxIUc/+xTTgdp9eG+gZ8gmIZkGwH6NtWJdsn025VabOg8tqkb/PXtossK3CzyLbbvM199903bn4GRY/iFvcqOX+zShuYy3aZ2lA5GYG8p+LflprCLpmZk953CWqtkl2X4Fh7jVWQ7SjXWdvuPG77ss56+8fx/PQEzp4922WpLtOCXBfLBsgS/Mpnf/bNMgGxlNdee+3QdZbt2gDZpPdU9mt/R+X5cZZ85tZ74brrrlvKK5/dsar+J1iWoJlCgAABAgQIECBAgAABAgQIECBwMgJdgCzBMQGykwHfpKNkcDEZK5UpNq1tGcTLT38KxGR8tdljq07d1gbFdmGgvfVO4GJexte081Lrc26SjZDzmbqzzPNJJVP3VUlgLvsqJyNQ2WGLHi3nJhmVy74nKhuzjpNrYZUgW+0/adkPguQ6VrZbYNbnxnH0LNdQ7hP2ve99b+oXMhJw+sAHPtC9B7LM87YkuLRsMK7d/6iPE8jLZ26VTK047bO3tmmXCfZln6eeeqpbnWXeS+fPn28385gAAQIECBAgQIAAAQIECBAgQOCYBLoAWdUtUFYSu7PMoH0GRvslg/OZui9BsUkDfv1B+ARbsv0qpT3+Lgy0x/aRRx7p7jN11OBYeafOOGY56Xxlu5yzNhi5zun2qh2ntUygth2oPmo7YrNsYOqox6z9M0Vbgs3LTreW8//ggw8eClrnWsj0jMtOk1dtmbZMtltbct0p2yvwrW99q3v/fOITnzix6z6fRTluWxIAO3fuXLcqAbR3v/vdM3+vZPs2o6zqSuZZsrKOs+T99thjj40PkffYKtlf2SdBwspCe/zxx6f+3h0fzAMCBAgQIECAAAECBAgQIECAAIG1COy30yu6/9haTLemkgyeZ1AvgYV6PCsolo5l2wRa2mBE6vjCF76wcL+zfxt8aLPQ1j2Qv3CjTnjD9L/tdw5fA6RtUyata1+vx8k0mhYYyzapJ+5VEphrz0HWZ0q+fptq+3nLNjNt3rYJpqxyT61Z9eZ6bK/JWdsu8lo/W3KRfVbZpgLCuWdRrv3YrBJsSt8zXWYbAE3dce6f50XamQBYrplcU/3rqn8trdLeRdpgm+MXSBDpmWeeGd8HKwGr9nrJ9dR+bqyzRXXt53h5nJ8ExxL0yvW8yGffLbfcMvH9kvt5HWdmWYJj7ZSoeY989KMfXZkn9+78/d///S6oV3VP+3LKygexIwECBAgQIECAAAECBAgQIECAwFUC+8kaq8CYaRav8hn8imSp5CcDdP2B8H7nL1y4MMrAY1syOH7//ffP3TcBgBq8nzbgmrrmtaE99tAez5uCrwaUJ/V7nlv/flSrToc56di7si4D+U8//fTC3c31vMz2C1fc2zAD6v3gWIJteV+2wY7ebjOf5lpLnYuUdWVBLnIs26xPINdNgjJZphw1yLNsy3Jt/s7v/M5V0yYuW8+i29eXLxKAO0qpAFbrlmDWUeqNfbL3KjOzjiFIdpQzZV8CBAgQIECAAAECBAgQIECAwHyBq6ZYrGDZ/F1tMQSBDMAtWhJUqQBZBvQyML5ooCUZZhcvXhwHyfrHTH3Jgtrlkuy9BMkmlQQsjpKpk2BJTb+X8xbvfjnqMfr1TXteA9XTXl90fa69Za7fRevNdpN8ltn/JLdNWx9++OHx+Y3L3XfffaQm5Byl3goCTKssxznKdTmtXuuPX6C+sJAj5QsMv/Zrv3ZVkCefCctO9ZnMrwr0zOvFUYJK8+ruv77qFMBtPelbpkCs6RvT/k9+8pNr+bxIwDDvpcqEFSRr5T0mQIAAAQIECBAgQIAAAQIECByPQBcgk0V2PLhDqzWDdxkQz8BdBuGXCSJk8C/T92Xaq/6ge+rJQOwy9Q3NNv1JUCIOVeJRg6ZHDQSlrgQgU8+0gMa2ZQKlT7t+zbTXSoLQs85vbbvIMq65HhIQeOmll67aJddqjsX/KpqNXjFp2sFMDbjKvbM2uqPH0LhMP/nkk0+Oa05wLO+Bumfa+IUjPKjP5n6QLOvX9cWCIzTPrgQIECBAgAABAgQIECBAgACBwQmMM8gODg7GUy0Orpc6tDaBRTPGph1wlwb5lp1eL8GGVe8BNs27v74GYPvrN/H5uu9Ttol9XGebcv2s8/we9b2+zr6p6+gC+WJCBV5SW66XTK2bILwyXSBuTzzxxKF7osXuuALE9R6uc5XjJ3M7weq8lmMrBAgQIECAAAECBAgQIECAAAEC6xEYB8hSXZtJtp7q1UKAAAECBAictkCbvZusp3VMDdjPBk4fn3/++VPpatuW11577ao2ZFrE55577tD62u7aa689tD5Psn2yxvJTUypmfQKKi9yzM9uuWvpBstST81frV63XfgQIECBAgAABAgQIECBAgAABAocFugBZ3XcsywTJFAIECBAgQGA4AplGMUGWD37wg6NMq7iOkqDUrPuNnWS2UwJZ3/zmNw91q53+MH/fTGtru11VkO0TQGuDYzFcl10dZ9oywbBkXKfNcc7jk/Sc1i7rCRAgQIAAAQIECBAgQIAAAQJDEhjfgyydEhwb0qnVFwIECBAg8DOBZEmte1rA8+fPj3IvrjaIlKMlkHPLLbecaEDnAx/4wDhAljYl6JVgYJX0P+29dOlStyptzE/2mxR4yvYJhmX53e9+t3t80tNRpl2f/vSnu36196esPlkSIECAAAECBAgQIECAAAECBAgcTeAtV246P04ZS4Dshhtu6Aa2jlatvQkQIECAAIG+wOuvvz760z/90271mTNnRjfddFN/k1N/nvtdpVSgaVaD2qkNs92kYNOs/Se9ljrzM+34CcgluyvBq2xTpdqyjjZUnZYECBAgMFkg09bW1LU33nhj93/IyVtaS4AAAQIECBAgQIAAgc0UeOGFF0b7/WkVZZFt5snSKgIECBAgcBICy2RKHUcwKnXOqjdBsTYwViaz9qltLAkQIECAAAECBAgQIECAAAECBAiUwF4FxLJMsEwhQIAAAQIECBAgQIAAAQIECBAgQIAAAQIECBAgMGSBvTYodnBwMOS+6hsBAgQIECBAgAABAgQIECBAgAABAgQIECBAgACB0TiDrA2UcSFAgAABAgQIECBAgAABAgQIECBAgAABAgQIECAwVIG9tmMJkgmUtSIeEyBAgAABAgQIECBAgAABAgQIECBAgAABAgQIDE3gUIAsnat7kg2to/pDgAABAgQIECBAgAABAgQIECBAgAABAgQIECBAIALdPcgqa0xwzEVBgAABAgQIECBAgAABAgQIECBAgAABAgQIECAwdIHxPcgqOFbBsqF3XP8IECBAgAABAgQIECBAgAABAgQIECBAgAABAgR2U6CbYrGCYyFoH+8miV4TIECAAAECBAgQIECAAAECBAgQIECAAAECBAgMWWDvSun6l8wx2WNDPtX6RoAAAQIECBAgQIAAAQIECBAgQIAAAQIECBAgEIG9g4ODsYQA2ZjCAwIECBAgQIAAAQIECBAgQIAAAQIECBAgQIAAgYEK7LWZY6ZXHOhZ1i0CBAgQIECAAAECBAgQIECAAAECBAgQIECAAIGxwH4bFGuDZeMtPCBAgAABAgQIECBAgAABAgQIECBAgAABAgQIECAwIIGf3YDsbzqU6RbbgNmA+qkrBAgQIECAAAECBAgQIECAAAECBAgQIECAAAECBDqBborFPHL/MVcEAQIECBAgQIAAAQIECBAgQIAAAQIECBAgQIDALgh0GWQJjiV7TCFAgAABAgQIECBAgAABAgQIECBAgAABAgQIECAwdIFD9yAbemf1jwABAgQIECBAgAABAgQIECBAgAABAgQIECBAgMB+EdQUi7Ws9ZYECBAgQIAAAQIECBAgQIAAAQIECBAgQIAAAQIEhiTQ3YMsQbGf/vSnQ+qXvhAgQIAAAQIECBAgQIAAAQIECBAgQIAAAQIECBCYKNBlkCU4trfX3Y5s4kZWEiBAgAABAusVcO/P9XqqjQABAgQIECBAgAABAgQIECBAgMAyAnuVOZalwbpl6GxLgAABAgSWE7jmmmvGX0h5/fXX/d5djs/WBAgQILAhAq+88sq4JfndphAgQIAAAQIECBAgQGAbBbq0sfa+YxUw28bOaDMBAgQIENh0geuuu65rYr6U8hd/8RejN954Y9ObrH0ECBAgQGAs8Nxzz40uX77cPU9w7MyZM+PXPCBAgAABAgQIECBAgMA2Cey7/9g2nS5tJUCAAIFtF3jPe94z+t73vtd1IwOM3/3ud0cVNNv2vmk/AQIECAxb4NVXXz2U/XzDDTcMu8N6R4AAAQIECBAgQIDAoAW6e5ANuoc6R4AAAQIENkggwbAbb7xx9KMf/ahrVTLJ6pv4G9RMTSFAgAABAjMFEhw7d+7czG28SIAAAQIECBAgQIAAgU0W2G+nVGwfb3KjtY0AAQIECGyzQAYVMyXVs88+O3r55Ze3uSvaToAAAQI7JpDfX+985ztHssd27MTrLgECBAgQIECAAIEBCnRTLKZfCY5lusX2fmQD7K8uESBAgACBjRDIfVt+6Zd+qWuL+5BtxCnRCAIECBCYI7C3tzfKj0KAAAECBAgQIECAAIEhCIwzyCp7rJZD6Jw+ECBAgACBbRDY3zfj8TacJ20kQIAAAQIECBAgQIAAAQIECBAYjoCv/w3nXOoJAQIECBAgQIAAAQIECBAgQIAAAQIECBAgQIDAAgLjr6zX1Iq1XGBfmxAgQIAAAQIECBAgQIAAAQIECBAgQIAAAQIECBDYOoErU8j/LIlMYGzrzp0GEyBAgAABAgQIECBAgAABAgQIECBAgAABAgQIrCCwd3BwMEpwLPceq58V6rELAQIECBAgQIAAAQIECBAgQIAAAQIECBAgQIAAga0Q6NLHEhirIpOsJCwJECBAgAABAgQIECBAgAABAgQIECBAgAABAgSGKPCz+RWH2DN9IkCAAAECBAgQIECAAAECBAgQIECAAAECBAgQIDBBYBwgq8yxNptswvZWESBAgAABAgQIECBAgAABAgQIECBAgAABAgQIENhqgb02MJbH9Xyre6XxBAgQIECAAAECBAgQIECAAAECBAgQIECAAAECBKYI7CVjrIJissemKFlNgAABAgQIECBAgAABAgQIECBAgAABAgQIECAwGIFuisUKjNVyML3TEQIECBAgQIAAAQIECBAgQIAAAQIECBAgQIAAAQI9gfE9yCo4Vsvedp4SIECAAAECBAgQIECAAAECBAgQIECAAAECBAgQGITA+B5k6Y17kA3inOoEAQIECBAgQIAAAQIECBAgQIAAAQIECBAgQIDADIHxPcgSHEv2mAyyGVpeIkCAAAECBAgQIECAAAECBAgQIECAAAECBAgQ2HqBQ/cge+tb37r1HdIBAgQIECBAgAABAgQIECBAgAABAgQIECBAgAABArMEugBZZY+9+eab3TSLs3bwGgECBAgQIECAAAECBAgQIECAAAECBAgQIECAAIFtFhhnkO3t7QmObfOZ1HYCBAgQIECAAAECBAgQIECAAAECBAgQIECAAIGFBLoAWbase4/VcqG9bUSAAAECBAgQIECAAAECBAgQIECAAAECBAgQIEBgywTGUyym3ZlqMT8KAQIECBAgQIAAAQIECBAgQIAAAQIECBAgQIAAgaEKjKdYrA7KICsJSwIECBAgQIAAAQIECBAgQIAAAQIECBAgQIAAgSEKjKdYTOcSHJNBNsTTrE8ECBAgQIAAAQIECBAgQIAAAQIECBAgQIAAAQIlcChAVistCRAgQIAAAQIECBAgQIAAAQIECBAgQIAAAQIECAxVYK9/3zFTLA71VOsXAQIECBAgQIAAAQIECBAgQIAAAQIECBAgQIBABPb7ATFTLLowCBAgQIAAAQIECBAgQIAAAQIECBAgQIAAAQIEhizQTbHYBsX6AbMhd17fCBAgQIAAAQIECBAgQIAAAQIECBAgQIAAAQIEdk/g0D3I+tMt7h6HHhMgQIAAAQIECBAgQIAAAQIECBAgQIAAAQIECAxdoLsHWWWNHRwcjOrx0DuufwQIECBAgAABAgQIECBAgAABAgQIECBAgAABArspsFcBsVq20y3uJoleEyBAgAABAgQIECBAgAABAgQIECBAgAABAgQIDFlgvzpXgbEKlNV6SwIECBAgQIAAAQIECBAgQIAAAQIECBAgQIAAAQJDEtivwFg6leBY+3xIHdUXAgQIECBAgAABAgQIECBAgAABAgQIECBAgAABAhHY72eM9Z9jIkCAAAECBAgQIECAAAECBAgQIECAAAECBAgQIDAkgb22M8kek0HWinhMgAABAgQIECBAgAABAgQIECBAgAABAgQIECAwNIHxFIsHBwdd32SQDe0U6w8BAgQIECBAgAABAgQIECBAgAABAgQIECBAgEArsFcBsb29Q8lk7TYeEyBAgAABAgQIECBAgAABAgQIECBAgAABAgQIEBiMwH56kiBZBcoG0zMdIUCAAAECBAgQIECAAAECBAgQIECAAAECBAgQIDBBYJw2lnuPJUjmHmQTlKwiQIAAAQIECBAgQIAAAQIECBAgQIAAAQIECBAYjMBeAmJtUEwm2WDOrY4QIECAAAECBAgQIECAAAECBAgQIECAAAECBAhMENivgFhlj7XBsgnbW0WAAAECBAgQIECAAAECBAgQIECAAAECBAgQIEBgqwW6KRbbLLIKmG11rzSeAAECBAgQIECAAAECBAgQIECAAAECBAgQIECAwBSB8T3I8rrssSlKVhMgQIAAAQIECBAgQIAAAQIECBAgQIAAAQIECAxGYBwgS3BM9thgzquOECBAgAABAgQIECBAgAABAgQIECBAgAABAgQITBHYbwNjAmRTlKwmQIAAAQIECBAgQIAAAQIECBAgQIAAAQIECBAYjMBeGxTb29szzeJgTq2OECBAgAABAgQIECBAgAABAgQIECBAgAABAgQITBI4NMXipA2sI0CAAAECBAgQIECAAAECBAgQIECAAAECBAgQIDAkgS5AVtMsHhwcuA/ZkM6uvhAgQIAAAQIECBAgQIAAAQIECBAgQIAAAQIECFwl0AXIaprFTLGoECBAgAABAgQIECBAgAABAgQIECBAgAABAgQIEBiywKGIWDLIFAIECBAgQIAAAQIECBAgQIAAAQIECBAgQIAAAQJDFjgUIJNBNuRTrW8ECBAgQIAAAQIECBAgQIAAAQIECBAgQIAAAQIR6AJkuQdZSqZarMfdCv8QIECAAAECBAgQIECAAAECBAgQIECAAAECBAgQGJhAFyCre5Clb+3jgfVVdwgQIECAAAECBAgQIECAAAECBAgQIECAAAECBAiM9ipjLMt6zIUAAQIECBAgQIAAAQIECBAgQIAAAQIECBAgQIDAUAUO3YPs4OBgqP3ULwIECBAgQIAAAQIECBAgQIAAAQIECBAgQIAAAQKdwF5Nqej+Y64IAgQIECBAgAABAgQIECBAgAABAgQIECBAgACBXRDoMshqasUKlu1Cx/WRAAECBAgQIECAAAECBAgQIECAAAECBAgQIEBgNwW6AFkCY/nZ29tzH7LdvA70mgABAgQIECBAgAABAgQIECBAgAABAgQIECCwMwJX3YNMFtnOnHsdJUCAAAECBAgQIECAAAECBAgQIECAAAECBAjspMChKRZrqsWdlNBpAgQIECBAgAABAgQIECBAgAABAgQIECBAgACBnRAYT7G4E73VSQIECBAgQIAAAQIECBAgQIAAAQIECBAgQIAAgZ0XODTF4s5rACBAgAABAgQIECBAgAABAgQIECBAgAABAgQIEBi8wHiKxZpesZaD77kOEiBAgAABAgQIECBAgAABAgQIECBAgAABAgQI7KTAXgJiP/3pTw/97KSEThMgQIAAAQIECBAgQIAAAQIECBAgQIAAAQIECOyEwF6CY1Vkj5WEJQECBAgQIECAAAECBAgQIECAAAECBAgQIECAwFAFDt2DLMEyQbKhnmr9IkCAAAECBAgQIECAAAECBAgQIECAAAECBAgQiMB+MVRgrM0oq9csCRAgQIAAAQIECBAgQIAAAQIECBAgQIAAAQIECAxFoLsH2VA6ox8ECBAgQIAAAQIECBAgQIAAAQIECBAgQIAAAQIE5gkcugdZNq5Msnk7ep0AAQIECBAgQIAAAQIECBAgQIAAAQIECBAgQIDANgqM70FmasVtPH3aTIAAAQIECBAgQIAAAQIECBAgQIAAAQIECBAgsKzAOEBWOwqUlYQlAQIECBAgQIAAAQIECBAgQIAAAQIECBAgQIDAEAUOBcgSHDPF4hBPsz4RIECAAAECBAgQIECAAAECBAgQIECAAAECBAiUwH49SGAsPzLISsSSAAECBAgQIECAAAECBAgQIECAAAECBAgQIEBgiAKHMsgODg5kkA3xLOsTAQIECBAgQIAAAQIECBAgQIAAAQIECBAgQIDAWGDvShk/kUE2pvCAAAECBAgQIECAAAECBAgQIECAAAECBAgQIEBgoAJ7yRpLMbXiQM+wbhEgQIAAAQIECBAgQIAAAQIECBAgQIAAAQIECBwS2EvWWEqbSXZoC08IECBAgAABAgQIECBAgAABAgQIECBAgAABAgQIDEhgPL+iDLIBnVVdIUCAAAECBAgQIECAAAECBAgQIECAAAECBAgQmCqwV4GxLOvx1K29QIAAAQIECBAgQIAAAQIECBAgQIAAAQIECBAgQGDLBcZTLFY/asrFem5JgAABAgQIECBAgAABAgQIECBAgAABAgQIECBAYEgC+5U1VoGxej6kTuoLAQIECBAgQIAAAQIECBAgQIAAAQIECBAgQIAAgRLo7kEmOFYclgQIECBAgAABAgQIECBAgAABAgQIECBAgAABAkMX6KZYrPuPVaBs6J3WPwIECBAgQIAAAQIECBAgQIAAAQIECBAgQIAAgd0V2OtPqShItrsXg54TIECAAAECBAgQIECAAAECBAgQIECAAAECBHZBYDzFYgXG+gGzXUDQRwIECBAgQIAAAQIECBAgQIAAAQIECBAgQIAAgd0R6AJkbVCsAmW7Q6CnBAgQIECAAAECBAgQIECAAAECBAgQIECAAAECuyQwziCrTrfBslpnSYAAAQIECBAgQIAAAQIECBAgQIAAAQIECBAgQGAoAjLIhnIm9YMAAQIECBAgQIAAAQIECBAgQIAAAQIECBAgQGAhARlkCzHZiAABAgQIECBAgAABAgQIECBAgAABAgQIECBAYCgC4wyyTK2YH/cgG8qp1Q8CBAgQIECAAAECBAgQIECAAAECBAgQIECAAIFJAl2ArF4QHCsJSwIECBAgQIAAAQIECBAgQIAAAQIECBAgQIAAgaEKjANkgmNDPcX6RYAAAQIECBAgQIAAAQIECBAgQIAAAQIECBAg0AqMA2RZmSBZpllUCBAgQIAAAQIECBAgQIAAAQIECBAgQIAAAQIECAxV4FCA7ODgYKj91C8CBAgQIECAAAECBAgQIECAAAECBAgQIECAAAECncBeO7Xi3t5el0XGhgABAgQIECBAgAABAgQIECBAgAABAgQIECBAgMBQBQ5lkGV6RVMsDvVU6xcBAgQIECBAgAABAgQIECBAgAABAgQIECBAgEAE9gTEXAgECBAgQIAAAQIECBAgQIAAAQIECBAgQIAAAQK7JDDOIEugLNMttlMu7hKEvhIgQIAAAQIECBAgQIAAAQIECBAgQIAAAQIECOyGwKF7kMkm242TrpcECBAgQIAAAQIECBAgQIAAAQIECBAgQIAAgV0WGGeQBSHZY4Jku3w56DsBAgQIECBAgAABAgQIECBAgAABAgQIECBAYPgChwJkNc3i8LuthwQIECBAgAABAgQIECBAgAABAgQIECBAgAABArsqsCcotqunXr8JECBAgAABAgQIECBAgAABAgQIECBAgAABArspcCiDbDcJ9JoAAQIECBAgQIAAAQIECBAgQIAAAQIECBAgQGCXBLoAWZtF5h5ku3T69ZUAAQIECBAgQIAAAQIECBAgQIAAAQIECBAgsHsC4wyyBMbaQNnuUegxAQIECBAgQIAAAQIECBAgQIAAAQIECBAgQIDALgjsv+UtbznUTxlkhzg8IUCAAAECBAgQIECAAAECBAgQIECAAAECBAgQGJjAfgXEKoNsYP3THQIECBDYUYHLly+PLl26NHr11VdHBwcHO6qg29smsLe3Nzp79uzo/Pnzo/39/W1r/uDa63NkcKd0Jzrkc2QnTrNOEiBAgAABAgQIECCwBoHxyEv+I/Xmm2+uoUpVECBAgACB0xV47rnnRvlRCGybQIK5L774Yvdz7ty5UX6U0xHwOXI67o56dAGfI0c3VAMBAgQIECBAgAABArsh0E2xWFlk/ekWd4NALwkQIEBgSAL9Qe18AeStb33rkLqoLwMWeP3118e9y7V8/fXXj86cOTNe58HJCPzkJz85FGT3OXIy7o6yHoH+58jb3va20dvf/vb1VK4WAgQIECBAgAABAgQIDEjg0BSLA+qXrhAgQIDADgpkULDNHHvXu97VZeBkcFshsA0CuYafffbZ0csvv9w1N9OE3nTTTdvQ9EG18YUXXhj3x+fImMKDLRGo34XJRk3JZ8ov//Ivb0nrNZMAAQIECBAgQIAAAQInJ7Ana+zksB2JAAECBI5X4LXXXhsf4IYbbhj9wi/8wkhwbEziwRYIXHPNNaP3vve94+s298B64403tqDlw2lizCsDJ9l7PkeGc253pSf5HLnxxhtHWabkes79OBUCBAgQIECAAAECBAgQOCywV9MrHl7tGQECBAgQ2D6Bv/7rvx43+rrrrhs/9oDANgkkqHv27NlxkytYM17hwbEKtN6Z4lIhsK0C7fSs7XW9rf3RbgIECBAgQIAAAQIECKxbwJxT6xZVHwECBAhshID7jm3EadAIAgQIENgAgYODgw1ohSYQIECAAAECBAgQIEBgswTGUywmk0w22WadHK0hQIAAAQIECBAgQIAAAQIECBAgQIAAAQIECBBYv8ChDDL3I1s/sBoJECBAgAABAgQIECBAgAABAgQIECBAgAABAgQ2S2CcQZb7XaQIkm3WCdIaAgQIECBAgAABAgQIECBAgAABAgQIECBAgACB9QrsZT76BMVMr7heWLURIECAAAECBAgQIECAAAECBAgQIECAAAECBAhspkCXNtYGx9rHm9lkrSJAgAABAgQIECBAgAABAgQIECBAgAABAgQIECCwusB+djWt4uqA9iRAgAABAgQIECBAgAABAgQIECBAgAABAgQIENgugS5AVlljtdyuLmgtAQIECBAgQIAAAQIECBAgQIAAAQIECBAgQIAAgcUFuikWs3mCY8kkk022OJ4tCRAgQIAAAQIECBAgQIAAAQIECBAgQIAAAQIEtk+gC5BVUEwG2fadQC0mQIAAAQIECBAgQIAAAQIECBAgQIAAAQIECBBYTmCcQVZBsuV2tzUBAgQIECBAgAABAgQIECBAgAABAgQIECBAgACB7RLoAmQ1vaIMsu06eVpLgAABAgQIECBAgAABAgQIECBAgAABAgQIECCwvMBeZY4dHBy4/9jyfvYgQIAAAQIECBAgQIAAAQIECBAgQIAAAQIECBDYMoG9yh6rQJkssi07g5pLgAABAgQIECBAgAABAgQIECBAgAABAgQIECCwlMBVUyxWoGypWmxMgAABAgQIECBAgAABAgQIECBAgAABAgQIECBAYEsExlMspr2CY1ty1jSTAAECBAgQIECAAAECBAgQIECAAAECBAgQIEBgZYFuisV2b1MsthoeEyBAgAABAgQIECBAgAABAgQIECBAgAABAgQIDE1gnEF2cHDQZZDJIhvaKdYfAgQIECBAgAABAgQIECBAgAABAgQIECBAgACBVmCcQZbAmOyxlsZjAgQIECBAgAABAgQIECBAgAABAgQIECBAgACBIQrsD7FT+rQbAt/5zndGX/va10a333776H3ve99Snf6rv/qr0Te+8Y3u5+Mf//joV3/1V5fa38YnK/DAAw+MXnrppe6gd91118Ln+ytf+Up3jrNjrhPn+WTPm6MRIECAAAECBAgQIECAAAECBAgQIEBgUwWuCpDJItvUU6VdfYEvf/nLo0cffXT0pS99afS5z32u++lvM+15AicJuqQk0PbFL35x2qbWb4BAAqE//OEPu5YsExBNEDTXSIrgWMfgHwIECBAgQIAAAQIECBAgQIAAAQIECBC4InBVgIwKgXULvPbcpXGV1547P358lAc/+MEPxoGP1FPBk0XrTJAlgbU2k0wAZVG93dsu10p+Trs88sgjC2fPnXZbHZ8AAQIECBAgQIAAAQIECBAgQIAAAQKbLHAoQLa3tzfKvcgUAusSSHDsT/7ZP+2q2ztzZvTh/+l/XkvVzzzzzKF6Mu3eMuUd73jH6M477xwHPRL8kEW2jOD6tk2wc5mSYOii+yQAWiWP5+2X6yI/CgECBAgQIECAAAECBAgQIECAAAECBAgMW+BQgCzTK5picdgn/KR799qPf549dnD58ujNV14ZvfX664/cjDaY9alPfWqlrJoEyDJN465kkVVfg18BwlknYpGMqdTzoQ99aPTe9753pXOQ43/+859fKgPw3nvvndXsqa9lSs2aVnPaRrmW7rnnnmkvd+uTabjsPe9mVjjnxUwv2Qb65mzuZQIECBAgQIAAAQIECBAgQIAAAQIECBBYQKALkCVrrIJjMsgWULPJwgJvXn7l0LZ5ftQAWe4f1k6puGz2WDWogju5B9nHP/7xwWcOPfzww2O3BHgSIJxVFgmQtfsnSBbH1HuSAaS2DSfxOEG0TNG5aElwK9dYyiqBxKefflqAbFFs2xEgQIAAAQIECBAgQIAAAQIECBAgQGBBgf0KjtVSBtmCcjZbSOD1Sz/PIMsOB1cyyEbnFtp16kZt9ti0YEym0ktm0rzy0ksvdZskCJGfeeUzn/nM3MDSvDqG+nqClslSy8/nPve57meRviaoVudh2vZtFtUywcyc0wqmLpL5ddttt01rwsrrn3jiiVFlvWU55ODhykh2JECAAAECBAYhkC8GbUrmu7+5BnFJ6QQBAgQIECBAgACBYxXYr4BYlgmSySA7Vu/BVp57jb145b5gb7vp/aOzH/7wuJ9vvvLy+HEevHYlYJZtUjLd4uXvf3/08ne+PTr/9z65UGZZmz2WbJxZWVAVGOkONuefRf8jv+h2cw63dS/HOplTbYlvApHJjuq7JPvs0Ucf7e7rNm9w4u67726rnfi4zaLKOU+wa5Fy3333de3Itstmfi1Sv20IECBAgAABAgR+LpAvSi07C8HP917vo0W+/LbeI6qNAAECBAgQIECAAIFtExjfg6wCZdvWAe3dDIFLjz02euGrfzxuzJlfuXl0/ZV7U/31n/3ZeF0evPjvnxm9/O1vd0Gx1/7iz8evvf1DHz4UWBu/0DxIMKbNHkuWUht8yevt8wR1ppU2eJapFs+ePTtt00Prs+0ulrjGe1r5xje+MUrwMkGxKjFOFl/OWXte6nVLAkMWSNC4Aseu/yGfaX0jcHwC6/4cye/qZGRX1nb+TsoXThb90snx9VTNBAgQIECAAAECBAgQIEDgdATGAbK9vb3RwcHB6bTCUbde4JUrWWBtufz/Xhzlp19e/PqT/VXd8xee/HdzA2T97LF+RlOCMTfffPPoC1/4QheQaYM17UHzzdYHHnhgvOpf/st/KYAz1ljtQQ2wZRnbCgwkSJYsrjawudoRNnOvXINtsHVeKzPFYk23OGvbbLPMfc5m1eW1kxXItV9Tjdb74JFHHvEZc7KnwdEIbLXAuj9HEhjL75Vpv68SKPNllq2+ZDaq8flSyKpB13zZrb1OV61no0A0hgABAgQIECBAgACBjRYYB8hkkG30edr4xp27MkXijx/9g9Ebzz+/dFvP/J0Pjd5+88+nZZxUQf7D3E7X0ga4sn0Fz/Kf6nw7+qtf/epoUrZXv55+Flodu5+NVustZwskqPOhK5mDCVZWcCADcwkYzJoOc3ato1Hu/Vb1zcoM7NfzsY99bFTbp10KgXUL5LrMNKO5zutn3cdQHwECwxaoz5F8luRvmHyWrKvkb6f276dJ9eZvp89+9rNdkMzvyklC1i0jkL8FV/2Sz4ULF8YBsnwJ6Z577lnm0LYlQIAAAQIECBAgQIDA0gL7uedY3X8sS4GypQ3tcEXgXb/+G93PX16ZQvH5xx8bXf6T78x1efut//Ho3Cf+/tzMsVSUgEuV/Ie5HcBJMKvNUErQa1JwrOqpQEvq6U8bmEGpDCRl+fDDDx86Th3fcrZAzk1c2yBmTBcJkCXrL9tm/5yfKovsW9u2y49//OOj/BxXaQN3045RA555PW1pr91p+yyyzbR9rT9ZgSeeeKLLzDjZozoaAQJDEjiuz5EE29rgWLJx8vu1fsfkuPn7KQGy/G2Uv7Vk1Q/pytquvuTv+VyzVe666656aEmAAAECBAgQIECAAIFjE9ivgJjpFY/NeKcqfuffvW2Un9eeuzT6k3/2Tyf2ff/d7x79R//8X4zeev31E1/vr8zgTk23kmyg/n+Yk53Uvj4tmJKATbtdv546bn1z++677+6CZNOCbbW95dUCOQcZ5CjLDLzl8aypchJIynSMKVlOCpS1R2qvi3b9so9vu+22Q8G4Zfafdq21dSS7sQZ8EiBb9VvVbZ0eEyBAgACBeQLtF1Xy++f+++8/tEt+H+V3YAJjFSQb8rTIhzrvycYJPPPMM+M25e9F9+8cc3hAgAABAgQIECBAgMAxCoynWGwzyY7xeKreEYGf/Lv/e2pPMw3j5e9/f6HMsQS/2m8/f+QjHxlPp5igy8WLF8dBrxww34yeFNCqewJVozJoNOk/3vkPeYIeFXR78MEHTe9SaEsuMxhXAbLsmkDRrABZvtGee6TUt9kzWJeBuuyXKXb65yt1t/Uv2bxDm7fZaode8ITAHIFJU0nlumyzXudU4WUCBHZcYNLnSLJp7rjjjpVlaurpVJAvF+X+rJNKfrfmb6JkRKfU79ZZv68n1WMdgaMK9GeDOGp99idAgAABAgQIECBAgMAiAuMpFmvjyiir55YElhVI9tjz//aPD+32ljNnRj+9fHm87gf/2/8yN4ssAbA2OJadMwXftJIgx6RARzKT2m9Rt9MLTaorryfjJwGaHO8oGUaT6t+VdRnwa91jOu9eEvVt9oceemh8rjNYl0HCnJcELycFQE/bNAOZ00qu4yp5PGvbbNcPBNa+lgQIECBAYFGBfrBh1u+WfEElX2rJ7+mUeV9o6TbyD4EFBSroOmvz/M2dn5QEdBfZZ1J9m/p34qS2WkeAAAECBAgQIECAwGYIjKdY3IzmaMUQBJ79wz84FAy79pf+9uiX/9v/bvT//Yt/Pkr2WEqWl/74sdEv3vHbU7ucQEgCJsnm6pe81gYeJk29mH0SjMhUiVUSQEugZVKpwEX+g56BojpusshM9TJJbPa6nKMMuiVAmVLBoVmDdNkuryeQlikwa9qnrE+wtAbx8rwtOccf+9jH2lUzH2can2SrraPkuln0W/4JGLZBw/7x0/dHHnmkv9pzAgQIECCwsEB+71awITstkg2WwEIFyLKc94WWhRtjw50XSLCr/4W3WSi5dpfZvq0r/2/YxC9StW30mAABAgQIECBAgACBzRIYT7FYmWOZalEhsKrA5T/7/ujFrz853j33G3v/f/NPuvuNfbALkt17JXj2Svf6T/7N46N3/fpvjK49d368ff9BfaM5UysmOJJAWJYpbVAiQa828JJgTHvz+ar37Nmz4/tcJbCRn5deeulQsK22rWXqmnZPjrxWAaDa/rSXMWotTrM9N9988yGfWC9a0odk8GWQJD85x7keJpUMhizT53bgcFJ91hEgQIAAgW0VSECiyqJf8MnfVvXlo/xtkzoWCazVcSwJECBAgAABAgQIECBAgMA2CnQBMvcf28ZTt5ltfvGZnw/KJDiWoFgFwLL84IV/OvrT//7ervEHV6ZcfPFKJs/5T3xyamcyONOfVjEDN3WvjOyYbz33p1a8cOHCxPtTVVbY1ANOeSEDRflGdT9AkyDcujKRphx66dVpzzLBoqUPsMQOCUi2JcHECnC262c9TmAs3wjelD7125oBxXYqq/7r7Tenc632r6F2e996bjU8JkCAAIFVBNoA2aK/c/P7J9vWvvl9LUC2ir59Zgnk7/X8TbfO4p6f69RUFwECBAgQIECAAIHdExhnkMkc272Tfxw9/sXf+gdXssXePnr2X/+r0U3/+J+Mg2N1rDM3vX/03t/5R6Mf/R9fHr3vd/+r0Tv/7m310sLLTHlYGUDJlmqnUKxKMqhTgzy1rl1mICjBmwRd8pPHWVePa9lOxZep8VKvIEYrOfvxolZ1rqYNxuV8bGpJH6e1O22uazWPk1E3a9tsoxAgQIAAgaMI1JTRqWOZ3zn9ANlR2mBfApME8nf7MtfkpDqsI0CAAAECBAgQIECAwDoFugBZpldMgOzNN98c1VSL6zyIunZLIBlhmTrxrddfP7Hjee2GK4Gxaa9P3OlvViYDrDLKEpiYlrlT9y5Ltk5NOZggWAZ/sl8/cJOstPyktK8nMJPjJYCT6QF9o/pvTsQaFxnIS9ZbAkkZNMm562cErvFwqiJAgACBRuCNN94Yvf76682a7Xh4zTXXjPb3x9/z2o5Gn1Ar2y9m9P/emdWE9sso9TfRrO29RuA4BNoAb3tNHsex1EmAAAECBAgQIECAAIH9ml5RYMzFsE6BecGvea9PakuCU8niqpIbyE/7j3PWf/WrX61Nu2XuY5aS1x555JHucf2TwFvdEDzBmnb6l0zx95WvfGV01113XXW8bNduW/VZLi4Q2xrMSyAyP3XPsU0OlGUAJxmG80plx2W79vGs/XzDepaO1wgQWKfApUuXRi+++OI6qzyRus6dOzfKj3K1QBvcyu+TRUsbTMvfXAqB0xDIlIn1d2G+CCfj7DTOgmMSIECAAAECBAgQ2B2B8VdvK4tsd7qup9skkGBEO5ViglbJDsv6DOIk8JD/TF+8eLHLRur/Z7r9Nuqy/U5d/fqWrWNXt68Bjur/pIG6usfYQw89NM4OzH733XffRgfK2uk3q3/zlslGrAzIWdvm2nbNzRLyGgECBAhMEjjK3zv9+4ZOqt86AgQIECBAgAABAgQIECAwJIH9NnOsfTykTurLdgtksKf9Nmm+4Zyg2G/+5m+Op0VcpoeTgjTL7G/bxQX6A3Xtt9PbWpLVl4zAZOn1A2XJJkuwaFq2YFvPUB67RodyJvWDwOYLXD9lOuRNb/nb3va2TW/iRrRvmd+d035Hb0RHNIIAAQIECBAgQIAA7ino+QAAQABJREFUAQIECByDQDfFYltvplxUCGyKQDLDMuVhm4mUqYO+9rWvXdXEDOzUPcb6L7b791/z/PgE+lM05fzMKm2gLBlkOf/JMFtmgK/qz3WSOtqppuq1frtq/TLL2267beo98Np60oeavvPOO+/sMh/b1+tx2lRTiBqkLBVLAgSOW+CGG24Y5UchQIAAAQIECBAgQIAAAQIECOyawKEMsl3rvP5uvkACYdOCW8myyX3FEnRJhtGs4EsbJFkl2LL5UpvXwgSGWvdlpgzMOcp9J1JH7ZcA0qxz3BeogGkFp/qv1/MEulYpaeMi11J7/d58883j/vSP2Vot089+PZ4TIECAAAECBAgQIECAAAECBAgQIECAwHyB7h5kyRqr6RVrOX9XWxA4foHci+nLX/5yd6AExPI8QYYENRYJTlQL24wh09eVyvEuv/KVrxw6QM7dsqWCYwmUXrhwoQua1bpF6pq0bQJnuc9Kgqu333771IDVIvWvc5sEA6ssc23XPpYECBAgQKAvkKmO/U7pq3hOgAABAgQIECBAgAABAgR+JtAFyAojgTJTLJaG5SYIJMCRKfYSyDjKAE8bIJOdc/xnNgNyjz766KEDfexjHzv0fNEnOXeZKjEl020+/PDDo0WnIMz18/TTTy96qFPdrqYNrcy3U22MgxMgQIDAVgos+vtxUufajOd8kUQhQIAAAQIECBAgQIAAAQJDFzgUIJM9NvTTvZ39S4DsqOXixYvjKo4SaBtX4sFMgQcffPDQ65/61KdWCnAm0Hb33XePp2pMPUcZ/DvUqFN8kmyxBPuqvPTSS+M+rpJpV/VYEiBAgMBuC+R3ZH5q2t78flm01D7Zfgi/axftt+0IECBAgAABAgQIECBAYHcF9tL1BMbqZ3cp9HybBTKok6kYP//5z3f3rWr7kgyk+lZ0pldcJYMs0wUmWKPMF3jggQdGlQ1VW9911131cOFlvHM+69xVNuHCFSyxYdp7kuc3fcmgZfqWnxqUzPW5itUSXbUpAQIECAxcoM3+ajPo53W7/T3oy0TztLx+EgKmRT8JZccgQIAAAQIECBAgsNsChzLI2nuR7TaL3m+DQLJw2p9qcwaDEoCoUvcwy/Pcd2qVkukCk/GTDKZ77rlnlSoGv08G1jIVYnsvrXQ6GWDLDrT1g2MZILn//vuPzTAB0ATJEjzNcZZt7yoNS2ZkBcayf46ZaSh9a38VTfsQIECAQAnkXq315ZI26FWvT1u2wbRVvkw0rV7rCSwqkL+L6trNPv4mWlTOdgQIECBAgAABAgQIrCqw3wbF3H9sVUb7nYRA/tOc4MsTTzzRBTPa4EJ7/HZ9Bobae2HlXmZHKf3gz1HqGsK+8X3mmWc640k2CQLdeeedS3V1UnDsi1/84rEOktQ1k8HBZaajWqpjvY2Xdent7ikBAgQIEJgokC8J5UsfKZN+N3cvTPhHgGwCilUnKpC/8askSCtAVhqWBAgQIECAAAECBAgcl8B+plaswJh7kB0Xs3pXFcjATvszrZ4MBuXeTQmA1X+mE/TIFH1Vsk2bWVbrF1lWAGVXp3rJOVgm+y7nYB3BsdST4NhxZ3S1g4LrPscZ4Kn76PlG/iLvNtsQIECAwFEE2t81+f2Wv2Hqb6Np9dZ29XpbR62zJHDcAvmbr8qqf7PX/pYECBAgQIAAAQIECBBYRGB/b29vdHBw0N2DLDtUsGyRnW1D4LgFMvVdmwHWHm9SUKxeTxbShQsXDk3TcpSpEWu6l3kDTHX8XV7mvMR62aBWP3MshrOmO2zPRfZdtST41wZA23on1Zntly1lkQHINhi3SD0nldG2SFtsQ4AAAQKbL5Dfw/ldlt9t+cnvnXnBhnY66tp/83uqhUMS+NKXvnTo7/bKtM+1+fDDD3dfNsq1WX9TDanv+kKAAAECBAgQIECAwOkJdBlkOXwCYwmUKQQ2SaD9BnMGe/I89wGbda+mBNUeeOCBcdAj/VnmPlgJgLRZRAmOVQClbc8mOZ1mW2KV+51k0KLN4FumTZOCYwmyzRrQa89RBk9yjtKOZUr2yaBLlUWy5BKwnRa0rXosCRAgQIDAaQokuJCAQ0qWbWZOv135Hfz000+PVx91OupxRR4QuCKQ66n+nmv/dmtxco3W9Zr1ybxPICzB3fxNn5L73Gb//K121113jQNljzzySPd6/hE8G1N4QIAAAQIECBAgQIDAggLjAFm2T5DMNIsLytnsRATyH+oExPKf6wSnZmX35H4b+c91P0MnwbH6Fuq0Rrf/oZ4VAKn/4E+rZ5PXzxocm9TudsBh0utZ17pN22be+gSpMhVmZell+wyM5LzPKplSs77xnjrq8ax95r2WAReFAAECBAhsu0D+7qkvj+SLP/n7qKb77fftoYceGv8OTgBi3u/f/v6eE5glkL8Vp/29mL/fcm22f8Pl77u6Vs+ePTu69957uwBv/k7MT/2dnuu0DZTNaoPXCBAgQIAAAQIECBAgME1gv14QGCsJy00SSFBs0akRs23+o10lgzz5T/UiQa1kpGX7NkhT9dQyg02L1FXbb9py2uDEtHYuu/20euatT9Azgxz1zeEMitTAyKx9cy6yXQZKZp23WXXUa2lD6lqkz7kOMnhzUiXX8FH7d1Jt3bXjJBjffuZU//tB+jyfdA7nBf2rPksCBIYrMO1zpP+ZseznSP1eq+yb9ndsaVZwos2KzpeKFAInIZAZH/LlrfZaz99X7d/9+bssP/miXH/7XLfJfMzfkHl9kb/hTqJfjkGAAAECBAgQIECAwHYJvOWpp566Ehv7adfqLPMf6ltvvXW7eqG1BP5GIN+Szr3HEsRYJMjSh8v+7X/U6/UEz7Y5OFb92ORlBvFqQG+ZdmaALwOH0wYZ59WVAZVZU3Zm/wws1uBiAlYZiDmpkoGfuiaT1WcAaLb8c889N8pPyo033ji64YYbZu9whFfbc7NKNc7nKmq7s8+PfvSj0Ysvvth1+KabbhqdOXNmdzp/yj2Ne/xTzp071/0cV5OSQZ2/PVYt8z5HMi1dGwDL3zP1e6T/ezN/N63yt9Oqbbff8Qu0nyPH/Ttxkd7kb7Zki036clP+dl8kQJu/x/r757rOtZvfywoBAgQIECBAgAABAgQWFXjhhRdGb3nyySd/Fh27slfuQfbOd75zdMsttyxah+0IECAweIHcn6WCVCed9dMOnArSzr/UBMjmG9liOwTagW0BspM9Z0MKkEUuX0Bpp7Dra9aXUxKgUIYl0H6OnFaALEGxJ554ogtq9YOy0a4ZAZb5Gyd/l2Vq0Db4m7oSKEuQ7SQz/XNchQABAgQIECBAgACB7RQYB8hy77EEx1LybXsBsu08oVpNgACBXRc4yQBZ3d9nVfMMRmdgWiEwSaAd2BYgmyR0fOtOMkCWaeMy2L9qWfRzpAIKFy9e7DKu89mT+zslkJA6Kqts1XbYbzMF2s+RkwqQVWZ/7g2cgFj7RZ9WaZXAWLt/Htd13Q+UJZPM/cn6Wp4TIECAAAECBAgQINAXGAfI8kKmV0ygLP9ZNsVin8pzAgQIENgGgZMMkG2DhzZur0A7sC1AdrLn8SQDZCfbM0fbNYH2c+QkAmQJjt1xxx0T788Z+wRmM011ArPLZIzNO2/9+5Nl+wR+F5mycV7dXidAgAABAgQIECBAYLgCCZDtV/cSHFMIECBAgAABAgQIECBAgMCyAgmA3X///aPcW69KpqZOMGzdQbGqP8sE3XI/2dyfLNndmWoxATKFAAECBAgQIECAAAEC8wTGAbJ5G3qdAAECBAgQIECAAAECBAhME0gw7N577+1mJcnjk5pKOMdJxtjNN988uu2220wbOu0EWU+AAAECBAgQIECAwCGBLkCW7LFMsZgfhQABAgQIECBAgAABAgQIrCKQjK7TKqd57NPqs+MSIECAAAECBAgQILC6wF52reBY3Yds9ersSYAAAQIECBAgQIAAAQIECBAgQIAAAQIECBAgQGCzBcYZZNVMWWQlYUmAAAECBAgQIECAAAECBAgQIECAAAECBAgQIDBEgb1Mr5giMDbE06tPBAgQIECAAAECBAgQIECAAAECBAgQIECAAAECfYHxFIv1QgXM6rklAQIECBAgQIAAAQIECBAgQIAAAQIECBAgQIAAgSEJdAGydKgCYzLJhnR69YUAAQIECBAgQIAAAQIECBAgQIAAAQIECBAgQKAvsFcBsSzzU4Gy/oaeEyBAgAABAgQIECBAgAABAgQIECBAgAABAgQIEBiCwDiDLJ1JcKwCZkPonD4QIECAAAECBAgQIECAAAECBAgQIECAAAECBAgQ6AscCpDlRRlkfSLPCRAgQIAAAQIECBAgQIAAAQIECBAgQIAAAQIEhiTQBcgqKFbTLA6pg/pCgAABAgQIECBAgAABAgQIECBAgAABAgQIECBAoBXYrycVJKvnlgQIECBAgAABAgQIECBAgAABAgQIECBAgAABAgSGKLDXBsaSQdY+H2KH9YkAAQIECBAgQIAAAQIECBAgQIAAAQIECBAgQGC3BfYTFKsiOFYSlgQIECBAgAABAgQIECBAgAABAgQIECBAgAABAkMV6O5BNtTO6RcBAgQIECBAgAABAgQIECBAgAABAgQIECBAgACBvsChAFmyydqMsv7GnhMgQIAAAQIECBAgQIAAAQIECBAgQIAAgf+fvfuJtfw67MN+584TpaFjAyKTICmlZBHZWdiUtGgZC10QkjcCJLRlGwUFUUgLL2IXQhEbMLpw4EWgZGMg2mghL7SwUAiobUCLWKhQIFKJAqaqLmqFK0vcuNJ0ZVI2kJAiOfOm93uH3zvn/ebe93847/3u5wDvnfM7f3/nc++7ou6Zc34ECBAgcN0FjiyQOWLxur+c7p8AAQIECBAgQIAAAQIECBAgQIAAAQIECBAgQOAkgc0CmcWxk6iUEyBAgAABAgQIECBAgAABAgQIECBAgAABAgQIzEFgvUBmcWwOL6U5ECBAgAABAgQIECBAgAABAgQIECBAgAABAgQInEZgs4PM88dOw6UOAQIECBAgQIAAAQIECBAgQIAAAQIECBAgQIDAdRdYL5BlcSzBTrLr/nK6fwIECBAgQIAAAQIECBwVWC43/y7yaIErAgQIECBAgAABAgQI7LHA5v8pdZFsjy1MnQABAgSuucD73ve+zQzeeuutTVqCwHUTGN+/vth+fK/ez372s8c3uJEJXFDgnXfe2fRw8+bNTVqCAAECBAgQIECAAAECBO4LbBbIgBAgQIAAgesucOvWrc0U/uZv/mYxLjJsCiQIXHGB1157bfPezaLv+9///it+x/O6vb/1t/7WZkL/6T/9p0V+BALXTeCnP/3p4s0331zfdj5Hxv99vG5zcb8ECBAgQIAAAQIECBB4VAIH7TjHK9pFVg0xAQIECFxHgXwJ+HM/93PrL7QPDw8Xf/mXf7m+9i/nr+OruZ/3nB0f/VI7Ak8//fR+QjzGWWfH3gc/+MFFFhgSbt++vV5cGHeoPsbbMzSBEwWmnyO/8Au/cGIbFQgQIECAAAECBAgQILCPApsFsn2cvDkTIECAwPwE/v7f//vrhbEeLWX3x/xe432ZUb7U9sX243m1szD5xhtvbHbyZdFyXLh8PHdlVAJnF8hniIX2s7tpQYAAAQIECBAgQIDAfghsjljMDjKBAAECBAhcd4Hs/viH//AfWli47i/kHt9/3sN/5+/8ncXf+3t/b48VHu/U8xp8+MMfXu8kS1ogcN0E8r7NwpjPkev2yrlfAgQIECBAgAABAgTeS4GDHq3Y4xUtlL2X/MYiQIAAgUchkC8G86Xg3/27f3ezA+RRjKNPApctkPeuZ45dtur5+strkYXK/Ng9dj5DrR6PQN67ORI0sUCAAAECBAgQIECAAAECuwUOujCWuOnd1ZUQIECAAIHrI5AvB2/dunV9btidEiBwJQV8jlzJl8VNESBAgAABAgQIECBAgACBCwks7Ri7kJ/GBAgQIECAAAECBAgQIECAAAECBAgQIECAAAEC10xgs4OsC2V2kV2zV9DtEiBAgAABAgQIECBAgAABAgQIECBAgAABAgQInElgczB9F8a6UHamXlQmQIAAAQIECBAgQIAAAQIECBAgQIAAAQIECBAgcE0ENgtkud8sjnWh7Jrcv9skQIAAAQIECBAgQIAAAQIECBAgQIAAAQIECBAgcCaBIwtkFsfOZKcyAQIECBAgQIAAAQIECBAgQIAAAQIECBAgQIDANRRYOlLxGr5qbpkAAQIECBAgQIAAAQIECBAgQIAAAQIECBAgQODcAsvuGnO84rkNNSRAgAABAgQIECBAgAABAgQIECBAgAABAgQIELhGAusjFrs4ZjfZNXrl3CoBAgQIECBAgAABAgQIECBAgAABAgQIECBAgMC5BNZHLGYXWRfJztWLRgQIECBAgAABAgQIECBAgAABAgQIECBAgAABAgSuicDmiMXer11klRATIECAAAECBAgQIECAAAECBAgQIECAAAECBAjMUWC9gywT67PIGs9xsuZEgAABAgQIECBAgAABAgQIECBAgAABAgQIECBAYLODbLlcP46MCAECBAgQIECAAAECBAgQIECAAAECBAgQIECAAIFZC6xXxXKs4uHh4fo5ZLOerckRIECAAAECBAgQIECAAAECBAgQIECAAAECBAjsvcB6gSzHKmYHmeMV9/79AIAAAQIECBAgQIAAAQIECBAgQIAAAQIECBAgMHuBzTPIuoMsu8kEAgQIECBAgAABAgQIECBAgAABAgQIECBAgAABAnMVWD+DLItifQaZXWRzfanNiwABAgQIECBAgAABAgQIECBAgAABAgQIECBAIAKbIxZzYfdYFAQCBAgQIECAAAECBAgQIECAAAECBAgQIECAAIE5Cxw5YjHHLAoECBAgQIAAAQIECBAgQIAAAQIECBAgQIAAAQIE5iywPmKxE7SDrBJiAgQIECBAgAABAgQIECBAgAABAgQIECBAgACBuQpsdpBlccwC2VxfZvMiQIAAAQIECBAgQIAAAQIECBAgQIAAAQIECBCowJEdZPfu3bNIVhkxAQIECBAgQIAAAQIECBAgQIAAAQIECBAgQIDALAWWmZWdY7N8bU2KAAECBAgQIECAAAECBAgQIECAAAECBAgQIEBgi8B6gSw7x/IjECBAgAABAgQIECBAgAABAgQIECBAgAABAgQIEJi7wHqBrJO0UFYJMQECBAgQIECAAAECBAgQIECAAAECBAgQIECAwFwFluPximN6rhM2LwIECBAgQIAAAQIECBAgQIAAAQIECBAgQIAAgf0WWGbXWBbGLI7t9xvB7AkQIECAAAECBAgQIECAAAECBAgQIECAAAEC+yLw0BGLFsr25aU3TwIECBAgQIAAAQIECBAgQIAAAQIECBAgQIDAfgqsF8i6iywESQsECBAgQIAAAQIECBAgQIAAAQIECBAgQIAAAQIE5iqw2UF2eHjomMW5vsrmRYAAAQIECBAgQIAAAQIECBAgQIAAAQIECBAgsBHYLJAlZ9xJtqkhQYAAAQIECBAgQIAAAQIECBAgQIAAAQIECBAgQGBGAgeZS587ltgRizN6dU2FAAECBAgQIECAAAECBAgQIECAAAECBAgQIEDgIYHNM8hSYnHsIR8ZBAgQIECAAAECBAgQIECAAAECBAgQIECAAAECMxM4csRi5tbdZDObp+kQIECAAAECBAgQIECAAAECBAgQIECAAAECBAgQWAsspwtidpF5ZxAgQIAAAQIECBAgQIAAAQIECBAgQIAAAQIECMxZYNkFscTTxbI5T9zcCBAgQIAAAQIECBAgQIAAAQIECBAgQIAAAQIE9lPgyA6yw8PD/VQwawIECBAgQIAAAQIECBAgQIAAAQIECBAgQIAAgb0R2Owgs3tsb15zEyVAgAABAgQIECBAgAABAgQIECBAgAABAgQI7LXAcpx9FskslI0i0gQIECBAgAABAgQIECBAgAABAgQIECBAgAABAnMTOLJAlsn1mWRzm6j5ECBAgAABAgQIECBAgAABAgQIECBAgAABAgQIEIjA+hlk3TVmccybggABAgQIECBAgAABAgQIECBAgAABAgQIECBAYO4Cm2eQdXGsi2Vzn7j5ESBAgAABAgQIECBAgAABAgQIECBAgAABAgQI7KfA+ojFLo6FYEzvJ4lZEyBAgAABAgQIECBAgAABAgQIECBAgAABAgQIzFlguQrr+WXnmN1jc36pzY0AAQIECBAgQIAAAQIECBAgQIAAAQIECBAgQCACy8PDw42EBbINhQQBAgQIECBAgAABAgQIECBAgAABAgQIECBAgMBMBZbjzjHHK870VTYtAgQIECBAgAABAgQIECBAgAABAgQIECBAgACBjcDBuCg2LpZtakgQIECAAAECBAgQIECAAAECBAgQIECAAAECBAgQmJHA/QeQvTuhHLc4LpjNaJ6mQoAAAQIECBAgQIAAAQIECBAgQIAAAQIECBAgQGAtsD5iMSnPH/OOIECAAAECBAgQIECAAAECBAgQIECAAAECBAgQ2AeB9Q6yLI5l95hAgAABAgQIECBAgAABAgQIECBAgAABAgQIECBAYO4CR55BNvfJmh8BAgQIECBAgAABAgQIECBAgAABAgQIECBAgACBgxL0iMXGzRcTIECAAAECBAgQIECAAAECBAgQIECAAAECBAgQmJPA+hlkWRS7d+/enOZlLgQIECBAgAABAgQIECBAgAABAgQIECBAgAABAgS2Cqx3kGVxbLlcP45sayWZBAgQIECAAAECBAgQIECAAAECBAgQIECAAAECBOYisHkGWRbJ7CKby8tqHgQIECBAgAABAgQIECBAgAABAgQIECBAgAABArsE1tvGxueOWSTbRSWfAAECBAgQIECAAAECBAgQIECAAAECBAgQIEBgDgLrZ5BZFJvDS2kOBAgQIECAAAECBAgQIECAAAECBAgQIECAAAECpxHw4LHTKKlDgAABAgQIECBAgAABAgQIECBAgAABAgQIECAwG4HluHtsTM9mhiZCgAABAgQIECBAgAABAgQIECBAgAABAgQIECBAYBBYH7HYZ5AlbnqoI0mAAAECBAgQIECAAAECBAgQIECAAAECBAgQIEBgNgIH3TU2jWczQxMhQIAAAQIECBAgQIAAAQIECBAgQIAAAQIECBAgMAh4BtmAIUmAAAECBAgQIECAAAECBAgQIECAAAECBAgQIDB/gYNOsUcrNm6+mAABAgQIECBAgAABAgQIECBAgAABAgQIECBAgMCcBJarsJ6PhbE5vazmQoAAAQIECBAgQIAAAQIECBAgQIAAAQIECBAgsEtgeXh4uMjiWJ5B1p9dleUTIECAAAECBAgQIECAAAECBAgQIECAAAECBAgQuO4C6+1jWRhrsJOsEmICBAgQIECAAAECBAgQIECAAAECBAgQIECAAIE5Ctw/X3GOMzMnAgQIECBAgAABAgQIECBAgAABAgQIECBAgAABAlsENgtk3Tk27ibbUl8WAQIECBAgQIAAAQIECBAgQIAAAQIECBAgQIAAgWstsBwXxpLu9bWelZsnQIAAAQIECBAgQIAAAQIECBAgQIAAAQIECBAgsENgmR1jXRSze2yHkmwCBAgQIECAAAECBAgQIECAAAECBAgQIECAAIHZCKyPWOzCWOPZzM5ECBAgQIAAAQIECBAgQIAAAQIECBAgQIAAAQIECEwENs8g6+JY40k9lwQIECBAgAABAgQIECBAgAABAgQIECBAgAABAgRmIbB5Bllm4xlks3hNTYIAAQIECBAgQIAAAQIECBAgQIAAAQIECBAgQOAYgc0zyLI4lt1jdpAdo6WIAAECBAgQIECAAAECBAgQIECAAAECBAgQIEDg2gsceQbZzZs3r/2ETIAAAQIECBAgQIAAAQIECBAgQIAAAQIECBAgQIDAcQLrBbLuHrt79+76mMXjGigjQIAAAQIECBAgQIAAAQIECBAgQIAAAQIECBAgcJ0FNjvIlsulxbHr/Eq6dwIECBAgQIAAAQIECBAgQIAAAQIECBAgQIAAgVMJrBfIUrPPHmt8qtYqESBAgAABAgQIECBAgAABAgQIECBAgAABAgQIELhmApsjFnPfOWoxPwIBAgQIECBAgAABAgQIECBAgAABAgQIECBAgACBuQpsjljsBO0gq4SYAAECBAgQIECAAAECBAgQIECAAAECBAgQIEBgjgKbIxYzuSyO2UE2x5fZnAgQIECAAAECBAgQIECAAAECBAgQIECAAAECBCpwZIGsmWICBAgQIECAAAECBAgQIECAAAECBAgQIECAAAECcxVYTp875ojFub7U5kWAAAECBAgQIECAAAECBAgQIECAAAECBAgQIBCBg+mCmCMWvTEIECBAgAABAgQIECBAgAABAgQIECBAgAABAgTmLLA+YnFcFJsumM158uZGgAABAgQIECBAgAABAgQIECBAgAABAgQIECCwfwJHnkE2PW5x/zjMmAABAgQIECBAgAABAgQIECBAgAABAgQIECBAYO4C62eQddfY4eHhoum5T9z8CBAgQIAAAQIECBAgQIAAAQIECBAgQIAAAQIE9lNg2QWxxuNxi/tJYtYECBAgQIAAAQIECBAgQIAAAQIECBAgQIAAAQJzFjjo5Low1oWy5osJECBAgAABAgQIECBAgAABAgQIECBAgAABAgQIzEngoAtjmVQWx8brOU3UXAgQIECAAAECBAgQIECAAAECBAgQIECAAAECBAhE4GC6Y2x6jYkAAQIECBAgQIAAAQIECBAgQIAAAQIECBAgQIDAnASW42Sye8wOslFEmgABAgQIECBAgAABAgQIECBAgAABAgQIECBAYG4CmyMWDw8P13Ozg2xuL7H5ECBAgAABAgQIECBAgAABAgQIECBAgAABAgQIjALLLogtl0c2k411pAkQIECAAAECBAgQIECAAAECBAgQIECAAAECBAjMRuAgM8kiWRfKZjMzEyFAgAABAgQIECBAgAABAgQIECBAgAABAgQIECCwRWCzbSzPHssimWeQbVGSRYAAAQIECBAgQIAAAQIECBAgQIAAAQIECBAgMBuBZRbExkUxO8lm89qaCAECBAgQIECAAAECBAgQIECAAAECBAgQIECAwBaBgy6IdffYuFi2pb4sAgQIECBAgAABAgQIECBAgAABAgQIECBAgAABAtdaYH3E4riLrAtm13pWbp4AAQIECBAgQIAAAQIECBAgQIAAAQIECBAgQIDADoHNM8hSbvfYDiXZBAgQIECAAAECBAgQIECAAAECBAgQIECAAAECsxHYLJBlcczusdm8riZCgAABAgQIECBAgAABAgQIECBAgAABAgQIECCwQ+BgXBizQLZDSTYBAgQIECBAgAABAgQIECBAgAABAgQIECBAgMBsBJbjothyuXTM4mxeWhMhQIAAAQIECBAgQIAAAQIECBAgQIAAAQIECBDYJnDkiMVtFeQRIECAAAECBAgQIECAAAECBAgQIECAAAECBAgQmJPAeoGsxyweHh56DtmcXl1zIUCAAAECBAgQIECAAAECBAgQIECAAAECBAgQeEhgvUDWYxZzxKJAgAABAgQIECBAgAABAgQIECBAgAABAgQIECBAYM4CR1bEsoNMIECAAAECBAgQIECAAAECBAgQIECAAAECBAgQIDBngSMLZHaQzfmlNjcCBAgQIECAAAECBAgQIECAAAECBAgQIECAAIEIrBfI8gyyhBy12PQ6wy8CBAgQIECAAAECBAgQIECAAAECBAgQIECAAAECMxNYL5D1GWSZ25ie2VxNhwABAgQIECBAgAABAgQIECBAgAABAgQIECBAgMBi2R1jiZvmQoAAAQIECBAgQIAAAQIECBAgQIAAAQIECBAgQGCuAkeeQXZ4eDjXeZoXAQIECBAgQIAAAQIECBAgQIAAAQIECBAgQIAAgbXAskcqev6YdwQBAgQIECBAgAABAgQIECBAgAABAgQIECBAgMA+CKx3kPVoxS6W7cPEzZEAAQIECBAgQIAAAQIECBAgQIAAAQIECBAgQGA/BQ4y7SyM5We5vH/i4t27d/dTw6wJECBAgAABAgQIECBAgAABAgQIECBAgAABAgRmLZBHjq0XyDrLZNy5c2fxH//jf2yWmAABAgQIECBAgAABAgQIECBAgAABAgQIECBAgMBsBN58883FkSMWe9TibGZoIgQIECBAgAABAgQIECBAgAABAgQIECBAgAABAgQGgayHbY5YbH6OWXziiSd6KSZAgAABAgQIECBAgAABAgQIECBAgAABAgQIECAwG4Gf/exnR49YzMyyQHbr1q3ZTNJECBAgQIAAAQIECBAgQIAAAQIECBAgQIAAAQIECFTgrbfeenDEYo9XbNxKYgIECBAgQIAAAQIECBAgQIAAAQIECBAgQIAAAQJzElhmQezevXtHfuY0QXMhQIAAAQIECBAgQIAAAQIECBAgQIAAAQIECBAgMAosszjWYPdYJcQECBAgQIAAAQIECBAgQIAAAQIECBAgQIAAAQJzFViOE8timUWyUUSaAAECBAgQIECAAAECBAgQIECAAAECBAgQIEBgbgIHnVAXxsYdZS0TEyBAgAABAgQIECBAgAABAgQIECBAgAABAgQIEJiLwPoZZHOZjHkQIECAAAECBAgQIECAAAECBAgQIECAAAECBAgQOEngyDPIUrk7yU5qqJwAAQIECBAgQIAAAQIECBAgQIAAAQIECBAgQIDAdRTYPIPM0YrX8eVzzwQIECBAgAABAgQIECBAgAABAgQIECBAgAABAmcV2CyQtaGFskqICRAgQIAAAQIECBAgQIAAAQIECBAgQIAAAQIE5ihwZIEsi2OOWJzjy2xOBAgQIECAAAECBAgQIECAAAECBAgQIECAAAECFThoIgtj+bGDrCJiAgQIECBAgAABAgQIECBAgAABAgQIECBAgACBOQoc2UF2eHhoB9kcX2VzIkCAAAECBAgQIECAAAECBAgQIECAAAECBAgQ2AgsV2FzYQfZhkKCAAECBAgQIECAAAECBAgQIECAAAECBAgQIEBgpgLL7BpLcLTiTF9h0yJAgAABAgQIECBAgAABAgQIECBAgAABAgQIEDgisMyusYRxJ9mRGi4IECBAgAABAgQIECBAgAABAgQIECBAgAABAgQIzEhgc76iHWQzelVNhQABAgQIECBAgAABAgQIECBAgAABAgQIECBAYKfAsgtjiZveWVsBAQIECBAgQIAAAQIECBAgQIAAAQIECBAgQIAAgWsusDlisfPokYu9FhMgQIAAAQIECBAgQIAAAQIECBAgQIAAAQIECBCYk8BBd411YazXc5qkuRAgQIAAAQIECBAgQIAAAQIECBAgQIAAAQIECBCowPoZZBbHyiEmQIAAAQIECBAgQIAAAQIECBAgQIAAAQIECBCYu8D6iMU+f6wLZXOftPkRIECAAAECBAgQIECAAAECBAgQIECAAAECBAjsr8ByeqSiRbL9fTOYOQECBAgQIECAAAECBAgQIECAAAECBAgQIEBgHwQ2Ryx2YWy6YLYPCOZIgAABAgQIECBAgAABAgQIECBAgAABAgQIECCwPwLrBbJxUawLZftDYKYECBAgQIAAAQIECBAgQIAAAQIECBAgQIAAAQL7JLDZQdZJj4tlzRMTIECAAAECBAgQIECAAAECBAgQIECAAAECBAgQmIuAHWRzeSXNgwABAgQIECBAgAABAgQIECBAgAABAgQIECBA4FQCdpCdikklAgQIECBAgAABAgQIECBAgAABAgQIECBAgACBuQhsdpDlaMX8eAbZXF5a8yBAgAABAgQIECBAgAABAgQIECBAgAABAgQIENgmsF4ga4HFsUqICRAgQIAAAQIECBAgQIAAAQIECBAgQIAAAQIE5iqwWSCzODbXl9i8CBAgQIAAAQIECBAgQIAAAQIECBAgQIAAAQIERoHNAlkys0iWYxYFAgQIECBAgAABAgQIECBAgAABAgQIECBAgAABAnMVOLJAdnh4ONd5mhcBAgQIECBAgAABAgQIECBAgAABAgQIECBAgACBtcByPFpxuVyud5GxIUCAAAECBAgQIECAAAECBAgQIECAAAECBAgQIDBXgSM7yHK8oiMW5/pSmxcBAgQIECBAgAABAgQIECBAgAABAgQIECBAgEAElhbEvBEIECBAgAABAgQIECBAgAABAgQIECBAgAABAgT2SWCzgywLZTlucTxycZ8gzJUAAQIECBAgQIAAAQIECBAgQIAAAQIECBAgQGA/BI48g8xusv140c2SAAECBAgQIECAAAECBAgQIECAAAECBAgQILDPApsdZEHI7jGLZPv8djB3AgQIECBAgAABAgQIECBAgAABAgQIECBAgMD8BY4skPWYxflP2wwJECBAgAABAgQIECBAgAABAgQIECBAgAABAgT2VWBpUWxfX3rzJkCAAAECBAgQIECAAAECBAgQIECAAAECBAjsp8CRHWT7SWDWBAgQIECAAAECBAgQIECAAAECBAgQIECAAAEC+yRwkMl2F1ni/AgECBAgQIAAAQIECBAgQIAAAQKXL/DGm/cWb65+BAIErq7ArVs3Fk+ufvY9+Lza93eA+V8HAZ9XF3uV1gtk6aKLYzdu+PC/GKnWBAgQIECAAAECBAgQIECAAIEHAj989e7iB6/k53Dx2usWxx7ISBG4ugLPPHNj8eFnlovPfvpg8fRT+3MIl8+rq/uedGcEdgn08+pTzx+sP7d21ZP/sMCNl19+ef1fZl0g+/mf//nFs88++3BNOQQIECBAgAABAgQIECBAgAABAqcWeO31w8UffuOdxY9ePTx1GxUJELh6Ar/63M3ZL5T5vLp67zt3ROA8AvvweXUel21t/vqv/3px0CMVu0C2raI8AgQIECBAgAABAgQIECBAgACB0wv8+St3Fl//xp2HjlN8+qkbi6dWPwIBAldX4Ce3jx6F+r3v398B+vkXDxYff3ZzINfVncAZ7yy7xr76tXce+rw6YzeqEyBwBQTm/nl12cQ3/uzP/my9gyxHK969e3fxC7/wC3aQXbay/ggQIECAAAECBAgQIECAAIG9EXj5+1kce2cz3zwf5Neev7nIv+rep6PaNgASBK6hQHZUfeelO4uXv394ZOHo8y++b/GJ5+azSJbF/D9YLY4JBAjMT2Bun1eX/QplB9lyfObYmL7swfRHgAABAgQIECBAgAABAgQIEJi7QL5U/+Nv3tlMM88F+d3feWLxmU+/z+LYRkWCwNUXyGL25154Yv33m7/jhvx9//j2PI5NzedVdroKBAjMUyD/WGcun1eP6hVajkcsPqpB9EuAAAECBAgQIECAAAECBAgQ2AeBL3/l7c1uk3yp/ttffL+FsX144c1xtgJZKMvfcRfJ3nzz3moRfB47rsbPq9m+gCZGYM8F/uBrb++5wPHTP7KD7PiqSgkQIECAAAECBAgQIECAAAECBHYJ5GjF115fP8litSh2Y/Gbv/7E4snV8YoCAQLXWyB/x/cXu+//Pf/o1cPV0YvXe+fV+Hl1vV8dd0+AwHEC+e+S6/55ddz8Llq22UF20Y60J0CAAAECBAgQIECAAAECBAjss8DL37+7mf5nPn1g59hGQ4LA9RfIIln+rhvGv/fmXaf4ut//dbJ2rwQet4C/992vwHJ3kRICBAgQIECAAAECBAgQIECAAIHTCLyxOnYtu0oSsnvsE889+CL9NO3VIUDg6gvk7/rWu7tC8/eev/vrGMbPq+t4/+6ZAIGzCVznz6uzzfTstTdHLOZZZH0e2dm70YIAAQIECBAgQIAAAQIECBAgsL8CP7l9f3EsAh9aPXtMIEBgngIff/bBfoMfvfpg1+h1mu34eXWd7tu9EiBwfoHr+nl1/hmfruWDT/RV/Rs3/Afc6djUIkCAAAECBAgQIECAAAECBAg8EOizx5Lz4WeOfN3yoJIUAQLXXiA7RBveeLOp6xWPn1fX687dLQEC5xV4/d1npJ63/VzbbXaQLZf3/+PNItlcX2rzIkCAAAECBAgQIECAAAECBAgQIECAAAECBPZN4Lou6D/q12l5eHi43jnmeMVHTa1/AgQIECBAgAABAgQIECBAgAABAgQIECBAgACBqyCw3jY2Lo6N6atwg+6BAAECBAgQIECAAAECBAgQIECAAAECBAgQIECAwGUKHKQzxypeJqm+CBAgQIAAAQIECBAgQIAAAQIECBAgQIAAAQIErrLAeoGsu8YaX+Ubdm8ECBAgQIAAAQIECBAgQIAAAQIECBAgQIAAAQIELiKwPmIxHWRxLDvJ7Ca7CKe2BAgQIECAAAECBAgQIECAAAECBAgQIECAAAECV11gvUDWRTE7yK76y+X+CBAgQIAAAQIECBAgQIAAAQIECBAgQIAAAQIELiqw2UHWRbKLdqg9AQIECBAgQIAAAQIECBAgQIAAAQIECBAgQIAAgasssF4g6/GKdpBd5ZfKvREgQIAAAQIECBAgQIAAAQIECBAgQIAAAQIECFyGwLI7xw4PDz1/7DJE9UGAAAECBAgQIECAAAECBAgQIECAAAECBAgQIHClBZbdPdaFMrvIrvTr5eYIECBAgAABAgQIECBAgAABAgQIECBAgAABAgQuKPDQEYtdKLtgv5oTIECAAAECBAgQIECAAAECBAgQIECAAAECBAgQuJICmyMWc3cWx67ka+SmCBAgQIAAAQIECBAgQIAAAQIECBAgQIAAAQIELlFgfcTi2J8jFkcNaQIECBAgQIAAAQIECBAgQIAAAQIECBAgQIAAgbkJbHaQHR4erneQ2UU2t5fYfAgQIECAAAECBAgQIECAAAECBAgQIECAAAECBEaBg+4Yy8JY02MFaQIECBAgQIAAAQIECBAgQIAAAQIEHo/AG2/eW3z3pTvrwZ+8tVh88vn3PZ4bMSoBAo9V4GPPLhdvvLlY/OjVw8d6Hx38s58+aHLx8vfvLl57/d7mWoLAdRF48C6+LnfsPgkQIECAAAECBAgQIECAAAECBAhcYYF/+5W3Fk8/dWORL5Cffmp5oTt9c7VA9qffvr9Alj6PWyD74at3F7/0kZsXGk9jAgSupsDnX3xi8eStG6tFsnuLf/mv3lrks+Fxhs98+sFi/V+sFu0skD3OV8PY5xV4aIHMLrLzUmpHgAABAgQIECBAgAABAgQIECCw7wJ/+u131js8frSC+N5qV8VnVotknx2+SB59/vyVO4vvvHR39aX3YvEbv/7+sejM6ddeP1x8+StvrxfmfvW5m4tPPX+w/jL9zB1pQIDAhQWeeebGuf/+fnL73kOLX/mbzuJYwg9euftQ+YVvWAcE9lTgoQWyPXUwbQIECBAgQIAAAQIECBAgQIAAgSss8Jv/YnW22CWFX/zIcvHbX7zYgtSuW8kur/x0N8W3Vru/slD2W1984shusuwC+ZNv3tnU++5L7xy7O2zXeM3PEWcJGTfj7VqUa30xAQKPTuA3f/3o3/tZRsoO1B+9enR32HicYY5YzGfMNHxgtdB+e7W4JhAgcHqBIwtky+VykWeRCQQIECBAgAABAgQIECBAgAABAgQInF3gE88dLD727M3Ft1Y7ybI7LCGLVjkSbdxNlt0g//SFg8UffO2ddZ1/9+27i3+yattdIuvMU/7K7rEsijVkHIEAgXkIZEF/PKo1Ry3uCi9//87qs+fBwvuuevIJELgvcOR/LXO8oiMWvTUIECBAgAABAgQIECBAgAABAgSumsC4Y6K7s3KPY/62e95WN0caPsqQRa7PvfDEaqHs7uLr33hns0ssX1z/3GrsPkfs488eLH7xI3fXRzLmeUJ//M13Fl845svvXfecZ5R1nvkyPYt0AgECj0/gOy/deWix+5PDsadZQN8VXl8tqI/hCy8+eNbXmL8tnb/9H+Z5YMOC+bZ6yctnZ3a2Xkb4jdWOufM+E+0/rI6M/KPVblqBwOMQWP+vZXaNdXHMDrLH8TIYkwABAgQIECBAgAABAgQIECBA4DiBL/3eBzbF//Jf/WyzIDQ9unBT6d1Ej2bMl8Hp44ev3l+0Sh9nDW+sTnl86qnF4r9cPQ+oi1zH9fFLH7m5+gL6xnrh6wev3D8W7aOr3WVjyJff2V2WkF1gn3ju7iLtThumu8fO8mX6acdQjwCBswl092hb3Votmn/m3WcR5njVLGqfJuTZY909Nv1bb/ssivczY1ed1p3G7Xuaf9br/KOA8+x+zTgfuHV41uHUJ3BpAgddHGtsB9ml2eqIAAECBAgQIECAAAECBAgQIEDgCgp0t9V5bu327cXiL1Y7ND75/Ola5wvo3/j196+PXHzmmTyfbHmkYa4/9fzNzXGM+eL8t794+gWy7DprSD/T/lsmJkDg8Ql8aPW33/CT26dfEBqfPZbPhvEo1fb3pd978DzF0y68ta2YwL4LHHRBLHEWyewg2/e3hPkTIECAAAECBAgQIECAAAECBAgcJ/DhZ44uch1Xt2XdPdLrMU5Zd5z8aLX49uPVF+inGSPPG8rOtITskDtujHE8aQIE3luB8VjX26dcIMviWBe8d+0MO80Os9PMNP13J+tp6l+0Tubm8+qiitpfhsDmQOIulF1Gp/ogQIAAAQIECBAgQIAAAQIECBAgcBUFchTZ7/7O+1fP/bq7+H9v31sdTXa6Z3Z99WtvbRajxt0glzHHHE32sWeX6/5zXNr4Zfpx/edZRVkYy464z6y+cD7vEWfHjaGMAIGLC/zj1d91Q3agnhTyOTAuIH35K28/1CTHNo47zLbVeaiRDAIEjghsFsiWy+Xi8PDkP84jrV0QIECAAAECBAgQIECAAAECBAgQuGYC2aH1R9+8/wygN1fPA/rEc5uvyHbOJM8fa8gX05cdPrvaRfap57Ngd/rjFfMFen7yXLWztLvse9cfAQLHCzwz7Dr9q9WC9nEhi97jswSzUzQh+WP4teFI1V11Uj+fXfmcEwgQeFhg87/+dpA9jCOHAAECBAgQIECAAAECBAgQIEDgagv84TcePIPrtHeaXWMNP1ntIjtNyNGHDbsWo95YfQl93l1cHxq+QO84p4133c9p26tHgMCjFejfaD4jbh/zmZPF99/49Sc2RyvmrrKAf9Ii/nF1vvXtdxaeTfZoX1+9X1+BgzxzrM8fS2yh7Pq+mO6cAAECBAgQIECAAAECBAgQILBvAuPC1Wnnnuf69GjCHE+Y5+/0WT/b+sgOrYZdxyvmi+9/8/tvravluMOTvtBOxfR7lmPRcq+/+S+GrWy9qSHOM4m+8OITQ44kAQKPUyDHJTaMnyXNG+PPv3iwuMhi+djXedPTnWrn7WdbO7vZtqnIe5wCB10Qc7zi43wZjE2AAAECBAgQIECAAAECBAgQIPBeCmQX2cvfv7/w9cPV7rBPPPfgS+zpfdxeHcnYsOvL669/4+31s8BS7+urXW3f+vadxT9f7QT58AV2hnVMMQEC11fgw888OBrxpAX97Gj9+LNH55oF/O+9+1nVkqdWxy12Ef7PX7nz0K60Z1ZjfvzZzeFxbXaq+Eu/94FT1TtPpRwFmc9HgcBVEdj8lYw7ya7KzbkPAgQIECBAgAABAgQIECBAgAABAscJfOn33n/s7q9dO67ypfXL73Z8f4Fs9yh/ceR4xe0LaZ974X2LW7fubL7Izm6v7Cj71Oo5QXlO2ElHL+ZotSdv7b6H40rsyjhORxmBxyvwsWcfPFfwzdUG0HFH2fTOsrCez44s4HcBLNfTIxLTR8v/wyuHm8X+9pedpNOFtpY1Ps2O1Na97Djzmc7pssfQH4HTCGyOWGzl7ijrtZgAAQIECBAgQIAAAQIECBAgQIDA3AQ+uvrS+o++eWc9rR+svmA+Lvzw1QfPKRufXza2yRGNOdrwE8/dXe+QyJfPCd956e4i/f/WF48+V2hsm3SObvztL75/mn2q67Me1XiqTlUiQODCAln47vPH0tnnjzn+NDvF/uW/emu9yJ6dZl0Au/BNnLGDk46BbHfZTduF/x+vdtm+uTpm9qTwk2E37kl1lRN4LwQ2Ryy+F4MZgwABAgQIECBAgAABAgQIECBAgMBVEBifQ5YvdvOl8PhFdu8x+f3iN4tYxz2rLG3Sx5d+7+bqiMV3Njskslj21a+9vfjd33l0R5f1fsUECFwdgY89u33H6dW5w4fv5LTPRczu3S6Q/fE331mcdHzkwyPJIfD4BTZHLHbnWI5aFAgQIECAAAECBAgQIECAAAECBAjMXSBfXmeHV0K+3N22QNbnlKXOrt1jKZuGHKuY5wD9yWqXWo5A/I3V88gEAgT2S+ATq6MOG95YLcR/96X7u1abl/iTzx9sFprG/KazC+3p1TPHxjAex3prdTTrceVjO2kCBI4KrBfIPH/sKIorAgQIECBAgAABAgQIECBAgACB+Qvk2UBdIPv3q4WyLGpNw7grYnyW0LTetuuPP3uw+PDqGLIcP3bSzrNt7eURIHB9BbJoNS66Zyfqtudu5Xlh3Ym1bbb5DPnS7+3effq5F55YfO6FbS3lESBwksBmB5mdYydRKSdAgAABAgQIECBAgAABAgQIELhqAj945e7i1q3jnyG2657z5XV2Z+SL623HLL78/TuLPkts+mX3rj6n+fePcjz5mLWf3L63+LdfeWva/FTX2ZkiECBwtQQ+8+nNV+9X68ZOuJss2GV37U9XR8P+xWpn7UnPaDyhO8UErrTA+q80xytmgezu3buLHrV4pe/azREgQIAAAQIECBAgQIAAAQIECBBYCfzx6gjDi4Rfe/7mZlfHd1bHn407PsbjFcej0i4y3q62WaD70asWunb5yCdwnQTuL6ifvDB+mjn9ZLUD9Y9Wz/gaw4dXx7dm51jCd196Z/H/vHL0Hwn8448st+6IHfvYlf74anHsY6vdrwlvvPmOBbJdUPJnIXDQ4xUtjM3i9TQJAgQIECBAgAABAgQIECBAgACBMwh8dHXMYo89++FqgSq7sXLcWY5FHI9XzK6KRxmyk218rtBZxsozzrLAJhAgcDUEsvB+Wceq5jNp/Cy6P8MHi28/Xu0+nZZPn0l2FpWnnhr7PrrwdpZ+1CVwHQQ2+zy7i+w63LR7JECAAAECBAgQIECAAAECBAgQIBCBz71wsD4mcZfG179xdOfFtF6e7/OLq90W+YI5i0zfXe0iy7PIspusIYtjF/myO19wf291XOOnnn/4GWcd40OrHSG//cX39/JM8Q9fvbv48lfePlMblQkQeDQCWZz65PC3/trr1+sZhPlMbPir1TGLpwnZYZtda6cN2Z3b42tP20Y9Ao9C4GDcOTamH8Vg+iRAgAABAgQIECBAgAABAgQIECBwmQIfW+0AO27x6qQFstzLZ1fPCuoC079/6e7qeLGbqwWtu5vbvOjxinlOWo6C/OFqEe5zL7zv2PvdDCpBgMC1FMjusYY8xzALZk8/1Zyzx+/lQlL+sUBDFvZvr3annSZ84rnNPpzTVF8/2+y9nNepbkqlvRRY5ojF6c9eSpg0AQIECBAgQIAAAQIECBAgQIDAXgrkuWPPrHZwJWQX2b/+/bc2DvnCeHwu2abgDIlvffv+brQfrJ4TlOMQBQIE5ivw776d3VH3jybs3/5ZZ3vr1llbXE79PNusIc8+EwjMXeDIDrK5T9b8CBAgQIAAAQIECBAgQIAAAQIECGwT+LXnDxbbdpt94cXdxyJu62ealx0k3SmRxbbx+LJpXdcECFx/gSyy/+HqaNdfWv2992//rLPKMwkbsjvruB1an3/xicXnX2zti8XZPXue8KfffudMc339lEc3nudetCFwFoH13sfsIOvxio3P0om6BAgQIIggB9oAADQmSURBVECAAAECBAgQIECAAAECBK6zQL6AznNx8iyyhos+eyz9jDtIjjuq8Sero8z+7Vce7FzrPZwmzlFoAgECV0cgnyPjZ8lZ7+zJx7CDLIty427ZpPt8xpPuP8fHXmS+J/WvnMCjEjhyOGiPWnxUg+mXAAECBAgQIECAAAECBAgQIECAwKMUyGJRdm3keLCL7lL426tnB10kjLvH8hyi43aBZNfJj1610HURb20JzEVg3Gn649VnWT4fzhKy2DX2cZq2H3v2wfPHWn98PmPzxATmJHBkgczusTm9tOZCgAABAgQIECBAgAABAgQIEJi/wHdeurN+rle+RH799fvPEDvPrHNE2HQHxJ+unh320dWRY2f9ornjj7vHPvPpI1/Dtcomzhfa5901kueanfUL9M3AEgQIXDmB7Nxq+IOvvX2m4wvTLrtfv7A6evEsYdsO1+wi+9TzNxffeenuWbpSl8C1EVj/L3MWxvpzbe7cjRIgQIAAAQIECBAgQIAAAQIECOyFwHdeemeRI7xyDOF0MegyvrjN4ti4mJXFqi445cvp3/riE4unn3rwhfVp0M+yeyz9feiZG4vf/uL7T9P1Q3V++OrdxZe/8vZD+TIIELg6Avlc+fyWZxomfxo+9Mz9z5vXXj888+LYtK/TXGeH63i84h9+4+3NAtvnXnhi8Rev/mxxe/X5KxCYm8CRf7oyPotsbhM1HwIECBAgQIAAAQIECBAgQIAAgespkIWxH7zy4Nlgu2aRL5qfemqx3vH1D1YLTh9YXX/9G+/sqr7Oz0LWuDj2zKrdP3vhfZsFpxzXmMWnsy6SjX2etHvs2BtUSIDALASeXH0eHXfMaieZ3WOpm5B/GPBehPEzKgvu31s9j/EfPPPO4pPPv289fBbvv7r6xwLTXbbvxb0Zg8CjFDgYF8WSFggQIECAAAECBAgQIECAAAECBAhcJYEPrxatXh5uaLoQ9sHV7occg7htl9dxC2TTnWPZRfGbv35/t9jnXjhY/PE376xHPesiWfpNm4STnj22ruQXAQIE3hUYjzp8LxbIsiA3LtzlaNmEP1p9/j2z+lzNzrIs2GWR7Furz7aWv3u7IgLXWuAgRyt2YcwzyK71a+nmCRAgQIAAAQIECBAgQIAAAQKzFMhzwLIbLItgT60Wsbq74ryTfePNe+svesfjGbOQNe4S+9Rq58Sbq2d79cvgLpL989UC2nHPJMuRaNl90TDuzGiemACB/RPIZ8NJR6GOC+r5nDrNztmLSOYfG3xhOPYxO2rHXWJf/do7i9/9nRubf3zwmU+/b/18s3wubjsa8iL3oi2BxyFwsFwuF4eHh+tnkOUGulj2OG7GmAQIECBAgAABAgQIECBAgAABAgSmAtkZ9onnzvYMsGkfvc7xYdlV1h1eyZ8ujrVuvgxOGBfJ/s3vv7XIotdn3y1r3cap277HL7tbLiZAYH8F+tmwS2B8RtkPXrm7eRbirvoXzf/8iwebxa/0NR4Nm+s8i/Ff//7bq2enHSw+/uz9pzXl8/gLLz6R4k34x6tdaFnQe/31+202BRIErrjAegdZ7jELY1koEwgQIECAAAECBAgQIECAAAECBAjMUWDb8WA5Xuw3VrvCdu1Kmy6SxSVfImeXWL7MzvFjDY9699j9HSUPdqd13J/c9p1eLcQErqvArz5388hRh9PFql3zyk6uJ28tVgtUDxan/vZqR+xJ4bOrhf4ueqXueDTs2DaLZH+w2kn2q88drv5hwNEFtdbL52Q/K5OXz6q0O23IwmF2q52lzWn7Vo/AcQKbBbJUyiKZYxaP41JGgAABAgQIECBAgAABAgQIECBwXQU+tjqq8d+/9GBXxj9bPWfsk6ujFE8K+eL3mdVz0P5k9Uye7gD5wOoL6Q+tjnwcQ3Z8NDyK3WNZxHt5tTA3HoHW8Rr/0mrBTyBA4OoI9G82i0a7Qj5fPvfCg8+iXYtV29pnd+3nXji6o2ust23cLO6Pzx3781fuPLR7bOwj6fyjgHz25B8V7Fooa5t8Vu36RwetM8Y/fPWOxbERRPo9E7i/L3I1nIWx98zcQAQIECBAgAABAgQIECBAgAABAo9BIAtan/30zcWfrb7o/WerL6PH3V8n3U52WuTZYzlCMV8S/+aWXWd5bln6/OrX3l4fw3hSn+cpz1FmuxbI8sV1FgEFAgSujsD4TMJdd3X79r3Fd166sz66NTtCT7t7LP29/P3D1QLZ9p6zq3Xbc8yyaJfF9ByXmPG+/o072zuY5OYfCLy2aps55R8B5DPnH6wW955ZfTbmOv2dJ+R+BAKPQ+Cgu8YaP46bMCYBAgQIECBAgAABAgQIECBAgACBRyGQY8sScgRZQhax8nOe0Gfv5EvnXV8EZxHut774xM7ycdx8odz7O82RaGk7LoBlTh9Y7dRI6Jfd6wu/CBC4dgJZFMtur//wytmOTM2xhC9//856gaqTzkJWFr6yeLbt2MIssn/5K28v/ulqF20Wx7bVaV+74s1i2aRCj3ycZB972Z25x1ZSSOARCBw5YjG7yLJQJhAgQIAAAQIECBAgQIAAAQIECBCYg8AXXtx99Nh557drcaz9nVQ+1jvr/WUBbnq0Y/sTEyBwvQW+uzoC9jzh699458zNsiiVZ4tddshi25ur56EJBK6DwHrPY3ePWRy7Di+ZeyRAgAABAgQIECBAgAABAgQIECBAgAABAgQIELiIwHqBrM8f60LZRTrUlgABAgQIECBAgAABAgQIECBAgAABAgQIECBAgMBVFtg8Nc/usav8Mrk3AgQIECBAgAABAgQIECBAgAABAgQIECBAgACByxLYLJBdVof6IUCAAAECBAgQIECAAAECBAgQIECAAAECBAgQIHCVBTbPIMtN9qjFq3zD7o0AAQIECBAgQIAAAQIECBAgQIAAAQIECBAgQIDARQQ2zyDL4lh+HLV4EU5tCRAgQIAAAQIECBAgQIAAAQIECBAgQIAAAQIErrrAQW5wXBSzi+yqv2TujwABAgQIECBAgAABAgQIECBAgAABAgQIECBA4CICyy6OWRi7CKO2BAgQIECAAAECBAgQIECAAAECBAgQIECAAAEC10Vgc8Rib7gLZr0WEyBAgAABAgQIECBAgAABAgQIECBAgAABAgQIEJiTwHqBLBPqwpidZHN6ec2FAAECBAgQIECAAAECBAgQIECAAAECBAgQIEBgKrDsgljjLpRNK7omQIAAAQIECBAgQIAAAQIECBAgQIAAAQIECBAgMAeBzQ6yOUzGHAgQIECAAAECBAgQIECAAAECBAgQIECAAAECBAicJHDQCnaOVUJMgAABAgQIECBAgAABAgQIECBAgAABAgQIECAwZ4FlFsa6ONZjFuc8YXMjQIAAAQIECBAgQIAAAQIECBAgQIAAAQIECBDYb4EjRyx2oWy/ScyeAAECBAgQIECAAAECBAgQIECAAAECBAgQIEBgzgLrHWSdYHaQWSSrhpgAAQIECBAgQIAAAQIECBAgQIAAAQIECBAgQGCOAsvxWEWLY3N8ic2JAAECBAgQIECAAAECBAgQIECAAAECBAgQ2FeBJ2/t68yPn/f6iMUukmWBrOnjmyklQIAAAQIECBAgQIAAAQIECBCowK0PNLVY/NXr9x5cSBEgMCuBH98+3Mzn6Q9uktcq8fRTN67V/bpZAgQuLvCUv/utiEeeQXZ4+OADfmttmQQIECBAgAABAgQIECBAgAABAg8J/OJHHnzF8oNXfL/yEJAMAjMR+MntBwvgH3rmwd/9dZredb3v62TsXglcNQF/99tfkSOf4o5Y3I4klwABAgQIECBAgAABAgQIECBwnMCTt24sPvKP7u/KePPNe4uXv3/nuOrKCBC4hgL5u37t3R2i+Xu/tfq7v44hn1fjov51nIN7JkDg9AIfeubG4umnjiwFnb7xzGtunkFmcWzmr7TpESBAgAABAgQIECBAgAABAo9U4J/85w++fPrWt+8s3lgtlAkECMxD4LXXDxf5u24Y/96bd53iz3764DrdrnslQOACAp963t/7Lr5lFsYsju3ikU+AAAECBAgQIECAAAECBAgQOJ3Ar/4Xy80usuwy+erX3j5dQ7UIELjyAn/8zXc2u8ee+uCNRf7er3P4pY/ctIvsOr+A7p3AKQXyzMFPPGeBbBfXQ5/kFst2UcknQIAAAQIECBAgQIAAAQIECBwv8N/91zc3x6796NXDxZd+/2erL9U9k+x4NaUErq5A/n7zdzw+W/B/+h9vXt0bPsOdfeHF920+r87QTFUCBK6RwG998YlrdLfv/a1uFsju3bPt/73nNyIBAgQIECBAgAABAgQIECAwB4H+g+MP/Wc3Fv/tf7X5umVx+/a9xZe/8vbij775toWyObzQ5rA3Ajki9U+//c7iX//+2+u/4078f/jvby6eXu0gm0PIM4k+94KdJXN4Lc2BwDaBz68WwT17bJvMg7yD/AecxbEHIFIECBAgQIAAAQIECBAgQIAAgYsI5Oi1J2/dW/wv/+u9xZurL9lz3OJ3X7q7/nnmmRursnl8uX4RI20JXGWB11d/s/m7HcMHPnBj8U//m+VifPZYF8bHetctnaPXbt1aLP7km3cemvN1m4v7JUDgvsCt1X9nZPHb0YonvyMOLI6djKQGAQIECBAgQIAAAQIECBAgQOAkgfEfIX/0V24u/udn7i3+t//9cPF//d8PjljMjrLF4ugX7yf1q5wAgccr8JF/dGMx3Tk2h8Wxqn782YPFh59ZrnbM3Vl87/t3my0mQOAaCvziR5aLHJ9q59jpXrwb3/ve91ZrZPc2u8h+/ud/fvErv/Irp2utFgECBAgQIECAAAECBAgQIECAwFog36/cvfvwl8s/+f/uLf6P//Nw8aNX7y1e/6nFMW8XAtdB4KkPLhYffXa5+Ogv31j84j96cGxq7/3mzZuLOS2SdV555loWyn58+/DI0ZItFxMgcPUEnn7qxuJjq8+rjz17c/FLH5nHMxLfC+W/+Zu/WWwWyDpgFsh++Zd/uZdiAgQIECBAgAABAgQIECBAgACBUwpkgey403re+NlifeziKbtTjQCBxyCQ48me/MDugZfL5SI/cw95DluOiRUIELi6AuvPK0c3n+sF+uu//uvF5imM4zEA5+pNIwIECBAgQIAAAQIECBAgQIDAngtkV8lxi2T50v3J1bOMBAIErqdAvkPdh8WxvDp5XqJnJl7P96m7JkDgZIH153m3AvdfN/X65OZqECBAgAABAgQIECBAgAABAgQITAXmevTadJ6uCeybQL43zd+3QIAAAQLzEFhmYayLYkl3oWwe0zMLAgQIECBAgAABAgQIECBAgMB7L2CR7L03NyKBRylgcexR6uqbAAECj0dgmQ/3cVGsi2WP53aMSoAAAQIECBAgQIAAAQIECBCYh0AWyXIUm+9a5vF6msV+CuTvN3/Hdo7t5+tv1gQIzFvgoDvIukjWeN7TNjsCBAgQIECAAAECBAgQIECAwKMX6LOK8n3L4eHhox/QCAQIXJqABe5Lo9QRAQIErqTAwXhX+RcR/lXTKCJNgAABAgQIECBAgAABAgQIELi4QL5vsQPl4o56IECAAAECBAhclsBy7Cj/sWYH2SgiTYAAAQIECBAgQIAAAQIECBAgQIAAAQIECBAgMDeBIwtkWRyzg2xuL7H5ECBAgAABAgQIECBAgAABAgQIECBAgAABAgQIjAJLC2IjhzQBAgQIECBAgAABAgQIECBAgAABAgQIECBAgMDcBTY7yCyUzf2lNj8CBAgQIECAAAECBAgQIECAAAECBAgQIECAAIEILMdjFS2SeVMQIECAAAECBAgQIECAAAECBAgQIECAAAECBAjMXWC5CosskiWMi2Vzn7j5ESBAgAABAgQIECBAgAABAgQIECBAgAABAgQI7KfAegfZfk7drAkQIECAAAECBAgQIECAAAECBAgQIECAAAECBPZRYPMMskzeEYv7+BYwZwIECBAgQIAAAQIECBAgQIAAAQIECBAgQIDAfgmsF8iyMDYetbhfBGZLgAABAgQIECBAgAABAgQIECBAgAABAgQIECCwTwIH3TV2eHhoB9k+vfLmSoAAAQIECBAgQIAAAQIECBAgQIAAAQIECBDYU4HNM8iyg0wgQIAAAQIECBAgQIAAAQIECBAgQIAAAQIECBAgMHeB5c2bNxf37t1b2EE295fa/AgQIECAAAECBAgQIECAAAECBAgQIECAAAECBCKw7MKYHWTeEAQIECBAgAABAgQIECBAgAABAgQIECBAgAABAvsgsD5XMTvIBAIECBAgQIAAAQIECBAgQIAAAQIECBAgQIAAAQL7ILDaOHb/2WNZJLNQtg8vuTkSIECAAAECBAgQIECAAAECBAgQIECAAAECBPZbYJlFsRs3bqwVGu83idkTIECAAAECBAgQIECAAAECBAgQIECAAAECBAjMWeAgkxsXxsb0nCdubgQIECBAgAABAgQIECBAgAABAgQIECBAgAABAvspsHkGmeMV9/MNYNYECBAgQIAAAQIECBAgQIAAAQIECBAgQIAAgX0SyGax9QJZnkPWZ5HZQbZPbwFzJUCAAAECBAgQIECAAAECBAgQIECAAAECBAjsn8AyC2LdPWZxbP/eAGZMgAABAgQIECBAgAABAgQIECBAgAABAgQIENg3gfUOsi6MdaFs3xDMlwABAgQIECBAgAABAgQIECBAgAABAgQIECBAYH8EVicrrtfI9mfGZkqAAAECBAgQIECAAAECBAgQIECAAAECBAgQILDXAgfZNdYdZI33WsTkCRAgQIAAAQIECBAgQIAAAQIECBAgQIAAAQIEZi1wZPvYuFg261mbHAECBAgQIECAAAECBAgQIECAAAECBAgQIECAwN4KLLNrLAtjOWqx6b3VMHECBAgQIECAAAECBAgQIECAAAECBAgQIECAAIHZCyyzOJZweHg4+8maIAECBAgQIECAAAECBAgQIECAAAECBAgQIECAAIH1EYvjs8fGNB4CBAgQIECAAAECBAgQIECAAAECBAgQIECAAAECcxNYL5DleMUEi2Nze3nNhwABAgQIECBAgAABAgQIECBAgAABAgQIECBAYCqwXhnL8YoWx6Y0rgkQIECAAAECBAgQIECAAAECBAgQIECAAAECBOYosNo8tjyyOGahbI4vszkRIECAAAECBAgQIECAAAECBAgQIECAAAECBAhEIGthSwti3gwECBAgQIAAAQIECBAgQIAAAQIECBAgQIAAAQL7JHBw7969zQ4yi2X79NKbKwECBAgQIECAAAECBAgQIECAAAECBAgQIEBgPwWO7CDLs8gEAgQIECBAgAABAgQIECBAgAABAgQIECBAgAABAnMWWO8gywS7e6zxnCdtbgQIECBAgAABAgQIECBAgAABAgQIECBAgAABAvsrsBynbnFs1JAmQIAAAQIECBAgQIAAAQIECBAgQIAAAQIECBCYo8CRBbI5TtCcCBAgQIAAAQIECBAgQIAAAQIECBAgQIAAAQIECIwCB+OuMc8gG2mkCRAgQIAAAQIECBAgQIAAAQIECBAgQIAAAQIE5iiwvHfv3npeicfFsjlO1pwIECBAgAABAgQIECBAgAABAgQIECBAgAABAgQILLMo1kUyHAQIECBAgAABAgQIECBAgAABAgQIECBAgAABAgTmLrA+YnFcIHvjjTcWf/mXf7mZ91i2yXw30bLGLR+vk+4i3Jie1h3bpGx63frT+Lh628q25U37zHXqdUfdrjZjfuu2r7GseSfF45gn1d1Vfhl9jH1fZn/n7Wtbu+Y17j1Pr5t/nvgy+zrL+B238VnaXnbd89zD2GZMX/TeLrOvi97Lo2h/GfO7jD7GuV1mf+fta1u75jXuPU+vm3+e+DL7Osv4HbfxWdpedt3z3MPYZkxf9N4us6+L3sujaH8Z87uMPsa5XWZ/5+1rW7vmNe49T6+bf574Mvs6y/gdt/FZ2l523fPcw9hmTF/03i6zr4vey6Nofxnzu4w+xrldZn/n7Wtbu+Y17j1Pr5t/nvgy+zrL+B238VnaXnbd89zD2GZMX/TeLrOvi97Lo2h/GfO7jD7GuV1mf+fta1u75jXuPU+vm3+e+DL7Osv4HbfxWdpedt3z3MPYZkxf9N4us6+L3sujaH8Z87uMPsa5XWZ/5+1rW7vmNe49T6+bf574Mvs6y/gdt/FZ2l523fPcw9hmTF/03i6zr4vey6Nofxnz29VH12Cm6xRnmcdxfbQs/XWMxtvGOK5srN9+x/pNj3HnnXi5XI5dbNJj/WT2elNhSKTs7t27i4N02JDMXP/0pz9dx2NZ6uR6/En98bllY/0x3f6neWNf7b/3MK2bcVqWeFp/23Xrp2x6ny1rnDoJvc74TU/z1xWHX603jad9DE02ydZpRvvodeJapCw/41xaL/ljaD9j/80b603T41hj26Tzxmv5WJY+tvU95rX+mDe2S/6213h6f+N1+xzzxvR0rJbtyk/5cWUZbzRof2Pc9o1Tljb5Y0tefhI61/XF6td0Lm2feKw71mu68bSv5G+732mfbdd7S7v8JCRvzG/d9r3r3lIvddp2et38jtN+k78tr+N03NRPXufXNm2fuGO0buIxr32175YnPz/TvjpG6o1hrDe2S7r3N9Yf063fvPbV68QdN2X5yf1OQ/LH0H7G/ps31pumx7HGtkmPcxnL0se2vse81h/zxnbJ7+vQutN7m16fVG86Vtvvyh/vp3XHOOONBmNZ0+27cfLTxt//0c+D+CTEdAyjW/OTN7434pmQvL4e7aftE+enoX8zY15fz/adum2fsqYTN93+xrhl07j9997GNk13nF63j14nbvuU5adzGeskfwztZ+y/eWO9aXoca2ybdK3TZizL9ba+x7zWH/PGdsnv69C6KT8unFRvOlb72pWf8uPKMt5o0P7GuO0bpyxt/P0ffc/EJyGmYxjdmp+88b0Rz4Tk9fVoP22fOD8N/ZsZ8/p6tu/UbfuUNZ246fY3xi2bxu2/9za2abrj9Lp99Dpx26csP53LWCf5Y2g/Y//NG+tN0+NYY9uka502Y1mut/U95rX+mDe2S35fh9ZN+XHhpHrTsdrXrvyUH1eW8UaD9jfGbd84ZWnj7//oeyY+CTEdw+jW/OSN7414JiSvr0f7afvE+Wno38yY19ezfadu26es6cRNt78xbtk0bv+9t7FN0x2n1+2j14nbPmX56VzGOskfQ/sZ+2/eWG+aHsca2yZd67QZy3K9re8xr/XHvLFd8vs6tG7Kjwsn1ZuO1b525af8uLKMNxq0vzFu+8YpSxt//0ffM/FJiOkYRrfmJ298b8QzIXl9PdpP2yfOT0P/Zsa8vp7tO3XbPmVNJ266/Y1xy6Zx+++9jW2a7ji9bh+9Ttz2KctP5zLWSf4Y2s/Yf/PGetP0ONbYNulap81YluttfY95rT/mje2S39ehdVN+XDip3nSs9rUrP+XHlWW80aD9jXHbN05Z2vj7P/qeiU9CTMcwujU/eeN7I54Jyevr0X7aPnF+Gvo3M+b19Wzfqdv2KWs6cdPtb4xbNo3bf+9tbNN0x+l1++h14rZPWX46l7FO8sfQ67H/5LWv1G2dsV3Lt5XVeuyn6ZaN/Y55zW/9jtnr1J2+Dm3TOPeWer1eJ1a/0sc0r9edT69Tt/eVdH/WHax+ta9cp956B1ky09HYWSo0P+kxtNPUb4dJd+Dmb+sv/RSi9ZI3psf+W3bz5s2H7q9liRM6fuPk9R6m95my5KW89ad12yZ1E6bXyWubpBuSN9adpjv/1k95fsY3fq7bd+Y+thn7ax+Jm592bdu5pWzss+3GvLYf+2p5y6Zx6o5j9T7He2ib1m2fvW7cemPcvtumZWmT0Pwxva1O8qa+6w6GXx1ryFonO0YtW57r9jmO2fpj3vT927Jpn23bMRInr/ltty0vdXtPrZe8hrbJPfc91fE798at2+v0kbxep13zmj+dY8vXFd/91bq5TF+5nqbb9/heat5Yd8xLP7ke+0xeX5+WrQd791fzGres9zTGY781SHnTbZt4rDvmp35+Oq+WjfljXvvua5V6CY1bt3Hz065tO7eO0fyxTfPaPmVNJ075eD2WJ932GatzS17z27Z122evG7feGI99JN2ytEkY+2p6W53k9b3QdusOhl8da8haJ9tvLVve+eZ6HLP1x7zp30bLpn22bcdo381vu8TTvNTtPbXetn7i0PdUx+/cG4/9t4+O13ESj/Wmc2x54oaxj/H1HNO5p4TxvdS85LfumJd+O5ekExL3NW/ZuuDdX81r3LKxffJy3TFznXRC89cXw6+x7pC9seq8WpZ+8tN7Tf7Yd1+r5LVsnZj8annG7z12bikb+2zTMa/txzFa3rJpnLrjWJ3beA9t07rts9eNW2+M23fbtCxtEpo/prfVSd7Ud93B8KtjDVnrZMeoZctz3T7HMVt/zJv+bbRs2mfbdozEyWt+223LS93eU+slr6Ftcs99T3X8zr1x6/Y6fSSv12nXvOZP59jydcV3f7VuLtNXrqfp9j2+l5o31h3z0k+uxz6T19enZevB3v3VvMYt6z2N8dhvDVLedNsmHuuO+amfn86rZWP+mNe++1qlXkLj1m3c/LRr286tYzR/bNO8tk9Z04lTPl6P5Um3fcbq3JLX/LZt3fbZ68atN8ZjH0m3LG0Sxr6a3lYneX0vtN26g+FXxxqy1sn2W8uWd765Hsds/TFv+rfRsmmfbdsx2nfz2y7xNC91e0+tt62fOPQ91fE798Zj/+2j43WcxGO96Rxbnrhh7GN8Pcd07ilhfC81L/mtO+al384l6YTEfc1bti5491fzGrdsbJ+8XHfMXCed0Pz1xfBrrDtkb6w6r5aln/z0XpM/9t3XKnktWycmv1qe8XuPnVvKxj7bdMxr+3GMlrdsGqfuOFbnNt5D27Ru++x149Yb4/bdNi1Lm4Tmj+ltdZI39V13MPzqWEPWOtkxatnyXLfPcczWH/Omfxstm/bZth0jcfKa33bb8lK399R6yWtom9xz31Mdv3Nv3Lq9Th/J63XaNa/50zm2fF3x3V+tm8v0letpun2P76XmjXXHvPST67HP5PX1adl6sHd/Na9xy3pPYzz2W4OUN922ice6Y37q56fzatmYP+a1775WqZfQuHUbNz/t2rZz6xjNH9s0r+1T1nTilI/XY3nSbZ+xOrfkNb9tW7d99rpx643x2EfSLUubhLGvprfVSV7fC2237mD41bGGrHWy/day5Z1vrscxW3/Mm/5ttGzaZ9t2jPbd/LZLPM1L3d5T623rJw59T3X8zr3x2H/76HgdJ/FYbzrHliduGPsYX88xnXtKGN9LzUt+64556bdzSTohcV/zlq0L3v3VvMYtG9snL9cdM9dJJzR/fTH8GusO2Rurzqtl6Sc/vdfkj333tUpey9aJya+WJ7v30LmlrH2O9bblpf1YJ9cJ47zv59z/3brjWKm7rX7vq2VjnH7aV3oe0+P1mD+m79/NUbu2G+v1HpI35rd943W9H/zgB6v4wQs+vkipmLL+pLOm20nqJy84Y9vkNYzpMW/MT3rsfyxLm+n1NG8sbz+NU9by5DU0r9cp60p/8xKP9dpny7eVHVen7XofMWs6ZdO2zUu8a6yUJYzluU5f+Rlfl+QnNL9v6vu5R8dPnYT023SvEyevZY3H8qR3hfaXduN7Z0yn7XSMaX8tn+aPbad9pqx5jXsfiY8L4zxbb5xL89pvrxNvazuWJ32a+Yz9jGOPbZtOnJ++B5JOmM5zV/668ru/xjpjOsXb5pv8sV7S03FTp+Gk8rFe0rv6aj+N2y5x8hKmbZOfn9FpWifttvWZ/ISWNb6fu/136iT4+/f3P75DjnvvtCzvy75/Gjev79nWTZyf8X2d8VqvY4/9NG8aj3XGdOr5+/f3P31PTN8/4/VYd3zvjOnUT73pe3vaz/S93PK2nfaZ8uY1Th9J7+qrffZeep14nEvz22+vE29rO5Yn3Xue5o9lYz/j2GPbphPnx9//fdFYJExf521O0zppl3rb8sey4+qkXkLvw//++9//+++I+7+Pe++0zN//9r/hOtapcfMTJy9h+jec/PyMn5PTOmm3rc/kJ7Ss8f3c7b9TJ8Hfv7//8R1y3HunZf7+t/8N17FOjZufOHkJ07/t5OfH3/+D/74ZrZoe7ZLX92LjsTzpXaH9pd3438pjOm2nY0z7a/k0f2w77TNlzWvc+0h8XBjn2XrjXJrXfnudeFvbsTzp08xn7Gcce2zbdOL8jO/rjDOdZ+psy19nvvtrrDOmU7xtvskf6yU9HTd1Gk4qH+slvauv9tO47RInL2HaNvn5GZ2mddJuW5/JT2hZ4/u523+nTsKj+N//jp+46fEump+x87ptm2fqp15CylOvofXbtmO0fuslPi6v7freyfWYHttP++nYjafl43Xr9L46Tq7H8dom8SadBbI2zMQ7+TGv6fHN03TbjO3SefPbNtfNH/OSHuumTvse641t21fbtqz5iRumfbes47TtWD/p5Ce0fa/bbl24+tX81kt+81pnHDN5vW75GLf/sY/UH69bv/kty/XYd/J7PX2TpI+UNX+s2/4bt4+OM23betM49fNatl36STo/Tac895AwrZu88Q2c621hHKf9TuuNY3Y+Y52xjzG/6bSpVfPaZ68TN2/bfZzUR8vrMM69/Y3xOO449pjf+mPerntM3YbUGUOue19tP5aP42wrT93mt27jsZ9xnOan3jb7lLePxAlpnzDmT8tS3ntp3DotS5zQ/PY71k+6+ak3rZv2rZ90wvT6fu6D3ymvc3PTb8dpXuLmt2y8h5SPY0392r75Y92UjWHbvJLXtmPdMZ0+x7mM99t0ytNPwrRu8lI25idvGsZx2u+2Oi1LPA1jH9OyXKfNdL7bzJrXsca+Tuqj5Z3vOPf2N8Zj30l37DG/9ce81puW5bohdcaQ695X24/lY1/bylO3+a3beOxnHKf5qbfNPuXtI3FC2ieM+dOylPdeGrdOyxInNL/9jvWTbn7qTeumfesnnTC9vp/74HfK69zc9Ntxmpe4+S0b7yHl41hTv7Zv/lg3ZWPYNq/kte1Yd0ynz3Eu4/02nfL0kzCtm7yUjfnJm4ZxnPa7rU7LEk/D2Me0LNdpM53vNrPmdayxr5P6aHnnO869/Y3x2HfSHXvMb/0xr/WmZbluSJ0x5Lr31fZj+djXtvLUbX7rNh77Gcdpfupts095+0ickPYJY/60LOW9l8at07LECc1vv2P9pJufetO6ad/6SSdMr+/nPvid8jo3N/12nOYlbn7LxntI+TjW1K/tmz/WTdkYts0reW071h3T6XOcy3i/Tac8/SRM6yYvZWN+8qZhHKf9bqvTssTTMPYxLct12kznu82seR1r7OukPlre+Y5zb39jPPaddMce81t/zGu9aVmuG1JnDLnufbX9WD72ta08dZvfuo3HfsZxmp962+xT3j4SJ6R9wpg/LUt576Vx67QscULz2+9YP+nmp960btq3ftIJ0+v7uQ9+p7zOzU2/Had5iZvfsvEeUj6ONfVr++aPdVM2hm3zSl7bjnXHdPoc5zLeb9MpTz8J07rJS9mYn7xpGMdpv9vqtCzxNIx9TMtynTbT+W4za17HGvs6qY+Wd77j3NvfGI99J92xx/zWH/Nab1qW64bUGUOue19tP5aPfW0rT93mt27jsZ9xnOan3jb7lLePxAlpnzDmT8tS3ntp3DotS5zQ/PY71k+6+ak3rZv2rZ90wvT6fu6D3ymvc3PTb8dpXuLmt2y8h5SPY0392r75Y92UjWHbvJLXtmPdMZ0+x7mM99t0ytNPwrRu8lI25idvGsZx2u+2Oi1LPA1jH9OyXKfNdL7bzJrXsca+Tuqj5Z3vOPf2N8Zj30l37DG/9ce81puW5bohdcaQ695X24/lY1/bylO3+a3beOxnHKf5qbfNPuXtI3FC2ieM+dOylPdeGrdOyxInNL/9jvWTbn7qTeumfesnnTC9vp/74HfK69zc9Ntxmpe4+S3r+M0f6079Wta2vZ7GY19j3eS3zzF/mu49td+U56ftM9f0kzCONdYf020/zds1zlgv6V333Htq/4kTbrzyyiv3+oIkXmcOL1IG7o2nvNdjvaSb34GaN8ZJN+yq17FSr/c1plOe0Hh9Mfk1LZte72rfeuO9teuW9bpx6tatedvi9jntJ/kJzd92PZYl3Todp3nNr1uuW9Yx2leuU56f3n/bt91Yt/XHvNZrWa9bZ9pfrntvqdM3a9rnuvXHdMsSN3Scadz+mj/eR/IyduuMY7Re+h/Lc512Da3X/ls29tW6iVs/6fQ7nfv0OvWnffW6cfvt2NPr1BvH6r2O+WnT9i1vP4lrkHRD66WfhuY1Tn7SCWO9dcbq11hvvMfUHcvGPqbpse5xZR2zc2m75I/31j7G/OTtqp96Y5uk+zqOfSSd0Lrtcxx7LG9+64/X03TrrAdY/Up58prf+8l1y1I36faV67ZJ/V43ntYd89eVV7/af8t63TFy3bLk5br3luu+NqnT8mm614kbOs40bn/NH++jY7fOdLz2PZYnL+0axv6m7cd60/q5Tr/TuU+v0+fYb9r1uvGYl3TCtGwca7Roftr0flvefhLXIOmG1stYDc1rnPykE8Z664zVr7Fe76V5jVN37GOa7lwbp37TY5z8hM6lZclLuqH9j/m9l5aN9VOv+U33dRz7SDqhddvnrr6a3/rj9TTdOvdHeDD/5vd+Ombz00/76r2lLPV73Xhad8xfV179av8t63XH6LjNT9x7S52+Nmmf69Yf0y1L3DD217pjfy1PXkKu85OxO2bbpbz1kh7Lc512Da3X/ls29tW6iVs/6fQ7nfv0OvWnffW6cfvt2NPr1BvH6r2O+WnT9i1vP4lrkHRD66WfhuY1Tn7SCWO9dcbq11hvvMfUHcvGPqbpse5xZR2zc2m75I/31j7G/OTtqp96Y5uk+zqOfSSd0Lrtcxx7LG9+64/X03TrrAdY/Up58prf+8l1y1I36faV67ZJ/V43ntYd89eVV7/af8t63TFy3bLk5br3luu+NqnT8mm614kbOs40bn/NH++jY7fOdLz2PZYnL+0axv6m7cd60/q5Tr/TuU+v0+fYb9r1uvGYl3TCtGwca7Roftr0flvefhLXIOmG1stYDc1rnPykE8Z664zVr7Fe76V5jVN37GOa7lwbp37TY5z8hM6lZclLuqH9j/m9l5aN9VOv+U33dRz7SDqhddvnrr6a3/rj9TTdOvdHeDD/5vd+Ombz00/76r2lLPV73Xhad8xfV179av8t63XH6LjNT9x7S52+Nmmf69Yf0y1L3DD217pjfy1PXkKu85OxO2bbpbz1kh7Lc512Da3X/ls29tW6iVs/6fQ7nfv0OvWnffW6cfvt2NPr1BvH6r2O+WnT9i1vP4lrkHRD66WfhuY1Tn7SCWO9dcbq11hvvMfUHcvGPqbpse5xZR2zc2m75I/31j7G/OTtqp96Y5uk+zqOfSSd0Lrtcxx7LG9+64/X03TrrAdY/Up58prf+8l1y1I36faV67ZJ/V43ntYd89eVV7/af8t63TFy3bLk5br3luu+NqnT8mm614kbOs40bn/NH++jY7fOdLz2PZYnL+0axv6m7cd60/q5Tr/TuU+v0+fYb9r1uvGYl3TCtGwca7Roftr0flvefhLXIOmG1stYDc1rnPykE8Z664zVr7Fe76V5jVN37GOa7lwbp37TY5z8hM6lZclLuqH9j/m9l5aN9VOv+U33dRz7SDqhddvnrr6a3/rj9TTdOvdHeDD/5vd+OvdtYyev9cf+xz7H+2/+GLd98jJWQvtaX6x+dZzkJz3Gvb+x7rZ08trPWN72Y78pb37Hal5cclxlQ9o1NN15bPKzQJaLNB4n187HvMInTkhZftJp81pnbNc6rd+2605Wv3JzaZfyTnZMt17btf54Pa3T9q0zxklPx9lW3jm1buPW7byT39BxE7fe2K71tsW76jW/fbdt83t9Unza+qmX0PE6l/bffho3v3Hq902avG397Wo7zZ9ed4xtcesmTuh9Nz95TTdO3q7QOo131duW/1616djbxuvrkDpJt07j5CedUKv1xbu/pmXT67bra53y/v2P/SQ9tk16HG+83pVuH+M8OsauNslPOKlN+xnrbutzzEvdXnecsX3n17FTdlJof9N6zZ/21fxp/V3Xp62fegkdr3Npv+2ncfMbp37fE8nb1t+uttP86XXH2Ba3buKE3nfzk9d04+TtCq3TeFe9bfnvVZuOvW28vg6pk3TrNE5+0gm1Wl+8+2taNr1uu77WKff3/8C5PnUbbbelU2/X65D8voZtu6t+y6fxaev3fjve9J7aT+PpOKnf90TKtvW3q+00f3o9HWu8bt3ECb3v5iev6cbJ2xVap/Guetvy36s2HXvbeH0dUifp1mmc/KQTarW+ePfXtOz/b+8OdhvZYSCK/v9fP1w7B+YQUhK8RVatRZMsVpEypR5PEGBmx3TOuvzz/n/mbD7mNmd78uPdziHcGdLe+PLb/pZvv/rtPanD7j7x3Ylyp3o37cZ3vHvNGDfbsm94GJ8Nuy0c9sY74X+l0fvUzznEycdhw/NbZvUKvh47t2M6Z13+ef8/czYfc5uzPfnxbucQ7gxpb3z5bX/Lt1/99p7UYXef+O5EuVO9m3bjO969Zoybbdk3PIzPht0WDnvjnfC/0uh96ucc4uTjsOH5LbN6BV+PndsxnbMu/7z/nzmbj7nN2Z78eLdzCHeGtDe+/La/5duvfntP6rC7T3x3otyp3k278R3vXjPGzbbsGx7GZ8NuC4e98U74X2n0PvVzDnHycdjw/JZZvYKvx87tmM5Zl3/e/8+czcfc5mxPfrzbOYQ7Q9obX37auPjTTg5fvjh/L/nO/afz3jXUU+NWe/JmjY3Tw3Fnfbmsu7r3Pjn/+P2CzPA1E0fMtxrGjOXxszaAl8WrDpw/c7DNqWb/N9ht4VfLgU0sX8zuWnMfN85vcJ9f/amZ+9v9iq2ZC5Pz2XZ+6vLrOTnTx2XVtk/a8nTszJUvnheNP3lp27e50GR/WvrOXnRsnMmLu2N9pgb2nY2v/nezv/U71Y6rlnyzcb/NqVz9zRSX3T3xph6Xnb23HofV28zCp19crxb8pClfrxZevv5sWAtnanw22Jv5eaYpt2vFoFGXSkyDJ59Vd2LTP+XVm7zp00weDG/mwuzNvdn5qctXL9u68eWyuLRy4iy/XKt4ng1/8ur9vP/vefU0j6zV3J73/z2N7k7LfPYde7P+fbpvaegxZh1YFo8Gb3NOOI6+4qx6E5s+zeTB8GYuzB6e9//z76XP8zvNS95MszDznLmT71zifzf73f9UCzZrwZ73//N3wX1Gxb5Xbuc2z4nebGk2LnZ2eHRZdSc2/VNevcmbPs3kwfBmLszevruDk6deFs5/AeOhtjzt1NnPzJUvnmfDn7y0z/f/Z+DmYe5lnvf/ef/nfcjvHbLknvf/+f6fd2LeEX/2ZieOn+0e/XSH8Kuxa+265Vvwk6a8+4sHK953HWdqfDZY+rnU2bXi0KhLJ6bBk8+qO7Hpn/LqTd70aSYPhjdzYfb209nhqZel57+A8ZiaYNp8+2BnDneeDX/y0j7f/03rvcwjazW35+f/9zTcU/Mpdq9g5sa6b+Xp5Wg2LqbBo8uqO7Hpn/LqTd70aSYPhjdzYfb2f9//5lePvaq7e829yLFzL2rNnD5qZGHZ1sSKpz7fypeDVwOGl9UDb3Jg8fLF09+5Yus/cnkJAxzFn18AAAAASUVORK5CYII=;" vertex="1" parent="1">
          <mxGeometry x="2070" y="607.46" width="440" height="258.53" as="geometry" />
        </mxCell>
        <mxCell id="vRJ8NS9Ozwkvw3oWJRk8-29" value="2-3-1. 支持批量修改 ID&amp;nbsp;&lt;span data-darkreader-inline-bgcolor=&quot;&quot; style=&quot;background-color: rgb(255, 28, 3); --darkreader-inline-bgcolor:#ca1400;&quot;&gt;（支不支持待定？）&lt;/span&gt;" style="whiteSpace=wrap;html=1;strokeColor=default;fillColor=default;" vertex="1" parent="1">
          <mxGeometry x="1600" y="770" width="270" height="50" as="geometry" />
        </mxCell>
      </root>
    </mxGraphModel>
  </diagram>
</mxfile>
